<?xml version="1.0" standalone="no"?>
<!DOCTYPE svg PUBLIC "-//W3C//DTD SVG 1.1//EN" "http://www.w3.org/Graphics/SVG/1.1/DTD/svg11.dtd" >
<svg xmlns="http://www.w3.org/2000/svg" xmlns:xlink="http://www.w3.org/1999/xlink" version="1.1">
<metadata>
Created by FontForge 20170731 at Tue Aug 23 06:09:22 2016
 By Aleksey,,,
Copyright (c) 2004-7 by Kris Sowersby. All rights reserved.
</metadata>
<defs>
<font id="DomaineDisplay-Bold" horiz-adv-x="500" >
  <font-face 
    font-family="Copyright Klim Type Foundry"
    font-weight="700"
    font-stretch="normal"
    units-per-em="1000"
    panose-1="2 10 8 3 8 5 5 6 2 3"
    ascent="800"
    descent="-200"
    x-height="495"
    cap-height="700"
    bbox="-165 -275 1299 1086"
    underline-thickness="0"
    underline-position="0"
    unicode-range="U+000D-FB04"
  />
<missing-glyph 
 />
    <glyph glyph-name="ff" unicode="ff" horiz-adv-x="671" 
d="M247 622v-127h147v37v18t1 11q-19 1 -35 6.5t-25 14.5q22 6 34 24.5t12 47.5q0 36 -15 56t-44 20q-36 0 -55.5 -28t-19.5 -80zM304 2v-2h-283v2q31 19 39 36.5t8 70.5v361h-58v11l58 22v16q0 107 68 167t186 60q43 0 78 -13t56 -37q31 30 77 45.5t102 15.5
q77 0 120.5 -27t43.5 -77q0 -36 -25.5 -59t-63.5 -23q-22 0 -39.5 6.5t-27.5 17.5q23 6 35 25.5t12 51.5t-14.5 50.5t-40.5 18.5q-30 0 -46 -25.5t-16 -73.5v-147h124l-5 -25h-119v-361q0 -46 10 -65.5t47 -41.5v-2h-282v2q30 19 38 36.5t8 70.5v361h-147v-361
q0 -47 10 -66.5t47 -40.5z" />
    <glyph glyph-name="fi" unicode="fi" horiz-adv-x="636" 
d="M335 741q-41 0 -64.5 -32t-23.5 -89v-125h326v-386q0 -53 8 -70.5t39 -36.5v-2h-272v2q30 19 38 36.5t8 70.5v320q0 22 -9.5 31.5t-31.5 9.5h-106v-361q0 -47 10 -66.5t47 -40.5v-2h-283v2q31 19 39 36.5t8 70.5v361h-58v11l58 22v23q0 106 74 168.5t193 62.5
q90 0 143.5 -31t53.5 -85q0 -38 -28.5 -62t-71.5 -24q-24 0 -44 7t-34 20q25 6 39 27.5t14 53.5q0 37 -18.5 57.5t-53.5 20.5z" />
    <glyph glyph-name="fl" unicode="fl" horiz-adv-x="635" 
d="M571 756h2v-647q0 -53 8 -70.5t39 -36.5v-2h-272v2q30 19 38 36.5t8 70.5v521q0 50 -23 80.5t-64 30.5q-28 0 -44 -24.5t-16 -65.5v-156h98l-5 -25h-93v-361q0 -47 10 -66.5t47 -40.5v-2h-283v2q31 19 39 36.5t8 70.5v361h-58v11l58 22v29q0 109 60.5 167t172.5 58
q40 0 80.5 -18.5t64.5 -45.5q36 10 66.5 25.5t58.5 37.5z" />
    <glyph glyph-name="ffi" unicode="ffi" horiz-adv-x="962" 
d="M247 622v-127h147v31q0 7 0.5 15t1.5 20q-20 1 -36 6.5t-25 14.5q22 6 34 24.5t12 47.5q0 36 -15 56t-44 20q-36 0 -55.5 -28t-19.5 -80zM304 2v-2h-283v2q31 19 39 36.5t8 70.5v361h-58v11l58 22v16q0 107 68 167t186 60q46 0 83.5 -15t56.5 -42q36 33 87 50.5t112 17.5
q90 0 143.5 -31t53.5 -85q0 -38 -28 -62t-72 -24q-24 0 -44 7t-34 20q25 6 39.5 27.5t14.5 53.5q0 37 -19 57.5t-54 20.5q-41 0 -64.5 -32t-23.5 -89v-125h327v-386q0 -53 8 -70.5t38 -36.5v-2h-272v2q31 19 39 36.5t8 70.5v320q0 22 -10 31.5t-32 9.5h-106v-361
q0 -46 10 -65.5t47 -41.5v-2h-282v2q30 19 38 36.5t8 70.5v361h-147v-361q0 -47 10 -66.5t47 -40.5z" />
    <glyph glyph-name="ffl" unicode="ffl" horiz-adv-x="962" 
d="M247 622v-127h147v37v18t1 11q-19 1 -35 6.5t-25 14.5q22 6 34 24.5t12 47.5q0 36 -15 56t-44 20q-36 0 -55.5 -28t-19.5 -80zM304 2v-2h-283v2q31 19 39 36.5t8 70.5v361h-58v11l58 22v16q0 107 68 167t186 60q42 0 76.5 -12.5t55.5 -35.5q31 29 75 44t99 15
q40 0 80.5 -18.5t64.5 -45.5q37 11 67 26t58 36h2v-646q0 -53 8 -70.5t38 -36.5v-2h-272v2q31 19 39 36.5t8 70.5v521q0 50 -23.5 80.5t-64.5 30.5q-28 0 -44 -24.5t-16 -65.5v-156h99l-5 -25h-94v-361q0 -46 10 -65.5t47 -41.5v-2h-282v2q30 19 38 36.5t8 70.5v361h-147
v-361q0 -47 10 -66.5t47 -40.5z" />
    <glyph glyph-name="f_b" unicode="fb" horiz-adv-x="971" 
d="M571 756h2v-385q17 62 62 98t106 36q91 0 151 -70.5t60 -180.5q0 -118 -70 -191t-179 -73q-65 0 -111 26t-68 76q-23 -43 -58 -68t-81 -32q5 33 7 75.5t2 144.5v418q0 50 -23 80.5t-64 30.5q-28 0 -44 -24.5t-16 -65.5v-156h98l-5 -25h-93v-361q0 -47 10 -66.5t47 -40.5
v-2h-283v2q31 19 39 36.5t8 70.5v361h-58v11l58 22v29q0 109 60.5 167t172.5 58q40 0 80.5 -18.5t64.5 -45.5q36 10 66.5 25.5t58.5 37.5zM763 243q0 92 -25 141.5t-71 49.5q-40 0 -67 -40t-27 -100v-147q0 -54 26.5 -91t64.5 -37q50 0 74.5 55t24.5 169z" />
    <glyph glyph-name="f_f_b" unicode="ffb" horiz-adv-x="1297" 
d="M1278 254q0 -118 -69.5 -191t-179.5 -73q-64 0 -110 26.5t-68 75.5q-25 -43 -59.5 -68t-80.5 -32q5 33 7.5 75.5t2.5 144.5v418q0 50 -23.5 80.5t-64.5 30.5q-28 0 -44 -24.5t-16 -65.5v-156h99l-5 -25h-94v-361q0 -46 10 -65.5t47 -41.5v-2h-282v2q30 19 38 36.5t8 70.5
v361h-147v-361q0 -47 10 -66.5t47 -40.5v-2h-283v2q31 19 39 36.5t8 70.5v361h-58v11l58 22v16q0 107 68 167t186 60q42 0 76.5 -12.5t55.5 -35.5q31 29 75 44t99 15q40 0 80.5 -18.5t64.5 -45.5q37 11 67 26t58 36h2v-384q16 61 61 97.5t106 36.5q91 0 151 -70.5t60 -180.5
zM247 622v-127h147v37v18t1 11q-19 1 -35 6.5t-25 14.5q22 6 34 24.5t12 47.5q0 36 -15 56t-44 20q-36 0 -55.5 -28t-19.5 -80zM1089 243q0 93 -24.5 142t-71.5 49q-39 0 -66 -40t-27 -100v-147q0 -55 26 -91.5t64 -36.5q50 0 74.5 55t24.5 169z" />
    <glyph glyph-name="f_h" unicode="fh" horiz-adv-x="965" 
d="M571 756h2v-391q19 67 64.5 103.5t109.5 36.5q75 0 116.5 -46.5t41.5 -126.5v-223q0 -53 8 -70.5t39 -36.5v-2h-272v2q30 19 38 36.5t8 70.5v228q0 39 -17.5 61t-49.5 22q-41 0 -63.5 -34.5t-22.5 -97.5v-179q0 -53 8 -70.5t39 -36.5v-2h-272v2q30 19 38 36.5t8 70.5v521
q0 50 -23 80.5t-64 30.5q-28 0 -44 -24.5t-16 -65.5v-156h98l-5 -25h-93v-361q0 -47 10 -66.5t47 -40.5v-2h-283v2q31 19 39 36.5t8 70.5v361h-58v11l58 22v29q0 109 60.5 167t172.5 58q40 0 80.5 -18.5t64.5 -45.5q36 10 66.5 25.5t58.5 37.5z" />
    <glyph glyph-name="f_f_h" unicode="ffh" horiz-adv-x="1292" 
d="M247 622v-127h147v37v18t1 11q-19 1 -35 6.5t-25 14.5q22 6 34 24.5t12 47.5q0 36 -15 56t-44 20q-36 0 -55.5 -28t-19.5 -80zM304 2v-2h-283v2q31 19 39 36.5t8 70.5v361h-58v11l58 22v16q0 107 68 167t186 60q42 0 76.5 -12.5t55.5 -35.5q31 29 75 44t99 15
q40 0 80.5 -18.5t64.5 -45.5q37 11 67 26t58 36h2v-390q18 66 63.5 102.5t109.5 36.5q75 0 117 -46.5t42 -126.5v-222q0 -53 8 -70.5t38 -36.5v-2h-272v2q31 19 39 36.5t8 70.5v228q0 38 -18 60t-50 22q-41 0 -63 -34t-22 -98v-178q0 -53 8 -70.5t38 -36.5v-2h-272v2
q31 19 39 36.5t8 70.5v521q0 50 -23.5 80.5t-64.5 30.5q-28 0 -44 -24.5t-16 -65.5v-156h99l-5 -25h-94v-361q0 -46 10 -65.5t47 -41.5v-2h-282v2q30 19 38 36.5t8 70.5v361h-147v-361q0 -47 10 -66.5t47 -40.5z" />
    <glyph glyph-name="f_j" unicode="fj" horiz-adv-x="626" 
d="M336 -229q-76 0 -121.5 27.5t-45.5 75.5q0 34 27 56t67 22q22 0 41 -5.5t30 -15.5q-25 -6 -38 -25t-13 -50q0 -33 14 -51t41 -18q28 0 42 24t14 73v545q0 22 -9.5 31.5t-31.5 9.5h-106v-361q0 -47 10 -66.5t47 -40.5v-2h-283v2q31 19 39 36.5t8 70.5v361h-58v11l58 22v23
q0 106 74 168.5t193 62.5q90 0 143.5 -31t53.5 -85q0 -38 -28.5 -62t-71.5 -24q-24 0 -44 7t-34 20q25 6 39 27.5t14 53.5q0 37 -18.5 57.5t-53.5 20.5q-41 0 -64.5 -32t-23.5 -89v-125h326v-519q0 -97 -63.5 -151t-173.5 -54z" />
    <glyph glyph-name="f_f_j" unicode="ffj" horiz-adv-x="957" 
d="M247 622v-127h147v31q0 7 0.5 15t1.5 20q-20 1 -36 6.5t-25 14.5q22 6 34 24.5t12 47.5q0 36 -15 56t-44 20q-36 0 -55.5 -28t-19.5 -80zM662 -229q-76 0 -121.5 27.5t-45.5 75.5q0 34 27 56t67 22q22 0 41 -5.5t30 -15.5q-24 -6 -37.5 -25.5t-13.5 -49.5q0 -33 14 -51
t41 -18q29 0 43 23.5t14 73.5v545q0 22 -10 31.5t-32 9.5h-106v-361q0 -46 10 -65.5t47 -41.5v-2h-282v2q30 19 38 36.5t8 70.5v361h-147v-361q0 -47 10 -66.5t47 -40.5v-2h-283v2q31 19 39 36.5t8 70.5v361h-58v11l58 22v16q0 107 68 167t186 60q46 0 83.5 -15t56.5 -42
q36 33 87 50.5t112 17.5q90 0 143.5 -31t53.5 -85q0 -38 -28 -62t-72 -24q-24 0 -44 7t-34 20q25 6 39.5 27.5t14.5 53.5q0 37 -19 57.5t-54 20.5q-41 0 -64.5 -32t-23.5 -89v-125h327v-519q0 -97 -63.5 -151t-174.5 -54z" />
    <glyph glyph-name="f_k" unicode="fk" horiz-adv-x="954" 
d="M571 756h2v-477h19q25 0 39.5 6.5t31.5 22.5l89 85q17 16 25 31t7 28q0 14 -9 25t-24 16v2h196v-2q-44 -13 -75.5 -30.5t-68.5 -51.5l-57 -55l121 -232q24 -46 50 -76t55 -46v-2h-252q2 14 -2 32.5t-15 38.5l-82 163q-8 15 -15.5 20.5t-19.5 5.5h-13v-151q0 -53 8 -70.5
t39 -36.5v-2h-272v2q30 19 38 36.5t8 70.5v521q0 50 -23 80.5t-64 30.5q-28 0 -44 -24.5t-16 -65.5v-156h98l-5 -25h-93v-361q0 -47 10 -66.5t47 -40.5v-2h-283v2q31 19 39 36.5t8 70.5v361h-58v11l58 22v29q0 109 60.5 167t172.5 58q40 0 80.5 -18.5t64.5 -45.5
q36 10 66.5 25.5t58.5 37.5z" />
    <glyph glyph-name="f_f_k" unicode="ffk" horiz-adv-x="1280" 
d="M247 622v-127h147v37v18t1 11q-19 1 -35 6.5t-25 14.5q22 6 34 24.5t12 47.5q0 36 -15 56t-44 20q-36 0 -55.5 -28t-19.5 -80zM304 2v-2h-283v2q31 19 39 36.5t8 70.5v361h-58v11l58 22v16q0 107 68 167t186 60q42 0 76.5 -12.5t55.5 -35.5q31 29 75 44t99 15
q40 0 80.5 -18.5t64.5 -45.5q37 11 67 26t58 36h2v-476h19q24 0 38.5 6.5t32.5 22.5l88 85q16 16 24.5 30.5t8.5 28.5t-9 25t-25 16v2h197v-2q-43 -13 -75 -30.5t-70 -51.5l-57 -55l121 -232q24 -46 50.5 -76t55.5 -46v-2h-252q2 13 -2.5 32t-15.5 39l-82 163
q-7 15 -14.5 20.5t-20.5 5.5h-12v-151q0 -53 8 -70.5t38 -36.5v-2h-272v2q31 19 39 36.5t8 70.5v521q0 50 -23.5 80.5t-64.5 30.5q-28 0 -44 -24.5t-16 -65.5v-156h99l-5 -25h-94v-361q0 -46 10 -65.5t47 -41.5v-2h-282v2q30 19 38 36.5t8 70.5v361h-147v-361
q0 -47 10 -66.5t47 -40.5z" />
    <glyph glyph-name=".notdef" 
 />
    <glyph glyph-name=".null" horiz-adv-x="0" 
 />
    <glyph glyph-name="nonmarkingreturn" unicode="&#xd;" 
 />
    <glyph glyph-name="NULL" horiz-adv-x="0" 
 />
    <glyph glyph-name="NULL" horiz-adv-x="0" 
 />
    <glyph glyph-name="space" unicode=" " horiz-adv-x="200" 
 />
    <glyph glyph-name="exclam" unicode="!" horiz-adv-x="304" 
d="M150 244l-112 456h228l-112 -456h-4zM152 194q42 0 71 -29.5t29 -71.5t-29 -71.5t-71 -29.5t-71 29.5t-29 71.5t29 71.5t71 29.5z" />
    <glyph glyph-name="quotedbl" unicode="&#x22;" horiz-adv-x="502" 
d="M405 517q-13 -35 -22 -67t-16 -63h-5q-6 31 -15.5 63t-21.5 67q-14 37 -28.5 67.5t-30.5 53.5q10 31 38 51.5t61 20.5t61 -20.5t37 -51.5q-15 -23 -30 -53.5t-28 -67.5zM177 517q-12 -35 -21.5 -67t-15.5 -63h-5q-7 31 -16 63t-22 67q-13 37 -28 67.5t-30 53.5
q9 31 37 51.5t61 20.5t61 -20.5t38 -51.5q-16 -23 -30.5 -53.5t-28.5 -67.5z" />
    <glyph glyph-name="numbersign" unicode="#" horiz-adv-x="635" 
d="M225 243h154l30 215h-154zM371 0h-27l31 217h-154l-31 -217h-26l31 217h-154l4 26h154l30 215h-168l4 27h168l31 215h26l-31 -215h154l31 215h27l-31 -215h154l-4 -27h-154l-30 -215h169l-5 -26h-168z" />
    <glyph glyph-name="dollar" unicode="$" horiz-adv-x="593" 
d="M297 691q-6 0 -12.5 -0.5t-18.5 -1.5v-226l60 -17v243q-10 1 -16.5 1.5t-12.5 0.5zM153 575q0 -40 21 -64.5t69 -40.5l5 -1v216q-45 -11 -70 -40t-25 -70zM291 9q7 0 15 0.5t20 1.5v248l-60 17v-266q4 -1 9 -1h16zM457 140q0 45 -25.5 71t-85.5 43l-3 1v-241
q53 12 83.5 45t30.5 81zM291 -10h-12.5h-12.5v-104h-18v105q-106 8 -167 47t-61 100q0 40 27 64.5t70 24.5q24 0 43.5 -8.5t29.5 -22.5q-22 -3 -35 -22t-13 -48q0 -41 28.5 -72t77.5 -41v267l-21 6q-94 26 -142 78t-48 128q0 86 57 144t154 71v103h18v-101q5 1 11.5 1h19.5
h18t11 -1v101h17v-102q93 -7 146.5 -42.5t53.5 -88.5q0 -36 -24.5 -58.5t-62.5 -22.5q-23 0 -42.5 8t-30.5 22q23 3 36.5 21t13.5 45q0 34 -24 59t-66 35v-245l29 -9q103 -31 148.5 -81t45.5 -127q0 -89 -62 -152t-161 -78v-108h-17v106q-12 -1 -20 -1.5t-15 -0.5z" />
    <glyph glyph-name="percent" unicode="%" horiz-adv-x="697" 
d="M554 710l-388 -710h-47l395 675q-23 -21 -59 -34t-72 -13q-15 0 -30 2.5t-38 8.5q14 -20 21.5 -42t7.5 -46q0 -66 -47.5 -112t-114.5 -46q-66 0 -114 46t-48 112t48 112t114 46q21 0 40.5 -5.5t53.5 -22.5q37 -18 59.5 -24t47.5 -6q46 0 82 14.5t77 53.5zM133 551
q0 -78 11.5 -109.5t37.5 -31.5q27 0 38.5 31.5t11.5 109.5t-11.5 109.5t-38.5 31.5q-26 0 -37.5 -31.5t-11.5 -109.5zM677 153q0 -66 -48 -112t-114 -46t-114 46.5t-48 111.5q0 66 48 112.5t114 46.5q67 0 114.5 -46.5t47.5 -112.5zM466 153q0 -79 11.5 -109.5t37.5 -30.5
q27 0 38.5 31.5t11.5 108.5q0 78 -11.5 109.5t-38.5 31.5q-26 0 -37.5 -31t-11.5 -110z" />
    <glyph glyph-name="ampersand" unicode="&#x26;" horiz-adv-x="778" 
d="M260 607q0 -29 13.5 -56t51.5 -69l53 -59q30 25 46.5 61.5t16.5 78.5q0 59 -26.5 94t-72.5 35q-38 0 -60 -23t-22 -62zM189 206q0 -77 46.5 -125.5t121.5 -48.5q28 0 56.5 8.5t57.5 24.5l-239 262q-22 -22 -32.5 -51.5t-10.5 -69.5zM786 0h-256l-39 43
q-42 -26 -92.5 -39.5t-106.5 -13.5q-112 0 -183 49.5t-71 131.5q0 65 48 108.5t135 58.5l-39 43q-29 32 -44.5 69t-15.5 74q0 85 62 135.5t158 50.5q95 0 155.5 -40.5t60.5 -106.5q0 -60 -43 -99.5t-124 -55.5l200 -224q15 26 24 53t10 54q2 33 -13 52t-64 39v3h190v-3
q-37 -14 -53 -31t-26 -60q-7 -34 -20 -66t-30 -62l75 -84q24 -27 43.5 -42.5t58.5 -34.5v-2z" />
    <glyph glyph-name="quotesingle" unicode="'" horiz-adv-x="275" 
d="M177 517q-12 -35 -21.5 -67t-15.5 -63h-5q-7 31 -16 63t-22 67q-13 37 -28 67.5t-30 53.5q9 31 37 51.5t61 20.5t61 -20.5t38 -51.5q-16 -23 -30.5 -53.5t-28.5 -67.5z" />
    <glyph glyph-name="parenleft" unicode="(" horiz-adv-x="371" 
d="M35 313q0 140 77 250.5t226 185.5h18q-75 -63 -116.5 -179.5t-41.5 -256.5t41.5 -256.5t116.5 -179.5h-18q-149 75 -226 185.5t-77 250.5z" />
    <glyph glyph-name="parenright" unicode=")" horiz-adv-x="371" 
d="M336 313q0 -140 -77 -250.5t-226 -185.5h-18q75 63 116.5 179.5t41.5 256.5t-41.5 256.5t-116.5 179.5h18q149 -75 226 -185.5t77 -250.5z" />
    <glyph glyph-name="asterisk" unicode="*" horiz-adv-x="436" 
d="M207 599q-6 40 -25.5 88t-33.5 62h140q-14 -14 -33.5 -62t-25.5 -88q38 19 76.5 52t46.5 51l44 -134q-17 10 -67.5 13.5t-92.5 -2.5q30 -30 73.5 -57t62.5 -29l-114 -83q4 19 -8.5 68.5t-31.5 86.5q-19 -37 -31.5 -86.5t-8.5 -68.5l-114 83q19 2 62.5 29t73.5 57
q-42 6 -92.5 2.5t-67.5 -13.5l44 134q8 -18 46.5 -51t76.5 -52z" />
    <glyph glyph-name="plus" unicode="+" horiz-adv-x="479" 
d="M435 337v-30h-181v-180h-30v180h-180v30h180v180h30v-180h181z" />
    <glyph glyph-name="comma" unicode="," horiz-adv-x="249" 
d="M167 27q-9 -11 -24.5 -17.5t-35.5 -6.5q-36 0 -59.5 24.5t-23.5 63.5q0 41 27 67.5t69 26.5q48 0 77.5 -33.5t29.5 -87.5q0 -87 -58.5 -139.5t-150.5 -51.5v16q74 5 113 41t36 97z" />
    <glyph glyph-name="hyphen" unicode="-" horiz-adv-x="325" 
d="M287 254h-249v63h249v-63z" />
    <glyph glyph-name="period" unicode="." horiz-adv-x="249" 
d="M124 194q42 0 71 -29.5t29 -71.5t-29 -71.5t-71 -29.5t-71 29.5t-29 71.5t29 71.5t71 29.5z" />
    <glyph glyph-name="slash" unicode="/" horiz-adv-x="353" 
d="M35 -123h-35l298 872h35z" />
    <glyph glyph-name="zero" unicode="0" horiz-adv-x="691" 
d="M345 710q140 0 229.5 -100.5t89.5 -259.5t-89.5 -259.5t-229.5 -100.5t-229 100t-89 260t89 260t229 100zM345 9q61 0 87.5 78.5t26.5 262.5q0 185 -26.5 263t-87.5 78t-87.5 -78.5t-26.5 -262.5q0 -183 26.5 -262t87.5 -79z" />
    <glyph glyph-name="one" unicode="1" horiz-adv-x="403" 
d="M394 5v-5h-382v5q2 1 28.5 10.5t36.5 15.5q19 9 25.5 21t6.5 35v525q0 23 -7 35t-26 21q-11 5 -35 14.5t-32 12.5v5h289v-613q0 -23 6.5 -35t24.5 -21q11 -5 36 -15t29 -11z" />
    <glyph glyph-name="two" unicode="2" horiz-adv-x="577" 
d="M357 544q0 72 -26.5 110t-77.5 38t-80 -34.5t-29 -92.5q0 -46 22.5 -73.5t57.5 -27.5q15 0 25 3t19 11h2q-13 -41 -43.5 -62.5t-75.5 -21.5q-57 0 -93.5 37t-36.5 97q0 81 64.5 131.5t167.5 50.5q134 0 208.5 -53t74.5 -152q0 -94 -76.5 -170t-311.5 -193h196
q94 0 132 17t72 69h2l-27 -228h-525v2q82 81 137 139.5t93 103.5q71 86 100 152.5t29 146.5z" />
    <glyph glyph-name="three" unicode="3" horiz-adv-x="575" 
d="M161 138q0 -57 28.5 -93.5t73.5 -36.5q49 0 77.5 49.5t28.5 133.5q0 91 -35 135.5t-105 44.5v9q61 3 90 42.5t29 123.5q0 74 -20.5 110t-61.5 36q-38 0 -61 -29.5t-23 -77.5q0 -41 14.5 -65.5t40.5 -23.5q5 0 10 1t9 2h2q-11 -23 -37 -35.5t-63 -12.5q-50 0 -81.5 29.5
t-31.5 77.5q0 68 62 110t159 42q118 0 190 -46t72 -124q0 -67 -50 -108.5t-142 -51.5q101 -6 160.5 -55.5t59.5 -131.5q0 -94 -79.5 -148.5t-213.5 -54.5q-113 0 -183.5 46t-70.5 124q0 54 35 87t91 33q40 0 66 -13t38 -39h-2q-5 2 -10.5 2.5t-10.5 0.5q-26 1 -40.5 -24
t-14.5 -69z" />
    <glyph glyph-name="four" unicode="4" horiz-adv-x="645" 
d="M53 223h253v379zM306 122v72h-304v4l338 506h152v-481h37q41 0 58.5 10t42.5 55h2v-159h-2q-25 45 -42.5 55t-58.5 10h-37v-72q0 -50 11.5 -74.5t44.5 -45.5v-2h-297v2q33 22 44 46t11 74z" />
    <glyph glyph-name="five" unicode="5" horiz-adv-x="570" 
d="M155 136q0 -56 28 -92t72 -36q53 0 81.5 55t28.5 155q0 84 -36.5 133.5t-100.5 49.5q-34 0 -70.5 -18.5t-64.5 -48.5h-1l44 374q52 -7 113.5 -11t105.5 -4q79 0 112 10t57 35h2q0 -105 -43 -153.5t-134 -48.5q-43 0 -105.5 11t-98.5 24l-21 -190q30 32 77.5 50.5
t102.5 18.5q111 0 177.5 -57.5t66.5 -154.5q0 -113 -81.5 -180.5t-211.5 -67.5q-110 0 -179 45t-69 122q0 56 34 88.5t90 32.5q38 0 64.5 -14t37.5 -39h-2q-4 2 -9 3t-11 1q-26 1 -41 -24.5t-15 -68.5z" />
    <glyph glyph-name="six" unicode="6" horiz-adv-x="619" 
d="M27 335q0 160 95 267.5t244 107.5q101 0 161.5 -38t60.5 -104q0 -44 -30.5 -71.5t-76.5 -27.5q-39 0 -68 20.5t-37 55.5h2q5 -4 11.5 -6t13.5 -2q22 0 36 19t14 49q0 40 -23.5 63.5t-63.5 23.5q-74 0 -113.5 -78.5t-39.5 -220.5q0 -11 0.5 -26.5t1.5 -32.5q21 50 64 77
t102 27q95 0 154 -56t59 -152q0 -108 -75 -174t-195 -66q-130 0 -213.5 97.5t-83.5 247.5zM324 8q44 0 67 51t23 147q0 95 -23.5 145t-68.5 50q-44 0 -68.5 -51.5t-24.5 -143.5q0 -95 24.5 -146.5t70.5 -51.5z" />
    <glyph glyph-name="seven" unicode="7" horiz-adv-x="539" 
d="M114 700h429v-2l-137 -219q-57 -89 -75.5 -212t2.5 -258l-194 -18q11 111 61 218t185 276l37 46h-275q-49 0 -76.5 -20.5t-54.5 -77.5h-2l21 278q11 -6 29.5 -8.5t49.5 -2.5z" />
    <glyph glyph-name="eight" unicode="8" horiz-adv-x="591" 
d="M525 560q0 -52 -42 -87t-106 -41q98 -34 147 -89t49 -131q0 -102 -76 -162t-200 -60q-126 0 -203 47t-77 127q0 56 43 94.5t119 50.5q-61 27 -97 77.5t-36 111.5q0 97 67.5 154.5t176.5 57.5q103 0 169 -41.5t66 -108.5zM290 693q-50 0 -80.5 -29t-30.5 -78
q1 -38 23 -64.5t71 -46.5l92 -38q27 23 40 54.5t13 71.5q0 60 -34 95t-94 35zM314 250l-124 53q-28 -20 -43 -53t-15 -77q0 -73 46 -119t119 -46q61 0 98 31.5t37 83.5q0 42 -24.5 70t-93.5 57z" />
    <glyph glyph-name="nine" unicode="9" horiz-adv-x="619" 
d="M592 365q0 -160 -95 -267.5t-244 -107.5q-101 0 -161.5 38t-60.5 104q0 44 30.5 71.5t76.5 27.5q39 0 68 -20.5t37 -55.5h-2q-5 4 -11.5 6t-13.5 2q-22 0 -36 -19t-14 -49q0 -40 23.5 -63.5t63.5 -23.5q74 0 113.5 78.5t39.5 220.5q0 11 -0.5 26.5t-1.5 32.5
q-21 -50 -64 -77t-102 -27q-95 0 -154 56t-59 152q0 108 75 174t195 66q130 0 213.5 -97.5t83.5 -247.5zM295 692q-44 0 -67 -51t-23 -147q0 -95 23.5 -145t68.5 -50q44 0 68.5 51.5t24.5 143.5q0 95 -24.5 146.5t-70.5 51.5z" />
    <glyph glyph-name="colon" unicode=":" horiz-adv-x="249" 
d="M124 194q42 0 71 -29.5t29 -71.5t-29 -71.5t-71 -29.5t-71 29.5t-29 71.5t29 71.5t71 29.5zM124 481q42 0 71 -29.5t29 -71.5t-29 -71.5t-71 -29.5t-71 29.5t-29 71.5t29 71.5t71 29.5z" />
    <glyph glyph-name="semicolon" unicode=";" horiz-adv-x="249" 
d="M167 27q-9 -11 -24.5 -17.5t-35.5 -6.5q-36 0 -59.5 24.5t-23.5 63.5q0 41 27 67.5t69 26.5q48 0 77.5 -33.5t29.5 -87.5q0 -87 -58.5 -139.5t-150.5 -51.5v16q74 5 113 41t36 97zM124 481q42 0 71 -29.5t29 -71.5t-29 -71.5t-71 -29.5t-71 29.5t-29 71.5t29 71.5
t71 29.5z" />
    <glyph glyph-name="less" unicode="&#x3c;" horiz-adv-x="351" 
d="M312 146l-284 165v18l284 165v-35l-243 -139l243 -139v-35z" />
    <glyph glyph-name="equal" unicode="=" horiz-adv-x="484" 
d="M438 373h-392v30h392v-30zM438 243h-392v30h392v-30z" />
    <glyph glyph-name="greater" unicode="&#x3e;" horiz-adv-x="351" 
d="M39 494l284 -165v-18l-284 -165v35l243 139l-243 139v35z" />
    <glyph glyph-name="question" unicode="?" horiz-adv-x="555" 
d="M383 575q0 52 -33.5 84.5t-89.5 32.5q-49 0 -81 -29.5t-32 -73.5q0 -36 19 -58t50 -22q8 0 15.5 1.5t12.5 4.5l2 -1q-11 -34 -39 -53t-67 -19q-49 0 -81.5 31.5t-32.5 80.5q0 69 65.5 112.5t168.5 43.5q122 0 195.5 -54.5t73.5 -144.5q0 -87 -72 -152t-183 -82v-40h-20
v183q66 22 97.5 60t31.5 95zM164 93q0 42 28.5 71.5t70.5 29.5t71 -29.5t29 -71.5t-29 -71.5t-71 -29.5t-70.5 29.5t-28.5 71.5z" />
    <glyph glyph-name="at" unicode="@" horiz-adv-x="918" 
d="M574 384q27 32 71 52t87 20l-74 -297q-9 -32 0.5 -50t35.5 -18q29 0 59 25.5t50 68.5q15 32 23 69.5t8 78.5q0 139 -95.5 223.5t-244.5 84.5q-82 0 -153.5 -33t-124.5 -94q-49 -58 -76 -134t-27 -158q0 -164 101.5 -262.5t262.5 -98.5q96 0 175 26t140 77l2 -4
q-54 -59 -137.5 -92t-179.5 -33q-200 0 -318.5 103.5t-118.5 284.5q0 91 34.5 172.5t98.5 142.5q63 60 145.5 92t175.5 32q167 0 275.5 -91t108.5 -238q0 -130 -68 -212t-168 -82q-59 0 -95 25.5t-43 71.5q-25 -50 -60.5 -73.5t-84.5 -23.5q-61 0 -99 42.5t-38 112.5
q0 114 66.5 192.5t168.5 78.5q47 0 77.5 -21t39.5 -60zM428 93q30 0 55.5 35.5t38.5 93.5l28 118q9 38 -1.5 60.5t-36.5 22.5q-47 0 -88 -82t-41 -167q0 -37 12 -59t33 -22z" />
    <glyph glyph-name="A" unicode="A" horiz-adv-x="745" 
d="M400 235l-113 241l-108 -241h221zM119 77q0 -24 14 -43.5t41 -31.5v-2h-174v2q28 18 49.5 46.5t43.5 74.5l275 587h4l292 -598q24 -50 40 -71.5t41 -38.5v-2h-315v2q23 13 32.5 26t9.5 30q0 13 -3.5 26.5t-11.5 30.5l-43 91h-248l-34 -75q-7 -15 -10 -28.5t-3 -25.5z" />
    <glyph glyph-name="B" unicode="B" horiz-adv-x="708" 
d="M686 187q0 -92 -71 -139.5t-209 -47.5h-381v2q33 22 44 46t11 74v457q0 50 -11 73.5t-44 45.5v2h367q125 0 188.5 -44t63.5 -131q0 -69 -52 -113t-135 -49q103 -5 166 -51.5t63 -124.5zM268 673v-302h54q67 0 105.5 40.5t38.5 110.5q0 71 -38 111t-106 40h-54zM268 346
v-319h69q81 0 123.5 41t42.5 119q0 77 -43 118t-123 41h-69z" />
    <glyph glyph-name="C" unicode="C" horiz-adv-x="685" 
d="M576 680q16 0 30 6t35 24l7 -238h-2q-42 106 -99 161t-125 55q-88 0 -141 -85t-53 -219t66 -216t170 -82q71 0 119 30t78 93l6 -2q-26 -103 -104 -160t-193 -57q-151 0 -247.5 97.5t-96.5 252.5q0 160 108.5 265t268.5 105q29 0 57.5 -4t70.5 -16q21 -7 29.5 -8.5
t15.5 -1.5z" />
    <glyph glyph-name="D" unicode="D" horiz-adv-x="776" 
d="M333 0h-308v2q33 22 44 46t11 74v457q0 50 -11 73.5t-44 45.5v2h299q200 0 312.5 -91t112.5 -256q0 -167 -111 -260t-305 -93zM268 675v-650h52q110 0 169 84.5t59 243.5q0 154 -61 238t-172 84h-47z" />
    <glyph glyph-name="E" unicode="E" horiz-adv-x="662" 
d="M25 698v2h490q28 0 44.5 2t25.5 7l34 -194h-2q-54 93 -105 125.5t-130 32.5h-114v-297h91q64 0 93.5 23.5t52.5 90.5h2v-252h-2q-22 64 -51 86.5t-95 22.5h-91v-320h130q76 0 129 35t115 142h2l-32 -204h-587v2q33 22 44 46t11 74v457q0 50 -11 73.5t-44 45.5z" />
    <glyph glyph-name="F" unicode="F" horiz-adv-x="628" 
d="M362 332h-94v-213q0 -47 15 -70t62 -47v-2h-320v2q33 22 44 46t11 74v457q0 50 -11 73.5t-44 45.5v2h480q28 0 44.5 2t26.5 7l34 -194h-2q-54 93 -105 125.5t-130 32.5h-105v-312h94q64 0 93.5 24t51.5 90h2v-252h-2q-21 64 -50 86.5t-95 22.5z" />
    <glyph glyph-name="G" unicode="G" horiz-adv-x="769" 
d="M427 688q-92 0 -144.5 -91.5t-52.5 -251.5q0 -148 45 -239t121 -91q58 0 91 37t33 103v53q0 51 -11 74.5t-44 44.5v2h293v-2q-33 -21 -44 -44.5t-11 -74.5v-218h-2l-87 100q-37 -45 -97 -72.5t-125 -27.5q-164 0 -265 98t-101 257q0 158 110 261.5t273 103.5
q30 0 59.5 -4t73.5 -17q22 -6 30.5 -7.5t15.5 -1.5q16 0 30 6t35 24l7 -238h-2q-44 104 -103.5 160t-127.5 56z" />
    <glyph glyph-name="H" unicode="H" horiz-adv-x="826" 
d="M80 122v457q0 50 -11 73.5t-44 45.5v2h298v-2q-33 -22 -44 -45.5t-11 -73.5v-202h289v202q0 51 -11 74.5t-44 44.5v2h299v-2q-33 -21 -44 -44.5t-11 -74.5v-457q0 -51 11 -75t44 -45v-2h-299v2q33 21 44 45t11 75v225h-289v-225q0 -50 11 -74t44 -46v-2h-298v2
q33 22 44 46t11 74z" />
    <glyph glyph-name="I" unicode="I" horiz-adv-x="348" 
d="M268 579v-457q0 -50 11 -74t44 -46v-2h-298v2q33 22 44 46t11 74v457q0 50 -11 73.5t-44 45.5v2h298v-2q-33 -22 -44 -45.5t-11 -73.5z" />
    <glyph glyph-name="J" unicode="J" horiz-adv-x="607" 
d="M254 9q48 0 72 36.5t24 109.5v424q0 51 -11 74.5t-44 44.5v2h299v-2q-33 -21 -44 -44.5t-11 -74.5v-359q0 -110 -75.5 -170t-209.5 -60q-108 0 -179.5 46.5t-71.5 122.5q0 53 36 84.5t93 31.5q31 0 57 -11t41 -30q-35 1 -54.5 -26.5t-19.5 -73.5q0 -57 26 -91t72 -34z
" />
    <glyph glyph-name="K" unicode="K" horiz-adv-x="769" 
d="M323 2v-2h-298v2q33 22 44 46t11 74v457q0 50 -11 73.5t-44 45.5v2h298v-2q-33 -22 -44 -45.5t-11 -73.5v-250l285 268q13 12 19.5 24.5t6.5 24.5q0 16 -10.5 29.5t-29.5 22.5v2h206v-2q-41 -16 -77.5 -40.5t-83.5 -67.5l-127 -120l216 -359q24 -38 49.5 -64.5
t56.5 -44.5v-2h-318v2q15 8 20.5 16t5.5 22q0 13 -6 28.5t-22 44.5l-143 228l-48 -45v-174q0 -50 11 -74t44 -46z" />
    <glyph glyph-name="L" unicode="L" horiz-adv-x="643" 
d="M25 698v2h298v-2q-33 -22 -44 -45.5t-11 -73.5v-552h114q51 0 88 14t67 44q19 20 39 49.5t55 92.5h2l-37 -227h-571v2q33 22 44 46t11 74v457q0 50 -11 73.5t-44 45.5z" />
    <glyph glyph-name="M" unicode="M" horiz-adv-x="903" 
d="M112 609v-451q0 -63 19.5 -99.5t62.5 -56.5v-2h-189v2q39 22 57 57.5t18 91.5v428q0 50 -11 73.5t-44 45.5v2h252l186 -439l181 439h234v-2q-33 -21 -44 -44.5t-11 -74.5v-456q0 -48 12 -73.5t46 -47.5v-2h-304v2q34 22 46 47.5t12 73.5v485l-253 -619h-4z" />
    <glyph glyph-name="N" unicode="N" horiz-adv-x="724" 
d="M722 700v-2q-39 -22 -56.5 -57t-17.5 -92v-552h-45l-491 609v-448q0 -63 19.5 -99.5t62.5 -56.5v-2h-189v2q39 22 57 57.5t18 91.5v428q0 50 -11 73.5t-44 45.5v2h257l334 -414v256q0 63 -20 100t-63 56v2h189z" />
    <glyph glyph-name="O" unicode="O" horiz-adv-x="771" 
d="M386 710q156 0 257.5 -102t101.5 -258t-101.5 -258t-257.5 -102t-258 101.5t-102 258.5t102 258.5t258 101.5zM386 10q80 0 116.5 80.5t36.5 259.5t-36.5 259.5t-116.5 80.5t-117 -80.5t-37 -259.5t37 -259.5t117 -80.5z" />
    <glyph glyph-name="P" unicode="P" horiz-adv-x="678" 
d="M666 495q0 -97 -72 -151t-200 -54h-126v-171q0 -47 15 -70t62 -47v-2h-320v2q33 22 44 46t11 74v457q0 50 -11 73.5t-44 45.5v2h367q129 0 201.5 -54t72.5 -151zM268 673v-356h59q75 0 116 47t41 131t-41 131t-116 47h-59z" />
    <glyph glyph-name="Q" unicode="Q" horiz-adv-x="771" 
d="M654 -171q-58 0 -98 36t-77 136q-24 -6 -47 -8.5t-46 -2.5q-156 0 -258 101.5t-102 258.5t102 258.5t258 101.5t257.5 -102t101.5 -258q0 -101 -45 -182.5t-125 -128.5q41 -58 71.5 -78t66.5 -20q25 0 44.5 11t31.5 31h3q-2 -73 -38.5 -113.5t-99.5 -40.5zM386 690
q-80 0 -117 -80.5t-37 -259.5q0 -104 11.5 -172.5t36.5 -107.5q13 47 44.5 72.5t76.5 25.5q33 0 60.5 -12t51.5 -37q13 41 19.5 98.5t6.5 132.5q0 179 -36.5 259.5t-116.5 80.5zM386 10q24 0 43.5 7t35.5 21q-24 60 -45 81.5t-49 21.5t-50 -24q-21 -23 -30 -65
q16 -19 38 -30q25 -12 57 -12z" />
    <glyph glyph-name="R" unicode="R" horiz-adv-x="759" 
d="M342 673h-74v-322h74q69 0 107 42t38 118q0 77 -38 119.5t-107 42.5zM25 698v2h399q126 0 193.5 -48t67.5 -140q0 -80 -64.5 -129t-165.5 -50q79 -4 124.5 -35t66.5 -95l26 -78q16 -50 37 -75.5t64 -47.5v-2h-247q-16 18 -28 44t-23 64l-34 122q-16 52 -43 73t-72 21h-58
v-202q0 -50 11 -74t44 -46v-2h-298v2q33 22 44 46t11 74v457q0 50 -11 73.5t-44 45.5z" />
    <glyph glyph-name="S" unicode="S" horiz-adv-x="589" 
d="M289 690q-53 0 -86.5 -30t-33.5 -79q0 -46 32 -76t123 -59q80 -25 112 -40.5t55 -33.5q36 -29 54 -69.5t18 -93.5q0 -98 -75.5 -158.5t-192.5 -60.5q-25 0 -51 3.5t-69 14.5q-27 7 -39.5 9t-21.5 2q-17 0 -33.5 -6.5t-36.5 -22.5l-18 232h2q51 -98 122 -155t144 -57
q64 0 100 31.5t36 87.5q0 34 -17.5 60t-54.5 45q-11 6 -43 18t-83 30q-114 37 -157 87t-43 128q0 96 70.5 154.5t186.5 58.5q23 0 46.5 -3.5t62.5 -13.5q26 -7 37.5 -9t20.5 -2q13 0 26 5.5t34 22.5l4 -202h-2q-57 99 -110 140.5t-119 41.5z" />
    <glyph glyph-name="T" unicode="T" horiz-adv-x="764" 
d="M116 700h532q28 0 44 2t26 7l34 -237h-2q-44 70 -60.5 94t-30.5 40q-31 37 -63.5 52.5t-76.5 15.5h-43v-555q0 -47 11 -70.5t46 -46.5v-2h-302v2q35 22 46 45.5t11 71.5v555h-43q-44 0 -76.5 -15.5t-63.5 -52.5q-14 -16 -30.5 -40t-60.5 -94h-2l34 237q10 -5 26 -7t44 -2
z" />
    <glyph glyph-name="U" unicode="U" horiz-adv-x="728" 
d="M654 549v-278q0 -134 -73 -207.5t-206 -73.5q-143 0 -224 74.5t-81 208.5v306q0 51 -11 74.5t-44 44.5v2h299v-2q-33 -22 -44 -45.5t-11 -73.5v-304q0 -109 44.5 -166.5t129.5 -57.5q86 0 137.5 60t51.5 163v268q0 63 -19.5 100t-62.5 56v2h189v-2q-39 -22 -57 -57.5
t-18 -91.5z" />
    <glyph glyph-name="V" unicode="V" horiz-adv-x="732" 
d="M449 221l158 348q7 15 10 28.5t3 25.5q0 24 -14 43t-41 32v2h174v-2q-28 -18 -49.5 -46.5t-43.5 -74.5l-275 -587h-4l-292 598q-24 50 -40.5 71.5t-41.5 38.5v2h312v-2q-23 -13 -32.5 -26t-9.5 -30q0 -13 3.5 -26.5t11.5 -30.5z" />
    <glyph glyph-name="W" unicode="W" horiz-adv-x="985" 
d="M676 -10h-5l-176 457l-180 -457h-5l-243 598q-17 42 -33 66t-41 44v2h298v-2q-21 -13 -30.5 -27t-9.5 -31q0 -12 3 -25.5t9 -29.5l130 -329l87 228l-40 104q-17 43 -32.5 66.5t-40.5 43.5v2h293v-2q-21 -13 -30.5 -27t-9.5 -31q0 -10 2.5 -22t9.5 -33l118 -334l121 322
q4 12 6 22.5t2 19.5q0 26 -14 47t-41 36v2h170v-2q-29 -22 -50 -51.5t-36 -68.5z" />
    <glyph glyph-name="X" unicode="X" horiz-adv-x="745" 
d="M137 62q1 -19 10.5 -34t27.5 -26v-2h-177v2q32 17 59 42t61 69l171 221l-168 255q-25 37 -46.5 60.5t-54.5 48.5v2h306v-2q-13 -12 -18 -22.5t-5 -23.5q0 -11 5 -24t18 -33l102 -155l112 145q11 15 16.5 29t5.5 27q0 17 -9.5 31.5t-28.5 25.5v2h175v-2
q-32 -17 -58.5 -40.5t-63.5 -70.5l-133 -171l202 -305q25 -37 46.5 -60.5t54.5 -48.5v-2h-306v2q13 13 18 23t5 23q0 12 -5.5 25t-18.5 32l-135 204l-146 -189q-11 -15 -16.5 -29.5t-5.5 -28.5z" />
    <glyph glyph-name="Y" unicode="Y" horiz-adv-x="707" 
d="M282 593l148 -258l147 245q8 14 11.5 25.5t3.5 22.5q0 22 -12.5 39.5t-36.5 30.5v2h170v-2q-29 -20 -51 -45.5t-47 -67.5l-175 -290v-176q0 -48 11 -71.5t46 -45.5v-2h-293v2q35 22 46 45.5t11 71.5v176l-178 293q-25 42 -44 65.5t-46 44.5v2h312v-2q-21 -16 -29 -29
t-8 -30q0 -11 3.5 -22.5t10.5 -23.5z" />
    <glyph glyph-name="Z" unicode="Z" horiz-adv-x="694" 
d="M671 231l-31 -231h-619v2l420 671h-163q-44 0 -78 -13.5t-63 -43.5q-17 -17 -35 -42t-56 -86h-2l34 221q10 -5 26.5 -7t43.5 -2h514v-2l-410 -671h165q51 0 87.5 14t67.5 47q18 20 39 50.5t58 92.5h2z" />
    <glyph glyph-name="bracketleft" unicode="[" horiz-adv-x="355" 
d="M337 -123h-258v872h258v-3l-115 -37v-791l115 -38v-3z" />
    <glyph glyph-name="backslash" unicode="\" horiz-adv-x="353" 
d="M20 749h35l298 -872h-35z" />
    <glyph glyph-name="bracketright" unicode="]" horiz-adv-x="355" 
d="M18 -120l115 38v791l-115 37v3h258v-872h-258v3z" />
    <glyph glyph-name="asciicircum" unicode="^" horiz-adv-x="450" 
d="M40 412l183 298h4l183 -298h-53l-132 215l-131 -215h-54z" />
    <glyph glyph-name="underscore" unicode="_" horiz-adv-x="325" 
d="M287 -123h-249v64h249v-64z" />
    <glyph glyph-name="grave" unicode="`" 
d="M136 749h175q2 -64 13.5 -115t32.5 -89h-5q-78 40 -132 91t-84 113z" />
    <glyph glyph-name="a" unicode="a" horiz-adv-x="565" 
d="M562 35q6 0 12 1t11 3v-2q-19 -21 -52 -33.5t-69 -12.5q-57 0 -90.5 23t-40.5 66q0 2 -1 12.5t-1 13.5q-12 -52 -55.5 -82.5t-105.5 -30.5q-66 0 -107 33.5t-41 91.5q0 41 20 70t62 48q23 10 54 18.5t95 20.5l76 14v97q0 47 -19.5 74t-56.5 27q-33 0 -52 -20.5t-19 -55.5
q0 -30 12.5 -45.5t35.5 -15.5q4 0 9 0.5t10 2.5q-15 -29 -42.5 -44t-64.5 -15q-41 0 -68 23.5t-27 60.5q0 57 58 92t153 35q129 0 189 -42.5t60 -132.5v-33.5t-1 -55.5q-1 -41 -1 -63v-42q0 -59 13 -80t44 -21zM328 165l1 106l-42 -10q-47 -9 -69 -37.5t-22 -78.5
q0 -39 15 -61t43 -22q33 0 53.5 29t20.5 74z" />
    <glyph glyph-name="b" unicode="b" horiz-adv-x="635" 
d="M616 254q0 -118 -70 -191t-179 -73q-65 0 -111 26t-68 76q-23 -43 -58 -68t-81 -32q5 33 7 75.5t2 144.5v426q0 49 -11.5 70t-47.5 39v2h238v-378q17 62 62 98t106 36q91 0 151 -70.5t60 -180.5zM328 19q50 0 74.5 55t24.5 169q0 92 -25 141.5t-71 49.5q-40 0 -67 -40
t-27 -100v-147q0 -54 26.5 -91t64.5 -37z" />
    <glyph glyph-name="c" unicode="c" horiz-adv-x="512" 
d="M384 409q0 37 -20 58t-56 21q-49 0 -76 -55.5t-27 -150.5q0 -99 41 -154.5t113 -55.5q46 0 82 23t58 66l6 -3q-20 -78 -81.5 -123t-147.5 -45q-111 0 -184 69t-73 179q0 120 80 193.5t207 73.5q85 0 137 -35t52 -94q0 -41 -26.5 -66t-67.5 -25q-36 0 -60 16.5t-27 41.5
q4 -1 9 -2t9 -1q25 0 38.5 18t13.5 51z" />
    <glyph glyph-name="d" unicode="d" horiz-adv-x="640" 
d="M208 242q0 -87 25 -134t71 -47q40 0 67 38t27 95v114q0 64 -27.5 106t-68.5 42q-47 0 -70.5 -53.5t-23.5 -160.5zM243 505q57 0 97.5 -29.5t57.5 -82.5v245q0 48 -11.5 69.5t-48.5 39.5v2h239v-640q0 -50 9 -68.5t39 -38.5v-2h-227v124q-17 -62 -62 -98t-106 -36
q-91 0 -151 70.5t-60 181.5q0 116 63.5 189.5t160.5 73.5z" />
    <glyph glyph-name="e" unicode="e" horiz-adv-x="536" 
d="M19 247q0 113 75 185.5t187 72.5q111 0 174 -63t63 -172h-318q0 -91 43.5 -144.5t117.5 -53.5q49 0 86 22.5t59 66.5l7 -3q-21 -79 -83.5 -123.5t-149.5 -44.5q-115 0 -188 71t-73 186zM281 488q-37 0 -57.5 -51.5t-22.5 -145.5h145q0 111 -15.5 154t-49.5 43z" />
    <glyph glyph-name="f" unicode="f" horiz-adv-x="345" 
d="M68 109v361h-58v11l58 22v29q0 107 63.5 166t177.5 59q77 0 120.5 -27.5t43.5 -76.5q0 -36 -25.5 -59t-63.5 -23q-22 0 -40 6.5t-28 17.5q23 6 35 25t12 52t-14 51t-40 18q-31 0 -46.5 -25t-15.5 -74v-147h124l-5 -25h-119v-361q0 -42 14 -63.5t63 -43.5v-2h-303v2
q31 19 39 36.5t8 70.5z" />
    <glyph glyph-name="g" unicode="g" horiz-adv-x="584" 
d="M324 341q0 77 -13.5 112.5t-42.5 35.5q-28 0 -41.5 -35.5t-13.5 -112.5t13 -112t42 -35t42.5 35t13.5 112zM569 -33q0 -90 -87.5 -143t-228.5 -53q-116 0 -183 27.5t-67 78.5q0 33 34 54t93 24q-49 11 -77.5 42.5t-28.5 76.5q0 44 31 78.5t82 49.5q-46 20 -71 56.5
t-25 82.5q0 74 61.5 119t165.5 45q50 0 90.5 -11t69.5 -32q27 46 50 63t51 17q39 0 61.5 -20t22.5 -55q0 -37 -25.5 -58t-66.5 -21v2q6 8 9 16.5t3 18.5q0 23 -13.5 36.5t-36.5 13.5q-13 0 -24 -5t-22 -16q29 -21 44.5 -50t15.5 -63q0 -75 -61.5 -119.5t-167.5 -44.5
q-33 0 -62 4.5t-54 13.5q-21 -8 -31.5 -19t-10.5 -25q0 -17 12.5 -26.5t35.5 -9.5h217q91 0 142.5 -39t51.5 -109zM97 -121q0 -42 42.5 -66t113.5 -24q86 0 138.5 26t52.5 70q0 33 -22.5 49.5t-68.5 16.5h-166q-44 0 -67 -18.5t-23 -53.5z" />
    <glyph glyph-name="h" unicode="h" horiz-adv-x="635" 
d="M5 747v2h238v-384q19 67 64.5 103.5t109.5 36.5q75 0 116.5 -46.5t41.5 -126.5v-223q0 -53 8 -70.5t39 -36.5v-2h-272v2q30 19 38 36.5t8 70.5v228q0 39 -17.5 61t-49.5 22q-41 0 -63.5 -34.5t-22.5 -97.5v-179q0 -53 8 -70.5t39 -36.5v-2h-272v2q30 19 38 36.5t8 70.5
v529q0 49 -11.5 70t-47.5 39z" />
    <glyph glyph-name="i" unicode="i" horiz-adv-x="309" 
d="M155 555q-43 0 -71.5 27.5t-28.5 68.5t28.5 68t71.5 27t72.5 -27t29.5 -68t-29.5 -68.5t-72.5 -27.5zM15 495h232v-386q0 -53 8 -70.5t39 -36.5v-2h-273v2q31 19 39 36.5t8 70.5v275q0 52 -9 70.5t-44 38.5v2z" />
    <glyph glyph-name="j" unicode="j" horiz-adv-x="293" 
d="M148 555q-43 0 -71.5 27.5t-28.5 68.5t28.5 68t71.5 27t72.5 -27t29.5 -68t-29.5 -68.5t-72.5 -27.5zM2 -229q-76 0 -121.5 27.5t-45.5 75.5q0 34 27 56t67 22q22 0 41 -5.5t30 -15.5q-24 -6 -37.5 -25.5t-13.5 -49.5q0 -33 14 -51t41 -18q29 0 43 23.5t14 73.5v500
q-1 53 -10 71.5t-43 37.5v2h232v-519q0 -97 -63.5 -151t-174.5 -54z" />
    <glyph glyph-name="k" unicode="k" horiz-adv-x="624" 
d="M243 749v-470h19q25 0 39.5 6.5t31.5 22.5l89 85q17 16 25 31t7 28q0 14 -9 25t-24 16v2h196v-2q-44 -13 -75.5 -30.5t-68.5 -51.5l-57 -55l121 -232q24 -46 50 -76t55 -46v-2h-252q2 14 -2 32.5t-15 38.5l-82 163q-8 15 -15.5 20.5t-19.5 5.5h-13v-151q0 -53 8 -70.5
t39 -36.5v-2h-272v2q30 19 38 36.5t8 70.5v529q0 49 -11.5 70t-47.5 39v2h238z" />
    <glyph glyph-name="l" unicode="l" horiz-adv-x="305" 
d="M5 749h238v-640q0 -53 8 -70.5t39 -36.5v-2h-272v2q30 19 38 36.5t8 70.5v529q0 49 -11.5 70t-47.5 39v2z" />
    <glyph glyph-name="m" unicode="m" horiz-adv-x="944" 
d="M411 505q66 0 106 -37t47 -103q17 68 59.5 104t105.5 36q74 0 114.5 -46t40.5 -127v-223q0 -53 8 -70.5t39 -36.5v-2h-273v2q31 19 39 36.5t8 70.5v228q0 41 -15.5 62t-46.5 21q-37 0 -57.5 -34.5t-20.5 -97.5v-179q0 -52 8 -69.5t39 -37.5v-2h-272v2q30 19 38 36.5
t8 70.5v228q0 42 -15.5 62.5t-45.5 20.5q-37 0 -57.5 -34t-20.5 -98v-179q0 -53 8 -70.5t39 -36.5v-2h-273v2q31 19 39 36.5t8 70.5v275q0 52 -9 70.5t-44 38.5v2h232v-130q18 68 59.5 104t104.5 36z" />
    <glyph glyph-name="n" unicode="n" horiz-adv-x="639" 
d="M15 493v2h232v-130q18 66 63.5 103t109.5 37q75 0 117 -46.5t42 -126.5v-223q0 -53 8 -70.5t39 -36.5v-2h-273v2q31 19 39 36.5t8 70.5v228q0 38 -18 60.5t-50 22.5q-40 0 -62.5 -34.5t-22.5 -97.5v-179q0 -53 8 -70.5t39 -36.5v-2h-273v2q31 19 39 36.5t8 70.5v275
q0 52 -9 70.5t-44 38.5z" />
    <glyph glyph-name="o" unicode="o" horiz-adv-x="588" 
d="M569 248q0 -113 -78.5 -185.5t-196.5 -72.5t-196.5 72.5t-78.5 185.5q0 112 78.5 184.5t196.5 72.5t196.5 -72.5t78.5 -184.5zM209 248q0 -126 20.5 -183.5t64.5 -57.5t64.5 57.5t20.5 183.5q0 125 -20.5 182.5t-64.5 57.5t-64.5 -57.5t-20.5 -182.5z" />
    <glyph glyph-name="p" unicode="p" horiz-adv-x="639" 
d="M431 253q0 88 -24.5 134.5t-71.5 46.5q-39 0 -66 -38t-27 -95v-114q0 -64 27.5 -105.5t68.5 -41.5q47 0 70 53t23 160zM397 -10q-58 0 -98.5 29.5t-56.5 82.5v-212q0 -53 8 -70.5t38 -36.5v-2h-272v2q31 20 39 37.5t8 69.5v494q0 51 -9 70t-44 39v2h232v-124
q16 61 61 97.5t106 36.5q91 0 151 -70.5t60 -180.5q0 -116 -63.5 -190t-159.5 -74z" />
    <glyph glyph-name="q" unicode="q" horiz-adv-x="629" 
d="M577 283v-393q0 -53 8 -70.5t38 -36.5v-2h-272v2q31 19 39 36.5t8 70.5v234q-17 -62 -62 -98t-106 -36q-93 0 -152 69.5t-59 182.5q0 116 71.5 189.5t177.5 73.5q63 0 110.5 -27t69.5 -75q21 40 56 65.5t80 34.5h2q-5 -33 -7 -75.5t-2 -144.5zM304 61q40 0 67 40t27 100
v139q0 59 -26.5 98t-64.5 39q-50 0 -74.5 -55.5t-24.5 -169.5q0 -92 25 -141.5t71 -49.5z" />
    <glyph glyph-name="r" unicode="r" horiz-adv-x="516" 
d="M409 288q-11 0 -21 3t-15 7q15 6 23.5 19t8.5 30q0 27 -16 41.5t-46 14.5q-41 0 -68.5 -39t-27.5 -101v-154q0 -42 14 -63.5t63 -43.5v-2h-303v2q31 19 39 36.5t8 70.5v275q0 52 -9 70.5t-44 38.5v2h232v-161q23 85 62.5 128t95.5 43q47 0 77 -29t30 -75q0 -51 -29 -82
t-74 -31z" />
    <glyph glyph-name="s" unicode="s" horiz-adv-x="473" 
d="M213 488q-33 0 -53.5 -17t-20.5 -45q0 -29 21.5 -46t101.5 -41q103 -33 143.5 -73.5t40.5 -109.5q0 -75 -55.5 -120.5t-147.5 -45.5q-21 0 -42.5 2.5t-57.5 10.5q-23 5 -33.5 6.5t-18.5 1.5q-12 0 -22 -3.5t-29 -18.5l-11 183h2q45 -84 97 -124.5t115 -40.5q39 0 62 19
t23 53q0 28 -19.5 45t-99.5 42q-96 30 -136.5 72.5t-40.5 111.5q0 68 51 111.5t130 43.5q19 0 37.5 -3t50.5 -11q21 -6 31 -8t18 -2q14 0 26.5 5t29.5 20v-162h-2q-33 65 -85.5 104.5t-105.5 39.5z" />
    <glyph glyph-name="t" unicode="t" horiz-adv-x="406" 
d="M297 75q34 0 56.5 28t32.5 81l12 -4q-13 -93 -59 -141.5t-122 -48.5q-75 0 -117.5 44.5t-41.5 124.5l2 311h-54v11q80 17 137.5 66t83.5 122h10v-174h150l-5 -25h-145v-315q0 -39 15.5 -59.5t44.5 -20.5z" />
    <glyph glyph-name="u" unicode="u" horiz-adv-x="629" 
d="M303 76q41 0 63 34t22 98v176q0 52 -9 70.5t-44 38.5v2h232v-389q0 -46 9 -64.5t43 -39.5v-2h-231v133q-17 -68 -62.5 -105.5t-110.5 -37.5q-74 0 -116 47t-42 127v220q0 52 -9 70.5t-43 38.5v2h231v-336q0 -37 18 -60t49 -23z" />
    <glyph glyph-name="v" unicode="v" horiz-adv-x="545" 
d="M252 394l98 -201l92 188q6 12 9 24t3 24q0 23 -12.5 39t-36.5 25v2h148v-2q-24 -19 -38.5 -39.5t-39.5 -68.5l-201 -395h-2l-206 397q-28 53 -40.5 70t-33.5 36v2h273v-2q-15 -9 -21.5 -19t-6.5 -26q0 -11 4 -25.5t11 -28.5z" />
    <glyph glyph-name="w" unicode="w" horiz-adv-x="788" 
d="M544 -10h-2l-136 322l-156 -322h-2l-185 397q-22 47 -35 66.5t-36 39.5v2h258v-2q-12 -10 -17 -20t-5 -25q0 -11 3.5 -23.5t11.5 -32.5l86 -188l65 136l-20 47q-22 46 -35 65.5t-37 40.5v2h261v-2q-16 -10 -23 -20.5t-7 -25.5q0 -8 2.5 -18.5t11.5 -36.5l68 -181l74 176
q4 10 6.5 20t2.5 20q0 23 -13.5 40t-37.5 26v2h149v-2q-29 -24 -43.5 -44.5t-33.5 -62.5z" />
    <glyph glyph-name="x" unicode="x" horiz-adv-x="571" 
d="M116 49q0 -15 8 -27t24 -20v-2h-157v2q32 16 61 42t65 75l87 118l-89 140q-29 45 -51.5 69t-57.5 47v2h276v-2q-8 -6 -11.5 -13t-3.5 -18q0 -13 7.5 -30t26.5 -47l46 -73l47 73q13 20 19 35.5t6 27.5q0 15 -8.5 27t-23.5 18v2h155v-2q-34 -16 -63 -43t-61 -74l-58 -84
l110 -174q30 -46 53 -69.5t57 -46.5v-2h-275v2q7 7 10.5 14t3.5 17q0 13 -7.5 30t-26.5 47l-67 105l-76 -105q-13 -19 -19.5 -34t-6.5 -27z" />
    <glyph glyph-name="y" unicode="y" horiz-adv-x="544" 
d="M172 -156q27 0 47 17t37 56l23 50l-213 420q-23 46 -36 64.5t-38 41.5v2h273v-2q-15 -10 -21.5 -20t-6.5 -25q0 -12 4 -26.5t11 -29.5l106 -221l85 208q5 12 7.5 23.5t2.5 22.5q0 24 -13 41.5t-38 26.5v2h150v-2q-29 -23 -44.5 -45.5t-32.5 -65.5l-204 -488
q-27 -65 -60 -94t-80 -29t-75.5 25.5t-28.5 67.5q0 39 24 62.5t62 23.5q9 0 15 -1t14 -3q-13 -8 -19.5 -19.5t-6.5 -27.5q0 -24 16 -39.5t40 -15.5z" />
    <glyph glyph-name="z" unicode="z" horiz-adv-x="529" 
d="M15 2l285 472h-73q-51 0 -89 -27.5t-103 -124.5h-2l14 183q11 -5 27.5 -7.5t34.5 -2.5h392v-2l-282 -472h65q44 0 74 12t59 40q14 14 31 35.5t59 80.5h2l-29 -189h-465v2z" />
    <glyph glyph-name="braceleft" unicode="{" horiz-adv-x="382" 
d="M126 165q0 70 -29 107t-86 39v4q57 2 86 39t29 107q0 11 -1.5 23.5t-5.5 38.5q-5 29 -6.5 45t-1.5 30q0 71 54.5 111t150.5 40q14 0 26.5 -1t26.5 -4v-2q-55 0 -84 -33.5t-29 -97.5q0 -16 2 -34.5t8 -53.5q5 -29 6.5 -43t1.5 -25q0 -60 -55.5 -98t-133.5 -44
q78 -6 133.5 -44t55.5 -98q0 -11 -1.5 -25t-6.5 -43q-6 -35 -8 -53.5t-2 -34.5q0 -64 29 -97.5t84 -33.5v-2q-14 -3 -26.5 -4t-26.5 -1q-96 0 -150.5 40t-54.5 111q0 14 1.5 30t6.5 45q4 26 5.5 38.5t1.5 23.5z" />
    <glyph glyph-name="bar" unicode="|" horiz-adv-x="204" 
d="M117 -123h-30v872h30v-872z" />
    <glyph glyph-name="braceright" unicode="}" horiz-adv-x="382" 
d="M256 165q0 -11 1.5 -23.5t5.5 -38.5q5 -29 6.5 -45t1.5 -30q0 -71 -54.5 -111t-150.5 -40q-14 0 -26.5 1t-26.5 4v2q55 0 84 33.5t29 97.5q0 16 -2 34.5t-8 53.5q-5 29 -6.5 43t-1.5 25q0 60 55.5 98t133.5 44q-78 6 -133.5 44t-55.5 98q0 11 1.5 25t6.5 43q6 35 8 53.5
t2 34.5q0 64 -29 97.5t-84 33.5v2q14 3 26.5 4t26.5 1q96 0 150.5 -40t54.5 -111q0 -14 -1.5 -30t-6.5 -45q-4 -26 -5.5 -38.5t-1.5 -23.5q0 -70 29 -107t86 -39v-4q-57 -2 -86 -39t-29 -107z" />
    <glyph glyph-name="asciitilde" unicode="~" horiz-adv-x="504" 
d="M143 296q-35 0 -59.5 -14t-37.5 -41h-2q6 78 42.5 124.5t91.5 46.5q21 0 41 -4.5t56 -19.5q33 -14 51 -18.5t35 -4.5q34 0 58.5 14t38.5 42h2q-6 -78 -42.5 -124.5t-90.5 -46.5q-21 0 -41.5 4.5t-56.5 19.5q-33 14 -51 18t-35 4z" />
    <glyph glyph-name="uni00A0" unicode="&#xa0;" horiz-adv-x="200" 
 />
    <glyph glyph-name="exclamdown" unicode="&#xa1;" horiz-adv-x="304" 
d="M154 308l112 -456h-228l112 456h4zM152 358q-42 0 -71 29.5t-29 71.5t29 71.5t71 29.5t71 -29.5t29 -71.5t-29 -71.5t-71 -29.5z" />
    <glyph glyph-name="cent" unicode="&#xa2;" horiz-adv-x="533" 
d="M201 282q0 -65 20 -113t58 -73l31 391q-51 -8 -80 -63t-29 -142zM290 -10l-8 -104h-20l8 104q-107 4 -175.5 72.5t-68.5 175.5q0 121 79 194t207 73l7 91h20l-7 -91q77 -3 123 -37t46 -88q0 -38 -23 -61.5t-58 -23.5q-28 0 -48.5 14.5t-28.5 39.5q4 -2 9.5 -3.5
t10.5 -1.5q21 0 33 17t12 48q0 36 -21 57.5t-57 21.5l-32 -403q17 -7 33 -10t32 -3q47 0 84 23t58 66l7 -3q-20 -76 -79.5 -121t-142.5 -47z" />
    <glyph glyph-name="sterling" unicode="&#xa3;" horiz-adv-x="661" 
d="M643 107q0 -61 -41.5 -97t-107.5 -36q-22 0 -42.5 3.5t-41.5 10.5q-18 7 -36 16.5t-39 23.5q-15 10 -38.5 27.5t-29.5 21.5q-34 -42 -76.5 -64.5t-89.5 -22.5q-43 0 -69.5 23t-26.5 60q0 39 28 63.5t72 24.5q17 0 41 -4t61 -14q1 10 1.5 17t0.5 13q0 32 -6 67t-24 98
h-106v23h100q-11 41 -15.5 70t-4.5 56q0 102 77 162.5t204 60.5q86 0 136.5 -35t50.5 -96q0 -40 -26.5 -65t-66.5 -25q-30 0 -55 11.5t-38 31.5q34 0 54 21t20 58q0 40 -19.5 61t-55.5 21t-57 -30t-21 -78v-197v-13.5v-13.5h129v-23h-131q-4 -65 -19 -120.5t-40 -99.5
q51 -13 84 -18t59 -5q64 0 96 22t32 67q0 11 -4 23.5t-11 23.5q44 -17 68 -49t24 -75zM31 73q0 -27 18 -43t47 -16q39 0 67.5 27t39.5 76q-24 12 -48.5 17.5t-49.5 5.5q-34 0 -54 -18t-20 -49z" />
    <glyph glyph-name="yen" unicode="&#xa5;" horiz-adv-x="673" 
d="M481 2v-2h-289v2q33 22 44 45t11 72v124h-169v22h169v30l-23 43h-146v23h134l-122 227q-18 35 -38 59.5t-52 50.5v2h311v-2q-21 -16 -29 -29t-8 -29q0 -11 3.5 -23t10.5 -25l129 -258l132 251q6 11 9.5 23.5t3.5 25.5q-1 21 -12.5 37.5t-33.5 26.5v2h157v-2
q-30 -23 -50 -48t-41 -64l-121 -225h134v-23h-146l-23 -43v-30h169v-22h-169v-124q0 -48 10.5 -71t44.5 -46z" />
    <glyph glyph-name="section" unicode="&#xa7;" horiz-adv-x="567" 
d="M117 385q0 -27 13.5 -49t47.5 -50l170 -144q33 -27 55 -49t36 -43q5 11 8 23.5t3 26.5q0 28 -13 49.5t-47 49.5l-170 144q-33 26 -55 48.5t-36 43.5q-6 -10 -9 -23t-3 -27zM468 -51q0 -74 -56 -124t-137 -50q-78 0 -128.5 30t-50.5 77q0 33 20 53t53 20q19 0 37.5 -7
t27.5 -17q-17 -5 -26 -20.5t-9 -39.5q0 -37 20.5 -58.5t55.5 -21.5q38 0 60.5 23t22.5 61q0 25 -7 43t-24 37q-7 8 -17 17.5t-49 42.5l-110 91q-67 56 -91 96t-24 85q0 44 24 86.5t62 71.5q-11 20 -16.5 42t-5.5 49q0 74 56 124t137 50q78 0 128 -30t50 -77q0 -33 -20 -53
t-52 -20q-19 0 -37.5 7t-28.5 17q17 5 26 20t9 40q0 37 -20 58.5t-55 21.5q-38 0 -60.5 -23t-22.5 -61q0 -25 7 -43t24 -37q7 -8 17 -17.5t49 -42.5l109 -91q66 -55 90.5 -95t24.5 -86q0 -44 -24 -87t-62 -71q12 -19 17.5 -41.5t5.5 -49.5z" />
    <glyph glyph-name="dieresis" unicode="&#xa8;" 
d="M232 641q0 -36 -26 -62t-62 -26t-61.5 26t-25.5 62q0 37 25.5 63.5t61.5 26.5t62 -26.5t26 -63.5zM443 641q0 -36 -26 -62t-62 -26q-37 0 -63 26t-26 62q0 37 26 63.5t63 26.5q36 0 62 -26.5t26 -63.5z" />
    <glyph glyph-name="copyright" unicode="&#xa9;" horiz-adv-x="810" 
d="M405 710q152 0 256 -103t104 -257t-104 -257t-256 -103t-256 103t-104 257t104 257t256 103zM405 10q144 0 242 97.5t98 242.5t-98 242.5t-242 97.5t-242 -97.5t-98 -242.5t98 -242.5t242 -97.5zM437 550q-47 0 -74.5 -49t-27.5 -128t38 -126.5t98 -47.5q44 0 73 17
t48 54l3 -1q-18 -65 -65.5 -103t-112.5 -38q-97 0 -157.5 61t-60.5 159q0 97 63.5 160t159.5 63q19 0 37 -3t45 -11q15 -5 21.5 -6.5t12.5 -1.5q10 0 19.5 5t20.5 17l3 -150h-4q-29 64 -64.5 96.5t-75.5 32.5z" />
    <glyph glyph-name="ordfeminine" unicode="&#xaa;" horiz-adv-x="430" 
d="M403 390q4 0 8 1l8 2v-4q-14 -14 -37 -23t-47 -9q-40 0 -63 15.5t-29 45.5q0 2 -0.5 9.5t-0.5 8.5q-8 -35 -38 -56t-72 -21q-46 0 -74 23t-28 63q0 41 30.5 65t128.5 42l52 9v65q0 32 -13.5 50t-38.5 18q-22 0 -35 -13.5t-13 -35.5q0 -21 8.5 -31.5t24.5 -10.5
q2 0 5.5 0.5t7.5 1.5q-9 -20 -28.5 -30.5t-44.5 -10.5q-29 0 -48 16.5t-19 42.5q0 40 39.5 63.5t105.5 23.5q89 0 131 -29.5t42 -90.5v-23v-37q-1 -28 -1 -43v-28q0 -41 8.5 -55t30.5 -14zM240 477l1 70l-28 -6q-31 -6 -46 -25.5t-15 -52.5q0 -25 10.5 -39t28.5 -14
q21 0 34.5 18.5t14.5 48.5zM367 272h-304v22h304v-22z" />
    <glyph glyph-name="guillemotleft" unicode="&#xab;" horiz-adv-x="509" 
d="M18 242v4q71 35 141.5 89.5t119.5 112.5h4q-19 -58 -45.5 -111t-55.5 -93q29 -40 55.5 -93t45.5 -111h-4q-49 58 -119.5 112.5t-141.5 89.5zM219 242v4q71 35 141.5 89.5t119.5 112.5h4q-19 -58 -45.5 -111t-55.5 -93q29 -40 55.5 -93t45.5 -111h-4q-49 58 -119.5 112.5
t-141.5 89.5z" />
    <glyph glyph-name="registered" unicode="&#xae;" horiz-adv-x="481" 
d="M241 710q83 0 139 -56t56 -140q0 -83 -56.5 -139t-138.5 -56q-83 0 -139.5 56t-56.5 139q0 84 56.5 140t139.5 56zM241 337q76 0 126 50t50 127t-50 127.5t-126 50.5t-126.5 -50.5t-50.5 -127.5t50.5 -127t126.5 -50zM228 616h-16v-97h16q24 0 36 11.5t12 35.5t-12.5 37
t-35.5 13zM131 623v4h123q41 0 64 -15.5t23 -44.5q0 -25 -21.5 -40t-55.5 -15q25 -1 40.5 -12t21.5 -30l9 -26q5 -16 10 -22.5t17 -13.5v-4h-75q-5 6 -9.5 15t-7.5 20l-11 35q-6 19 -14 27t-21 8h-12v-65q0 -17 3.5 -24t13.5 -12v-4h-98v4q10 5 13.5 12t3.5 24v143
q0 17 -3.5 24t-13.5 12z" />
    <glyph glyph-name="macron" unicode="&#xaf;" 
d="M411 634v-37h-309v37h309z" />
    <glyph glyph-name="degree" unicode="&#xb0;" horiz-adv-x="279" 
d="M139 710q46 0 78 -32.5t32 -78.5t-32 -78t-78 -32t-77.5 32t-31.5 78t32 78.5t77 32.5zM139 515q34 0 58.5 25t24.5 59q0 35 -24.5 59.5t-58.5 24.5t-58 -24.5t-24 -59.5q0 -34 24.5 -59t57.5 -25z" />
    <glyph glyph-name="plusminus" unicode="&#xb1;" horiz-adv-x="479" 
d="M435 390v-30h-181v-137h-30v137h-180v30h180v136h30v-136h181zM435 130h-391v29h391v-29z" />
    <glyph glyph-name="twosuperior" unicode="&#xb2;" horiz-adv-x="282" 
d="M162 640q0 22 -10 35.5t-27 13.5q-19 0 -30.5 -12t-11.5 -31q0 -20 9 -31.5t23 -11.5q7 0 11 1.5t7 5.5h3q-6 -20 -20.5 -30t-35.5 -10q-25 0 -40.5 16t-15.5 41q0 35 28 56t73 21q60 0 93 -22.5t33 -64.5q0 -41 -35.5 -72.5t-121.5 -64.5h78q36 0 50.5 6.5t28.5 26.5h4
l-10 -103h-229v3q95 98 120.5 139t25.5 88z" />
    <glyph glyph-name="threesuperior" unicode="&#xb3;" horiz-adv-x="285" 
d="M94 470q0 -22 10.5 -35.5t27.5 -13.5t26.5 18.5t9.5 49.5q0 37 -12 54t-37 17v9q22 1 32 17t10 50q0 27 -7 40t-21 13t-23 -11t-9 -30q0 -18 5.5 -28t15.5 -10q4 0 5.5 0.5t3.5 1.5l2 -1q-5 -10 -17 -15.5t-28 -5.5q-24 0 -38.5 13.5t-14.5 34.5q0 31 27 48.5t71 17.5
q52 0 84.5 -19.5t32.5 -52.5q0 -28 -21.5 -45t-59.5 -20q44 -3 68 -23t24 -55q0 -39 -35 -61t-94 -22q-50 0 -81 19.5t-31 53.5q0 24 16.5 38.5t42.5 14.5q18 0 31 -5.5t18 -15.5l-3 -2q-1 1 -3.5 2t-4.5 1q-11 0 -17 -11t-6 -31z" />
    <glyph glyph-name="acute" unicode="&#xb4;" 
d="M183 749h174q-30 -62 -84 -113t-131 -91h-6q21 37 32.5 87.5t14.5 116.5z" />
    <glyph glyph-name="paragraph" unicode="&#xb6;" horiz-adv-x="516" 
d="M431 594v-644q0 -80 -45 -132.5t-118 -52.5q-67 0 -111 32t-44 86q0 33 22.5 55t53.5 22q25 0 42.5 -12t23.5 -33h-1q-6 4 -12 6t-14 2q-17 0 -28 -14t-11 -35q0 -37 24 -59t66 -22q56 0 91 44t35 113v727h-39v-562h-27v151q-128 0 -211.5 60.5t-83.5 156.5t83.5 156.5
t211.5 60.5h152v-2q-40 -22 -50 -41.5t-10 -62.5z" />
    <glyph glyph-name="periodcentered" unicode="&#xb7;" horiz-adv-x="276" 
d="M137 383q42 0 71 -29.5t29 -71.5t-29 -71.5t-71 -29.5t-71 29.5t-29 71.5t29 71.5t71 29.5z" />
    <glyph glyph-name="cedilla" unicode="&#xb8;" 
d="M258 -224q-45 0 -80 22.5t-45 56.5l7 7q13 -22 30.5 -33.5t39.5 -11.5q23 0 36 14t13 38q0 28 -18 41.5t-58 15.5l52 80h19l-36 -56q73 3 114 -20t41 -67q0 -39 -32.5 -63t-82.5 -24z" />
    <glyph glyph-name="onesuperior" unicode="&#xb9;" horiz-adv-x="210" 
d="M58 448v214q0 12 -7 18t-40 15v5h141v-252q0 -13 7 -18.5t39 -14.5v-5h-186v5q32 9 39 14.5t7 18.5z" />
    <glyph glyph-name="ordmasculine" unicode="&#xba;" horiz-adv-x="431" 
d="M406 533q0 -77 -54.5 -127t-136.5 -50q-81 0 -135.5 50t-54.5 127t54.5 127t135.5 50q82 0 136.5 -50t54.5 -127zM158 533q0 -86 13.5 -123t43.5 -37q31 0 44.5 36.5t13.5 123.5t-13.5 123.5t-44.5 36.5q-30 0 -43.5 -37t-13.5 -123zM368 272h-304v22h304v-22z" />
    <glyph glyph-name="guillemotright" unicode="&#xbb;" horiz-adv-x="509" 
d="M294 246v-4q-71 -35 -141.5 -89.5t-119.5 -112.5h-4q19 58 45.5 111t55.5 93q-29 40 -55.5 93t-45.5 111h4q49 -58 119.5 -112.5t141.5 -89.5zM496 246v-4q-71 -35 -141.5 -89.5t-119.5 -112.5h-4q19 58 45.5 111t55.5 93q-29 40 -55.5 93t-45.5 111h4
q49 -58 119.5 -112.5t141.5 -89.5z" />
    <glyph glyph-name="onequarter" unicode="&#xbc;" horiz-adv-x="428" 
d="M159 448v214q0 12 -7 18t-40 15v5h142v-252q0 -13 7 -18.5t39 -14.5v-5h-187v5q32 9 39 14.5t7 18.5zM20 342v16h365v-16h-365zM89 96h98v146zM187 51v28h-127v3l140 208h81v-194h17q16 0 22.5 3t18.5 22h4v-66h-4q-12 18 -18.5 21t-22.5 3h-17v-28q0 -18 3.5 -26.5
t18.5 -20.5v-4h-138v4q15 12 18.5 20.5t3.5 26.5z" />
    <glyph glyph-name="onehalf" unicode="&#xbd;" horiz-adv-x="405" 
d="M159 448v214q0 12 -7 18t-40 15v5h142v-252q0 -13 7 -18.5t39 -14.5v-5h-187v5q32 9 39 14.5t7 18.5zM20 342v16h365v-16h-365zM230 230q0 22 -10 35.5t-27 13.5q-19 0 -30.5 -12t-11.5 -31q0 -20 9 -31.5t23 -11.5q7 0 11 1.5t7 5.5h3q-6 -20 -20.5 -30t-35.5 -10
q-25 0 -40.5 16t-15.5 41q0 35 28 56t73 21q60 0 93 -22.5t33 -64.5q0 -41 -35.5 -72.5t-121.5 -64.5h78q36 0 50.5 6.5t28.5 26.5h4l-10 -103h-229v3q95 98 120.5 139t25.5 88z" />
    <glyph glyph-name="threequarters" unicode="&#xbe;" horiz-adv-x="428" 
d="M162 470q0 -22 10.5 -35.5t27.5 -13.5t26.5 18.5t9.5 49.5q0 37 -12 54t-37 17v9q22 1 32 17t10 50q0 27 -7 40t-21 13t-23 -11t-9 -30q0 -18 5.5 -28t15.5 -10q4 0 5.5 0.5t3.5 1.5l2 -1q-5 -10 -17 -15.5t-28 -5.5q-24 0 -38.5 13.5t-14.5 34.5q0 31 27 48.5t71 17.5
q52 0 84.5 -19.5t32.5 -52.5q0 -28 -21.5 -45t-59.5 -20q44 -3 68 -23t24 -55q0 -39 -35 -61t-94 -22q-50 0 -81 19.5t-31 53.5q0 24 16.5 38.5t42.5 14.5q18 0 31 -5.5t18 -15.5l-3 -2q-1 1 -3.5 2t-4.5 1q-11 0 -17 -11t-6 -31zM20 342v16h365v-16h-365zM89 96h98v146z
M187 51v28h-127v3l140 208h81v-194h17q16 0 22.5 3t18.5 22h4v-66h-4q-12 18 -18.5 21t-22.5 3h-17v-28q0 -18 3.5 -26.5t18.5 -20.5v-4h-138v4q15 12 18.5 20.5t3.5 26.5z" />
    <glyph glyph-name="questiondown" unicode="&#xbf;" horiz-adv-x="555" 
d="M172 -23q0 -52 33.5 -84.5t89.5 -32.5q49 0 81 29.5t32 73.5q0 36 -19 58t-50 22q-8 0 -15.5 -1.5t-12.5 -4.5l-2 1q11 34 39 53t67 19q49 0 81.5 -31.5t32.5 -80.5q0 -69 -65.5 -112.5t-168.5 -43.5q-122 0 -195.5 54.5t-73.5 144.5q0 87 72 152t183 82v40h20v-183
q-66 -22 -97.5 -60t-31.5 -95zM391 459q0 -42 -28.5 -71.5t-70.5 -29.5t-71 29.5t-29 71.5t29 71.5t71 29.5t70.5 -29.5t28.5 -71.5z" />
    <glyph glyph-name="Agrave" unicode="&#xc0;" horiz-adv-x="745" 
d="M400 235l-113 241l-108 -241h221zM119 77q0 -24 14 -43.5t41 -31.5v-2h-174v2q28 18 49.5 46.5t43.5 74.5l275 587h4l292 -598q24 -50 40 -71.5t41 -38.5v-2h-315v2q23 13 32.5 26t9.5 30q0 13 -3.5 26.5t-11.5 30.5l-43 91h-248l-34 -75q-7 -15 -10 -28.5t-3 -25.5z
M222 931h177q2 -66 13 -113.5t31 -82.5h-6q-78 38 -131.5 87t-83.5 109z" />
    <glyph glyph-name="Aacute" unicode="&#xc1;" horiz-adv-x="745" 
d="M400 235l-113 241l-108 -241h221zM119 77q0 -24 14 -43.5t41 -31.5v-2h-174v2q28 18 49.5 46.5t43.5 74.5l275 587h4l292 -598q24 -50 40 -71.5t41 -38.5v-2h-315v2q23 13 32.5 26t9.5 30q0 13 -3.5 26.5t-11.5 30.5l-43 91h-248l-34 -75q-7 -15 -10 -28.5t-3 -25.5z
M329 931h177q-31 -61 -85 -109.5t-131 -86.5h-5q20 34 30.5 81t13.5 115z" />
    <glyph glyph-name="Acircumflex" unicode="&#xc2;" horiz-adv-x="745" 
d="M400 235l-113 241l-108 -241h221zM119 77q0 -24 14 -43.5t41 -31.5v-2h-174v2q28 18 49.5 46.5t43.5 74.5l275 587h4l292 -598q24 -50 40 -71.5t41 -38.5v-2h-315v2q23 13 32.5 26t9.5 30q0 13 -3.5 26.5t-11.5 30.5l-43 91h-248l-34 -75q-7 -15 -10 -28.5t-3 -25.5z
M549 728h-11q-46 13 -90.5 34t-82.5 47q-37 -26 -82.5 -47t-91.5 -34h-11q57 55 109 120.5t74 112.5h4q21 -47 72.5 -112.5t109.5 -120.5z" />
    <glyph glyph-name="Atilde" unicode="&#xc3;" horiz-adv-x="745" 
d="M400 235l-113 241l-108 -241h221zM119 77q0 -24 14 -43.5t41 -31.5v-2h-174v2q28 18 49.5 46.5t43.5 74.5l275 587h4l292 -598q24 -50 40 -71.5t41 -38.5v-2h-315v2q23 13 32.5 26t9.5 30q0 13 -3.5 26.5t-11.5 30.5l-43 91h-248l-34 -75q-7 -15 -10 -28.5t-3 -25.5z
M561 929h5q-6 -79 -38.5 -125.5t-81.5 -46.5q-19 0 -37.5 5t-51.5 22q-30 15 -45.5 19.5t-30.5 4.5q-30 0 -51.5 -14.5t-34.5 -44.5h-5q6 78 38.5 124.5t81.5 46.5q19 0 37.5 -5t51.5 -22q30 -15 45.5 -19.5t30.5 -4.5q30 0 51.5 15t34.5 45z" />
    <glyph glyph-name="Adieresis" unicode="&#xc4;" horiz-adv-x="745" 
d="M400 235l-113 241l-108 -241h221zM119 77q0 -24 14 -43.5t41 -31.5v-2h-174v2q28 18 49.5 46.5t43.5 74.5l275 587h4l292 -598q24 -50 40 -71.5t41 -38.5v-2h-315v2q23 13 32.5 26t9.5 30q0 13 -3.5 26.5t-11.5 30.5l-43 91h-248l-34 -75q-7 -15 -10 -28.5t-3 -25.5z
M347 833q0 -36 -26 -62t-62 -26t-61.5 26t-25.5 62q0 37 25.5 63.5t61.5 26.5t62 -26.5t26 -63.5zM558 833q0 -36 -26 -62t-62 -26q-37 0 -63 26t-26 62q0 37 26 63.5t63 26.5q36 0 62 -26.5t26 -63.5z" />
    <glyph glyph-name="Aring" unicode="&#xc5;" horiz-adv-x="745" 
d="M400 235l-113 241l-108 -241h221zM119 77q0 -24 14 -43.5t41 -31.5v-2h-174v2q28 18 49.5 46.5t43.5 74.5l275 587h4l292 -598q24 -50 40 -71.5t41 -38.5v-2h-315v2q23 13 32.5 26t9.5 30q0 13 -3.5 26.5t-11.5 30.5l-43 91h-248l-34 -75q-7 -15 -10 -28.5t-3 -25.5z
M257 843q0 43 32 75t76 32t76 -31.5t32 -75.5q0 -45 -31.5 -76.5t-76.5 -31.5q-44 0 -76 32t-32 76zM288 843q0 -32 22.5 -54.5t54.5 -22.5t55 22.5t23 54.5q0 31 -23 53.5t-55 22.5q-31 0 -54 -22.5t-23 -53.5z" />
    <glyph glyph-name="AE" unicode="&#xc6;" horiz-adv-x="1079" 
d="M498 288v382l-251 -382h251zM123 69q0 -24 12 -41t36 -26v-2h-171v2q23 16 42 37.5t51 71.5l328 499q5 8 7.5 15.5t2.5 15.5q0 14 -11 26.5t-41 30.5v2h553q28 0 44 2t26 7l34 -194h-2q-53 92 -104 125t-130 33h-114v-297h91q64 0 93.5 24t51.5 90h2v-252h-2
q-21 64 -50 86.5t-95 22.5h-91v-320h130q76 0 129.5 35.5t113.5 141.5h2l-32 -204h-586v2q33 22 44 46t11 74v137h-270l-84 -128q-10 -16 -15.5 -31.5t-5.5 -30.5z" />
    <glyph glyph-name="Ccedilla" unicode="&#xc7;" horiz-adv-x="685" 
d="M576 680q16 0 30 6t35 24l7 -238h-2q-42 106 -99 161t-125 55q-88 0 -141 -85t-53 -219t66 -216t170 -82q71 0 119 30t78 93l6 -2q-26 -103 -104 -160t-193 -57q-151 0 -247.5 97.5t-96.5 252.5q0 160 108.5 265t268.5 105q29 0 57.5 -4t70.5 -16q21 -7 29.5 -8.5
t15.5 -1.5zM367 -224q-45 0 -80 22.5t-45 56.5l7 7q13 -22 30.5 -33.5t39.5 -11.5q23 0 36 14t13 38q0 28 -18 41.5t-58 15.5l52 80h19l-36 -56q73 3 114 -20t41 -67q0 -39 -32.5 -63t-82.5 -24z" />
    <glyph glyph-name="Egrave" unicode="&#xc8;" horiz-adv-x="662" 
d="M199 931h177q2 -66 13 -113.5t31 -82.5h-6q-78 38 -131.5 87t-83.5 109zM25 698v2h490q28 0 44.5 2t25.5 7l34 -194h-2q-54 93 -105 125.5t-130 32.5h-114v-297h91q64 0 93.5 23.5t52.5 90.5h2v-252h-2q-22 64 -51 86.5t-95 22.5h-91v-320h130q76 0 129 35t115 142h2
l-32 -204h-587v2q33 22 44 46t11 74v457q0 50 -11 73.5t-44 45.5z" />
    <glyph glyph-name="Eacute" unicode="&#xc9;" horiz-adv-x="662" 
d="M306 931h177q-31 -61 -85 -109.5t-131 -86.5h-5q20 34 30.5 81t13.5 115zM25 698v2h490q28 0 44.5 2t25.5 7l34 -194h-2q-54 93 -105 125.5t-130 32.5h-114v-297h91q64 0 93.5 23.5t52.5 90.5h2v-252h-2q-22 64 -51 86.5t-95 22.5h-91v-320h130q76 0 129 35t115 142h2
l-32 -204h-587v2q33 22 44 46t11 74v457q0 50 -11 73.5t-44 45.5z" />
    <glyph glyph-name="Ecircumflex" unicode="&#xca;" horiz-adv-x="662" 
d="M25 698v2h490q28 0 44.5 2t25.5 7l34 -194h-2q-54 93 -105 125.5t-130 32.5h-114v-297h91q64 0 93.5 23.5t52.5 90.5h2v-252h-2q-22 64 -51 86.5t-95 22.5h-91v-320h130q76 0 129 35t115 142h2l-32 -204h-587v2q33 22 44 46t11 74v457q0 50 -11 73.5t-44 45.5zM524 728
h-11q-46 13 -90.5 34t-82.5 47q-37 -26 -82.5 -47t-91.5 -34h-11q57 55 109 120.5t74 112.5h4q21 -47 72.5 -112.5t109.5 -120.5z" />
    <glyph glyph-name="Edieresis" unicode="&#xcb;" horiz-adv-x="662" 
d="M321 833q0 -36 -26 -62t-62 -26t-61.5 26t-25.5 62q0 37 25.5 63.5t61.5 26.5t62 -26.5t26 -63.5zM532 833q0 -36 -26 -62t-62 -26q-37 0 -63 26t-26 62q0 37 26 63.5t63 26.5q36 0 62 -26.5t26 -63.5zM25 698v2h490q28 0 44.5 2t25.5 7l34 -194h-2q-54 93 -105 125.5
t-130 32.5h-114v-297h91q64 0 93.5 23.5t52.5 90.5h2v-252h-2q-22 64 -51 86.5t-95 22.5h-91v-320h130q76 0 129 35t115 142h2l-32 -204h-587v2q33 22 44 46t11 74v457q0 50 -11 73.5t-44 45.5z" />
    <glyph glyph-name="Igrave" unicode="&#xcc;" horiz-adv-x="348" 
d="M268 579v-457q0 -50 11 -74t44 -46v-2h-298v2q33 22 44 46t11 74v457q0 50 -11 73.5t-44 45.5v2h298v-2q-33 -22 -44 -45.5t-11 -73.5zM31 931h177q2 -66 13 -113.5t31 -82.5h-6q-78 38 -131.5 87t-83.5 109z" />
    <glyph glyph-name="Iacute" unicode="&#xcd;" horiz-adv-x="348" 
d="M268 579v-457q0 -50 11 -74t44 -46v-2h-298v2q33 22 44 46t11 74v457q0 50 -11 73.5t-44 45.5v2h298v-2q-33 -22 -44 -45.5t-11 -73.5zM138 931h177q-31 -61 -85 -109.5t-131 -86.5h-5q20 34 30.5 81t13.5 115z" />
    <glyph glyph-name="Icircumflex" unicode="&#xce;" horiz-adv-x="348" 
d="M268 579v-457q0 -50 11 -74t44 -46v-2h-298v2q33 22 44 46t11 74v457q0 50 -11 73.5t-44 45.5v2h298v-2q-33 -22 -44 -45.5t-11 -73.5zM358 728h-11q-46 13 -90.5 34t-82.5 47q-37 -26 -82.5 -47t-91.5 -34h-11q57 55 109 120.5t74 112.5h4q21 -47 72.5 -112.5
t109.5 -120.5z" />
    <glyph glyph-name="Idieresis" unicode="&#xcf;" horiz-adv-x="348" 
d="M268 579v-457q0 -50 11 -74t44 -46v-2h-298v2q33 22 44 46t11 74v457q0 50 -11 73.5t-44 45.5v2h298v-2q-33 -22 -44 -45.5t-11 -73.5zM156 833q0 -36 -26 -62t-62 -26t-61.5 26t-25.5 62q0 37 25.5 63.5t61.5 26.5t62 -26.5t26 -63.5zM367 833q0 -36 -26 -62t-62 -26
q-37 0 -63 26t-26 62q0 37 26 63.5t63 26.5q36 0 62 -26.5t26 -63.5z" />
    <glyph glyph-name="Eth" unicode="&#xd0;" horiz-adv-x="776" 
d="M749 353q0 -167 -111 -260t-305 -93h-308v2q33 22 44 46t11 74v225h-55v30h55v202q0 50 -11 73.5t-44 45.5v2h299q200 0 312.5 -91t112.5 -256zM268 347v-322h52q110 0 169 84.5t59 243.5q0 154 -61 238t-172 84h-47v-298h112v-30h-112z" />
    <glyph glyph-name="Ntilde" unicode="&#xd1;" horiz-adv-x="724" 
d="M558 929h5q-6 -79 -38.5 -125.5t-81.5 -46.5q-19 0 -37.5 5t-51.5 22q-30 15 -45.5 19.5t-30.5 4.5q-30 0 -51.5 -14.5t-34.5 -44.5h-5q6 78 38.5 124.5t81.5 46.5q19 0 37.5 -5t51.5 -22q30 -15 45.5 -19.5t30.5 -4.5q30 0 51.5 15t34.5 45zM722 700v-2
q-39 -22 -56.5 -57t-17.5 -92v-552h-45l-491 609v-448q0 -63 19.5 -99.5t62.5 -56.5v-2h-189v2q39 22 57 57.5t18 91.5v428q0 50 -11 73.5t-44 45.5v2h257l334 -414v256q0 63 -20 100t-63 56v2h189z" />
    <glyph glyph-name="Ograve" unicode="&#xd2;" horiz-adv-x="771" 
d="M243 931h177q2 -66 13 -113.5t31 -82.5h-6q-78 38 -131.5 87t-83.5 109zM386 710q156 0 257.5 -102t101.5 -258t-101.5 -258t-257.5 -102t-258 101.5t-102 258.5t102 258.5t258 101.5zM386 10q80 0 116.5 80.5t36.5 259.5t-36.5 259.5t-116.5 80.5t-117 -80.5t-37 -259.5
t37 -259.5t117 -80.5z" />
    <glyph glyph-name="Oacute" unicode="&#xd3;" horiz-adv-x="771" 
d="M350 931h177q-31 -61 -85 -109.5t-131 -86.5h-5q20 34 30.5 81t13.5 115zM386 710q156 0 257.5 -102t101.5 -258t-101.5 -258t-257.5 -102t-258 101.5t-102 258.5t102 258.5t258 101.5zM386 10q80 0 116.5 80.5t36.5 259.5t-36.5 259.5t-116.5 80.5t-117 -80.5
t-37 -259.5t37 -259.5t117 -80.5z" />
    <glyph glyph-name="Ocircumflex" unicode="&#xd4;" horiz-adv-x="771" 
d="M386 710q156 0 257.5 -102t101.5 -258t-101.5 -258t-257.5 -102t-258 101.5t-102 258.5t102 258.5t258 101.5zM386 10q80 0 116.5 80.5t36.5 259.5t-36.5 259.5t-116.5 80.5t-117 -80.5t-37 -259.5t37 -259.5t117 -80.5zM570 728h-11q-46 13 -90.5 34t-82.5 47
q-37 -26 -82.5 -47t-91.5 -34h-11q57 55 109 120.5t74 112.5h4q21 -47 72.5 -112.5t109.5 -120.5z" />
    <glyph glyph-name="Otilde" unicode="&#xd5;" horiz-adv-x="771" 
d="M575 929h5q-6 -79 -38.5 -125.5t-81.5 -46.5q-19 0 -37.5 5t-51.5 22q-30 15 -45.5 19.5t-30.5 4.5q-30 0 -51.5 -14.5t-34.5 -44.5h-5q6 78 38.5 124.5t81.5 46.5q19 0 37.5 -5t51.5 -22q30 -15 45.5 -19.5t30.5 -4.5q30 0 51.5 15t34.5 45zM386 710q156 0 257.5 -102
t101.5 -258t-101.5 -258t-257.5 -102t-258 101.5t-102 258.5t102 258.5t258 101.5zM386 10q80 0 116.5 80.5t36.5 259.5t-36.5 259.5t-116.5 80.5t-117 -80.5t-37 -259.5t37 -259.5t117 -80.5z" />
    <glyph glyph-name="Odieresis" unicode="&#xd6;" horiz-adv-x="771" 
d="M368 833q0 -36 -26 -62t-62 -26t-61.5 26t-25.5 62q0 37 25.5 63.5t61.5 26.5t62 -26.5t26 -63.5zM579 833q0 -36 -26 -62t-62 -26q-37 0 -63 26t-26 62q0 37 26 63.5t63 26.5q36 0 62 -26.5t26 -63.5zM386 710q156 0 257.5 -102t101.5 -258t-101.5 -258t-257.5 -102
t-258 101.5t-102 258.5t102 258.5t258 101.5zM386 10q80 0 116.5 80.5t36.5 259.5t-36.5 259.5t-116.5 80.5t-117 -80.5t-37 -259.5t37 -259.5t117 -80.5z" />
    <glyph glyph-name="multiply" unicode="&#xd7;" horiz-adv-x="398" 
d="M46 187l133 134l-133 134l21 21l132 -134l132 134l21 -21l-133 -134l133 -134l-21 -20l-132 134l-132 -134z" />
    <glyph glyph-name="Oslash" unicode="&#xd8;" horiz-adv-x="771" 
d="M386 690q-80 0 -117 -80.5t-37 -259.5q0 -41 1.5 -75.5t5.5 -63.5l289 309q-15 87 -49.5 128.5t-92.5 41.5zM386 10q80 0 116.5 80.5t36.5 259.5q0 41 -1.5 75t-5.5 62l-288 -308q14 -86 49 -127.5t93 -41.5zM745 350q0 -156 -101.5 -258t-257.5 -102q-69 0 -130.5 21.5
t-109.5 63.5l-81 -87l-20 16l82 88q-49 50 -75 116t-26 142q0 157 102 258.5t258 101.5q69 0 130.5 -21.5t109.5 -63.5l75 80l20 -17l-76 -81q49 -49 74.5 -115t25.5 -142z" />
    <glyph glyph-name="Ugrave" unicode="&#xd9;" horiz-adv-x="728" 
d="M257 931h177q2 -66 13 -113.5t31 -82.5h-6q-78 38 -131.5 87t-83.5 109zM654 549v-278q0 -134 -73 -207.5t-206 -73.5q-143 0 -224 74.5t-81 208.5v306q0 51 -11 74.5t-44 44.5v2h299v-2q-33 -22 -44 -45.5t-11 -73.5v-304q0 -109 44.5 -166.5t129.5 -57.5q86 0 137.5 60
t51.5 163v268q0 63 -19.5 100t-62.5 56v2h189v-2q-39 -22 -57 -57.5t-18 -91.5z" />
    <glyph glyph-name="Uacute" unicode="&#xda;" horiz-adv-x="728" 
d="M364 931h177q-31 -61 -85 -109.5t-131 -86.5h-5q20 34 30.5 81t13.5 115zM654 549v-278q0 -134 -73 -207.5t-206 -73.5q-143 0 -224 74.5t-81 208.5v306q0 51 -11 74.5t-44 44.5v2h299v-2q-33 -22 -44 -45.5t-11 -73.5v-304q0 -109 44.5 -166.5t129.5 -57.5
q86 0 137.5 60t51.5 163v268q0 63 -19.5 100t-62.5 56v2h189v-2q-39 -22 -57 -57.5t-18 -91.5z" />
    <glyph glyph-name="Ucircumflex" unicode="&#xdb;" horiz-adv-x="728" 
d="M654 549v-278q0 -134 -73 -207.5t-206 -73.5q-143 0 -224 74.5t-81 208.5v306q0 51 -11 74.5t-44 44.5v2h299v-2q-33 -22 -44 -45.5t-11 -73.5v-304q0 -109 44.5 -166.5t129.5 -57.5q86 0 137.5 60t51.5 163v268q0 63 -19.5 100t-62.5 56v2h189v-2q-39 -22 -57 -57.5
t-18 -91.5zM584 728h-11q-46 13 -90.5 34t-82.5 47q-37 -26 -82.5 -47t-91.5 -34h-11q57 55 109 120.5t74 112.5h4q21 -47 72.5 -112.5t109.5 -120.5z" />
    <glyph glyph-name="Udieresis" unicode="&#xdc;" horiz-adv-x="728" 
d="M381 833q0 -36 -26 -62t-62 -26t-61.5 26t-25.5 62q0 37 25.5 63.5t61.5 26.5t62 -26.5t26 -63.5zM592 833q0 -36 -26 -62t-62 -26q-37 0 -63 26t-26 62q0 37 26 63.5t63 26.5q36 0 62 -26.5t26 -63.5zM654 549v-278q0 -134 -73 -207.5t-206 -73.5q-143 0 -224 74.5
t-81 208.5v306q0 51 -11 74.5t-44 44.5v2h299v-2q-33 -22 -44 -45.5t-11 -73.5v-304q0 -109 44.5 -166.5t129.5 -57.5q86 0 137.5 60t51.5 163v268q0 63 -19.5 100t-62.5 56v2h189v-2q-39 -22 -57 -57.5t-18 -91.5z" />
    <glyph glyph-name="Yacute" unicode="&#xdd;" horiz-adv-x="707" 
d="M282 593l148 -258l147 245q8 14 11.5 25.5t3.5 22.5q0 22 -12.5 39.5t-36.5 30.5v2h170v-2q-29 -20 -51 -45.5t-47 -67.5l-175 -290v-176q0 -48 11 -71.5t46 -45.5v-2h-293v2q35 22 46 45.5t11 71.5v176l-178 293q-25 42 -44 65.5t-46 44.5v2h312v-2q-21 -16 -29 -29
t-8 -30q0 -11 3.5 -22.5t10.5 -23.5zM342 931h177q-31 -61 -85 -109.5t-131 -86.5h-5q20 34 30.5 81t13.5 115z" />
    <glyph glyph-name="Thorn" unicode="&#xde;" horiz-adv-x="678" 
d="M268 579v-17h124q129 0 201.5 -54t72.5 -151t-72 -151t-200 -54h-126v-33q0 -47 15 -70t62 -47v-2h-320v2q33 22 44 46t11 74v457q0 50 -11 73.5t-44 45.5v2h298v-2q-33 -22 -44 -45.5t-11 -73.5zM268 535v-356h59q75 0 116 47t41 131t-41 131t-116 47h-59z" />
    <glyph glyph-name="germandbls" unicode="&#xdf;" horiz-adv-x="712" 
d="M366 741q-57 0 -88 -44.5t-31 -125.5v-571h-226v2q31 19 39 36.5t8 70.5v361h-58v11l58 22v17q0 115 77 176t221 61q99 0 156 -34.5t57 -93.5q0 -41 -29 -71.5t-99 -58.5q-34 -16 -46.5 -28.5t-12.5 -30.5q0 -20 19 -35t130 -65q82 -37 117.5 -79.5t35.5 -104.5
q0 -75 -54.5 -120.5t-144.5 -45.5q-21 0 -39 2.5t-44 10.5q-17 5 -25.5 6.5t-16.5 1.5q-12 0 -22 -3.5t-29 -18.5l-11 180h2q41 -82 87 -122t98 -40q36 0 58.5 19.5t22.5 51.5t-22.5 54t-82.5 46q-86 33 -122 70.5t-36 96.5q0 40 20 74t71 76q47 40 63.5 69.5t16.5 65.5
q0 51 -31.5 81t-86.5 30z" />
    <glyph glyph-name="agrave" unicode="&#xe0;" horiz-adv-x="565" 
d="M562 35q6 0 12 1t11 3v-2q-19 -21 -52 -33.5t-69 -12.5q-57 0 -90.5 23t-40.5 66q0 2 -1 12.5t-1 13.5q-12 -52 -55.5 -82.5t-105.5 -30.5q-66 0 -107 33.5t-41 91.5q0 41 20 70t62 48q23 10 54 18.5t95 20.5l76 14v97q0 47 -19.5 74t-56.5 27q-33 0 -52 -20.5t-19 -55.5
q0 -30 12.5 -45.5t35.5 -15.5q4 0 9 0.5t10 2.5q-15 -29 -42.5 -44t-64.5 -15q-41 0 -68 23.5t-27 60.5q0 57 58 92t153 35q129 0 189 -42.5t60 -132.5v-33.5t-1 -55.5q-1 -41 -1 -63v-42q0 -59 13 -80t44 -21zM328 165l1 106l-42 -10q-47 -9 -69 -37.5t-22 -78.5
q0 -39 15 -61t43 -22q33 0 53.5 29t20.5 74zM123 749h175q2 -64 13.5 -115t32.5 -89h-5q-78 40 -132 91t-84 113z" />
    <glyph glyph-name="aacute" unicode="&#xe1;" horiz-adv-x="565" 
d="M562 35q6 0 12 1t11 3v-2q-19 -21 -52 -33.5t-69 -12.5q-57 0 -90.5 23t-40.5 66q0 2 -1 12.5t-1 13.5q-12 -52 -55.5 -82.5t-105.5 -30.5q-66 0 -107 33.5t-41 91.5q0 41 20 70t62 48q23 10 54 18.5t95 20.5l76 14v97q0 47 -19.5 74t-56.5 27q-33 0 -52 -20.5t-19 -55.5
q0 -30 12.5 -45.5t35.5 -15.5q4 0 9 0.5t10 2.5q-15 -29 -42.5 -44t-64.5 -15q-41 0 -68 23.5t-27 60.5q0 57 58 92t153 35q129 0 189 -42.5t60 -132.5v-33.5t-1 -55.5q-1 -41 -1 -63v-42q0 -59 13 -80t44 -21zM328 165l1 106l-42 -10q-47 -9 -69 -37.5t-22 -78.5
q0 -39 15 -61t43 -22q33 0 53.5 29t20.5 74zM246 749h174q-30 -62 -84 -113t-131 -91h-6q21 37 32.5 87.5t14.5 116.5z" />
    <glyph glyph-name="acircumflex" unicode="&#xe2;" horiz-adv-x="565" 
d="M562 35q6 0 12 1t11 3v-2q-19 -21 -52 -33.5t-69 -12.5q-57 0 -90.5 23t-40.5 66q0 2 -1 12.5t-1 13.5q-12 -52 -55.5 -82.5t-105.5 -30.5q-66 0 -107 33.5t-41 91.5q0 41 20 70t62 48q23 10 54 18.5t95 20.5l76 14v97q0 47 -19.5 74t-56.5 27q-33 0 -52 -20.5t-19 -55.5
q0 -30 12.5 -45.5t35.5 -15.5q4 0 9 0.5t10 2.5q-15 -29 -42.5 -44t-64.5 -15q-41 0 -68 23.5t-27 60.5q0 57 58 92t153 35q129 0 189 -42.5t60 -132.5v-33.5t-1 -55.5q-1 -41 -1 -63v-42q0 -59 13 -80t44 -21zM328 165l1 106l-42 -10q-47 -9 -69 -37.5t-22 -78.5
q0 -39 15 -61t43 -22q33 0 53.5 29t20.5 74zM464 534h-10q-46 14 -91.5 36.5t-82.5 49.5q-37 -27 -82.5 -49.5t-91.5 -36.5h-10q57 57 108.5 124.5t73.5 114.5h4q22 -47 73.5 -114.5t108.5 -124.5z" />
    <glyph glyph-name="atilde" unicode="&#xe3;" horiz-adv-x="565" 
d="M562 35q6 0 12 1t11 3v-2q-19 -21 -52 -33.5t-69 -12.5q-57 0 -90.5 23t-40.5 66q0 2 -1 12.5t-1 13.5q-12 -52 -55.5 -82.5t-105.5 -30.5q-66 0 -107 33.5t-41 91.5q0 41 20 70t62 48q23 10 54 18.5t95 20.5l76 14v97q0 47 -19.5 74t-56.5 27q-33 0 -52 -20.5t-19 -55.5
q0 -30 12.5 -45.5t35.5 -15.5q4 0 9 0.5t10 2.5q-15 -29 -42.5 -44t-64.5 -15q-41 0 -68 23.5t-27 60.5q0 57 58 92t153 35q129 0 189 -42.5t60 -132.5v-33.5t-1 -55.5q-1 -41 -1 -63v-42q0 -59 13 -80t44 -21zM328 165l1 106l-42 -10q-47 -9 -69 -37.5t-22 -78.5
q0 -39 15 -61t43 -22q33 0 53.5 29t20.5 74zM468 739h5q-6 -79 -38.5 -125.5t-81.5 -46.5q-19 0 -37.5 5t-51.5 22q-30 15 -45.5 19.5t-30.5 4.5q-30 0 -51.5 -14.5t-34.5 -44.5h-5q6 78 38.5 124.5t81.5 46.5q19 0 37.5 -5t51.5 -22q30 -15 45.5 -19.5t30.5 -4.5
q30 0 51.5 15t34.5 45z" />
    <glyph glyph-name="adieresis" unicode="&#xe4;" horiz-adv-x="565" 
d="M562 35q6 0 12 1t11 3v-2q-19 -21 -52 -33.5t-69 -12.5q-57 0 -90.5 23t-40.5 66q0 2 -1 12.5t-1 13.5q-12 -52 -55.5 -82.5t-105.5 -30.5q-66 0 -107 33.5t-41 91.5q0 41 20 70t62 48q23 10 54 18.5t95 20.5l76 14v97q0 47 -19.5 74t-56.5 27q-33 0 -52 -20.5t-19 -55.5
q0 -30 12.5 -45.5t35.5 -15.5q4 0 9 0.5t10 2.5q-15 -29 -42.5 -44t-64.5 -15q-41 0 -68 23.5t-27 60.5q0 57 58 92t153 35q129 0 189 -42.5t60 -132.5v-33.5t-1 -55.5q-1 -41 -1 -63v-42q0 -59 13 -80t44 -21zM328 165l1 106l-42 -10q-47 -9 -69 -37.5t-22 -78.5
q0 -39 15 -61t43 -22q33 0 53.5 29t20.5 74zM262 641q0 -36 -26 -62t-62 -26t-61.5 26t-25.5 62q0 37 25.5 63.5t61.5 26.5t62 -26.5t26 -63.5zM473 641q0 -36 -26 -62t-62 -26q-37 0 -63 26t-26 62q0 37 26 63.5t63 26.5q36 0 62 -26.5t26 -63.5z" />
    <glyph glyph-name="aring" unicode="&#xe5;" horiz-adv-x="565" 
d="M562 35q6 0 12 1t11 3v-2q-19 -21 -52 -33.5t-69 -12.5q-57 0 -90.5 23t-40.5 66q0 2 -1 12.5t-1 13.5q-12 -52 -55.5 -82.5t-105.5 -30.5q-66 0 -107 33.5t-41 91.5q0 41 20 70t62 48q23 10 54 18.5t95 20.5l76 14v97q0 47 -19.5 74t-56.5 27q-33 0 -52 -20.5t-19 -55.5
q0 -30 12.5 -45.5t35.5 -15.5q4 0 9 0.5t10 2.5q-15 -29 -42.5 -44t-64.5 -15q-41 0 -68 23.5t-27 60.5q0 57 58 92t153 35q129 0 189 -42.5t60 -132.5v-33.5t-1 -55.5q-1 -41 -1 -63v-42q0 -59 13 -80t44 -21zM328 165l1 106l-42 -10q-47 -9 -69 -37.5t-22 -78.5
q0 -39 15 -61t43 -22q33 0 53.5 29t20.5 74zM172 653q0 43 32 75t76 32t76 -31.5t32 -75.5q0 -45 -31.5 -76.5t-76.5 -31.5q-44 0 -76 32t-32 76zM203 653q0 -32 22.5 -54.5t54.5 -22.5t55 22.5t23 54.5q0 31 -23 53.5t-55 22.5q-31 0 -54 -22.5t-23 -53.5z" />
    <glyph glyph-name="ae" unicode="&#xe6;" horiz-adv-x="838" 
d="M808 161l7 -3q-21 -79 -83 -123.5t-149 -44.5q-77 0 -138 34t-92 95q-23 -58 -71.5 -92t-111.5 -34q-66 0 -107 33.5t-41 91.5q0 41 20 70t62 47q22 10 52 18t97 20l76 14v99q0 47 -19.5 74t-56.5 27q-33 0 -52 -20.5t-19 -55.5q0 -30 12.5 -45.5t35.5 -15.5q4 0 9 0.5
t10 2.5q-15 -29 -42.5 -44t-64.5 -15q-41 0 -68 23.5t-27 60.5q0 57 58 92t153 35q57 0 96 -16.5t62 -49.5q35 32 78.5 49t89.5 17q111 0 173.5 -63t62.5 -172h-318q0 -91 44 -144.5t118 -53.5q49 0 85.5 22.5t58.5 66.5zM583 488q-37 0 -57.5 -52t-22.5 -145h146
q0 110 -15.5 153.5t-50.5 43.5zM329 169v100l-42 -9q-47 -10 -69 -38t-22 -77q0 -39 15 -61t43 -22q35 0 55 29t20 78z" />
    <glyph glyph-name="ccedilla" unicode="&#xe7;" horiz-adv-x="512" 
d="M384 409q0 37 -20 58t-56 21q-49 0 -76 -55.5t-27 -150.5q0 -99 41 -154.5t113 -55.5q46 0 82 23t58 66l6 -3q-20 -78 -81.5 -123t-147.5 -45q-111 0 -184 69t-73 179q0 120 80 193.5t207 73.5q85 0 137 -35t52 -94q0 -41 -26.5 -66t-67.5 -25q-36 0 -60 16.5t-27 41.5
q4 -1 9 -2t9 -1q25 0 38.5 18t13.5 51zM276 -224q-45 0 -80 22.5t-45 56.5l7 7q13 -22 30.5 -33.5t39.5 -11.5q23 0 36 14t13 38q0 28 -18 41.5t-58 15.5l52 80h19l-36 -56q73 3 114 -20t41 -67q0 -39 -32.5 -63t-82.5 -24z" />
    <glyph glyph-name="egrave" unicode="&#xe8;" horiz-adv-x="536" 
d="M19 247q0 113 75 185.5t187 72.5q111 0 174 -63t63 -172h-318q0 -91 43.5 -144.5t117.5 -53.5q49 0 86 22.5t59 66.5l7 -3q-21 -79 -83.5 -123.5t-149.5 -44.5q-115 0 -188 71t-73 186zM281 488q-37 0 -57.5 -51.5t-22.5 -145.5h145q0 111 -15.5 154t-49.5 43zM129 749
h175q2 -64 13.5 -115t32.5 -89h-5q-78 40 -132 91t-84 113z" />
    <glyph glyph-name="eacute" unicode="&#xe9;" horiz-adv-x="536" 
d="M252 749h174q-30 -62 -84 -113t-131 -91h-6q21 37 32.5 87.5t14.5 116.5zM19 247q0 113 75 185.5t187 72.5q111 0 174 -63t63 -172h-318q0 -91 43.5 -144.5t117.5 -53.5q49 0 86 22.5t59 66.5l7 -3q-21 -79 -83.5 -123.5t-149.5 -44.5q-115 0 -188 71t-73 186zM281 488
q-37 0 -57.5 -51.5t-22.5 -145.5h145q0 111 -15.5 154t-49.5 43z" />
    <glyph glyph-name="ecircumflex" unicode="&#xea;" horiz-adv-x="536" 
d="M470 534h-10q-46 14 -91.5 36.5t-82.5 49.5q-37 -27 -82.5 -49.5t-91.5 -36.5h-10q57 57 108.5 124.5t73.5 114.5h4q22 -47 73.5 -114.5t108.5 -124.5zM19 247q0 113 75 185.5t187 72.5q111 0 174 -63t63 -172h-318q0 -91 43.5 -144.5t117.5 -53.5q49 0 86 22.5t59 66.5
l7 -3q-21 -79 -83.5 -123.5t-149.5 -44.5q-115 0 -188 71t-73 186zM281 488q-37 0 -57.5 -51.5t-22.5 -145.5h145q0 111 -15.5 154t-49.5 43z" />
    <glyph glyph-name="edieresis" unicode="&#xeb;" horiz-adv-x="536" 
d="M268 641q0 -36 -26 -62t-62 -26t-61.5 26t-25.5 62q0 37 25.5 63.5t61.5 26.5t62 -26.5t26 -63.5zM479 641q0 -36 -26 -62t-62 -26q-37 0 -63 26t-26 62q0 37 26 63.5t63 26.5q36 0 62 -26.5t26 -63.5zM19 247q0 113 75 185.5t187 72.5q111 0 174 -63t63 -172h-318
q0 -91 43.5 -144.5t117.5 -53.5q49 0 86 22.5t59 66.5l7 -3q-21 -79 -83.5 -123.5t-149.5 -44.5q-115 0 -188 71t-73 186zM281 488q-37 0 -57.5 -51.5t-22.5 -145.5h145q0 111 -15.5 154t-49.5 43z" />
    <glyph glyph-name="igrave" unicode="&#xec;" horiz-adv-x="309" 
d="M15 495h232v-386q0 -53 8 -70.5t39 -36.5v-2h-273v2q31 19 39 36.5t8 70.5v275q0 52 -9 70.5t-44 38.5v2zM-3 749h175q2 -64 13.5 -115t32.5 -89h-5q-78 40 -132 91t-84 113z" />
    <glyph glyph-name="iacute" unicode="&#xed;" horiz-adv-x="309" 
d="M120 749h174q-30 -62 -84 -113t-131 -91h-6q21 37 32.5 87.5t14.5 116.5zM15 495h232v-386q0 -53 8 -70.5t39 -36.5v-2h-273v2q31 19 39 36.5t8 70.5v275q0 52 -9 70.5t-44 38.5v2z" />
    <glyph glyph-name="icircumflex" unicode="&#xee;" horiz-adv-x="309" 
d="M338 534h-10q-46 14 -91.5 36.5t-82.5 49.5q-37 -27 -82.5 -49.5t-91.5 -36.5h-10q57 57 108.5 124.5t73.5 114.5h4q22 -47 73.5 -114.5t108.5 -124.5zM15 495h232v-386q0 -53 8 -70.5t39 -36.5v-2h-273v2q31 19 39 36.5t8 70.5v275q0 52 -9 70.5t-44 38.5v2z" />
    <glyph glyph-name="idieresis" unicode="&#xef;" horiz-adv-x="309" 
d="M136 641q0 -36 -26 -62t-62 -26t-61.5 26t-25.5 62q0 37 25.5 63.5t61.5 26.5t62 -26.5t26 -63.5zM347 641q0 -36 -26 -62t-62 -26q-37 0 -63 26t-26 62q0 37 26 63.5t63 26.5q36 0 62 -26.5t26 -63.5zM15 495h232v-386q0 -53 8 -70.5t39 -36.5v-2h-273v2q31 19 39 36.5
t8 70.5v275q0 52 -9 70.5t-44 38.5v2z" />
    <glyph glyph-name="eth" unicode="&#xf0;" horiz-adv-x="587" 
d="M568 284q0 -133 -76.5 -213.5t-197.5 -80.5q-118 0 -196.5 72.5t-78.5 185.5q0 112 78.5 184.5t195.5 72.5q22 0 44.5 -7.5t33.5 -19.5q-5 38 -21.5 76t-43.5 72l-150 -57l-10 26l141 53q-34 37 -75.5 62.5t-88.5 37.5l1 11q67 -9 127 -30t110 -53l113 42l9 -26l-94 -35
q87 -66 133 -161.5t46 -211.5zM209 248q0 -127 20.5 -184t64.5 -57t64 57t20 184q0 126 -20 183t-64 57t-64.5 -57t-20.5 -183z" />
    <glyph glyph-name="ntilde" unicode="&#xf1;" horiz-adv-x="639" 
d="M15 493v2h232v-130q18 66 63.5 103t109.5 37q75 0 117 -46.5t42 -126.5v-223q0 -53 8 -70.5t39 -36.5v-2h-273v2q31 19 39 36.5t8 70.5v228q0 38 -18 60.5t-50 22.5q-40 0 -62.5 -34.5t-22.5 -97.5v-179q0 -53 8 -70.5t39 -36.5v-2h-273v2q31 19 39 36.5t8 70.5v275
q0 52 -9 70.5t-44 38.5zM515 739h5q-6 -79 -38.5 -125.5t-81.5 -46.5q-19 0 -37.5 5t-51.5 22q-30 15 -45.5 19.5t-30.5 4.5q-30 0 -51.5 -14.5t-34.5 -44.5h-5q6 78 38.5 124.5t81.5 46.5q19 0 37.5 -5t51.5 -22q30 -15 45.5 -19.5t30.5 -4.5q30 0 51.5 15t34.5 45z" />
    <glyph glyph-name="ograve" unicode="&#xf2;" horiz-adv-x="588" 
d="M569 248q0 -113 -78.5 -185.5t-196.5 -72.5t-196.5 72.5t-78.5 185.5q0 112 78.5 184.5t196.5 72.5t196.5 -72.5t78.5 -184.5zM209 248q0 -126 20.5 -183.5t64.5 -57.5t64.5 57.5t20.5 183.5q0 125 -20.5 182.5t-64.5 57.5t-64.5 -57.5t-20.5 -182.5zM137 749h175
q2 -64 13.5 -115t32.5 -89h-5q-78 40 -132 91t-84 113z" />
    <glyph glyph-name="oacute" unicode="&#xf3;" horiz-adv-x="588" 
d="M260 749h174q-30 -62 -84 -113t-131 -91h-6q21 37 32.5 87.5t14.5 116.5zM569 248q0 -113 -78.5 -185.5t-196.5 -72.5t-196.5 72.5t-78.5 185.5q0 112 78.5 184.5t196.5 72.5t196.5 -72.5t78.5 -184.5zM209 248q0 -126 20.5 -183.5t64.5 -57.5t64.5 57.5t20.5 183.5
q0 125 -20.5 182.5t-64.5 57.5t-64.5 -57.5t-20.5 -182.5z" />
    <glyph glyph-name="ocircumflex" unicode="&#xf4;" horiz-adv-x="588" 
d="M478 534h-10q-46 14 -91.5 36.5t-82.5 49.5q-37 -27 -82.5 -49.5t-91.5 -36.5h-10q57 57 108.5 124.5t73.5 114.5h4q22 -47 73.5 -114.5t108.5 -124.5zM569 248q0 -113 -78.5 -185.5t-196.5 -72.5t-196.5 72.5t-78.5 185.5q0 112 78.5 184.5t196.5 72.5t196.5 -72.5
t78.5 -184.5zM209 248q0 -126 20.5 -183.5t64.5 -57.5t64.5 57.5t20.5 183.5q0 125 -20.5 182.5t-64.5 57.5t-64.5 -57.5t-20.5 -182.5z" />
    <glyph glyph-name="otilde" unicode="&#xf5;" horiz-adv-x="588" 
d="M569 248q0 -113 -78.5 -185.5t-196.5 -72.5t-196.5 72.5t-78.5 185.5q0 112 78.5 184.5t196.5 72.5t196.5 -72.5t78.5 -184.5zM209 248q0 -126 20.5 -183.5t64.5 -57.5t64.5 57.5t20.5 183.5q0 125 -20.5 182.5t-64.5 57.5t-64.5 -57.5t-20.5 -182.5zM483 739h5
q-6 -79 -38.5 -125.5t-81.5 -46.5q-19 0 -37.5 5t-51.5 22q-30 15 -45.5 19.5t-30.5 4.5q-30 0 -51.5 -14.5t-34.5 -44.5h-5q6 78 38.5 124.5t81.5 46.5q19 0 37.5 -5t51.5 -22q30 -15 45.5 -19.5t30.5 -4.5q30 0 51.5 15t34.5 45z" />
    <glyph glyph-name="odieresis" unicode="&#xf6;" horiz-adv-x="588" 
d="M276 641q0 -36 -26 -62t-62 -26t-61.5 26t-25.5 62q0 37 25.5 63.5t61.5 26.5t62 -26.5t26 -63.5zM487 641q0 -36 -26 -62t-62 -26q-37 0 -63 26t-26 62q0 37 26 63.5t63 26.5q36 0 62 -26.5t26 -63.5zM569 248q0 -113 -78.5 -185.5t-196.5 -72.5t-196.5 72.5
t-78.5 185.5q0 112 78.5 184.5t196.5 72.5t196.5 -72.5t78.5 -184.5zM209 248q0 -126 20.5 -183.5t64.5 -57.5t64.5 57.5t20.5 183.5q0 125 -20.5 182.5t-64.5 57.5t-64.5 -57.5t-20.5 -182.5z" />
    <glyph glyph-name="divide" unicode="&#xf7;" horiz-adv-x="479" 
d="M239 454q-13 0 -22.5 9.5t-9.5 23.5t9.5 23t22.5 9q14 0 23.5 -9.5t9.5 -22.5t-9.5 -23t-23.5 -10zM435 307h-391v30h391v-30zM239 125q-13 0 -22.5 9.5t-9.5 22.5q0 14 9 23.5t23 9.5t23.5 -9.5t9.5 -23.5q0 -13 -10 -22.5t-23 -9.5z" />
    <glyph glyph-name="oslash" unicode="&#xf8;" horiz-adv-x="588" 
d="M294 488q-44 0 -64.5 -57.5t-20.5 -182.5q0 -14 0.5 -29.5t1.5 -41.5l164 172q-7 71 -27 105t-54 34zM294 7q44 0 64.5 57.5t20.5 183.5q0 14 -0.5 28.5t-1.5 37.5l-163 -172q7 -68 26.5 -101.5t53.5 -33.5zM569 248q0 -113 -78.5 -185.5t-196.5 -72.5q-49 0 -93.5 13.5
t-80.5 40.5l-53 -56l-19 18l52 55q-39 34 -60 82.5t-21 104.5q0 112 78.5 184.5t196.5 72.5q50 0 94.5 -14.5t81.5 -41.5l53 56l19 -18l-52 -54q38 -35 58.5 -82.5t20.5 -102.5z" />
    <glyph glyph-name="ugrave" unicode="&#xf9;" horiz-adv-x="629" 
d="M303 76q41 0 63 34t22 98v176q0 52 -9 70.5t-44 38.5v2h232v-389q0 -46 9 -64.5t43 -39.5v-2h-231v133q-17 -68 -62.5 -105.5t-110.5 -37.5q-74 0 -116 47t-42 127v220q0 52 -9 70.5t-43 38.5v2h231v-336q0 -37 18 -60t49 -23zM157 749h175q2 -64 13.5 -115t32.5 -89h-5
q-78 40 -132 91t-84 113z" />
    <glyph glyph-name="uacute" unicode="&#xfa;" horiz-adv-x="629" 
d="M280 749h174q-30 -62 -84 -113t-131 -91h-6q21 37 32.5 87.5t14.5 116.5zM303 76q41 0 63 34t22 98v176q0 52 -9 70.5t-44 38.5v2h232v-389q0 -46 9 -64.5t43 -39.5v-2h-231v133q-17 -68 -62.5 -105.5t-110.5 -37.5q-74 0 -116 47t-42 127v220q0 52 -9 70.5t-43 38.5v2
h231v-336q0 -37 18 -60t49 -23z" />
    <glyph glyph-name="ucircumflex" unicode="&#xfb;" horiz-adv-x="629" 
d="M498 534h-10q-46 14 -91.5 36.5t-82.5 49.5q-37 -27 -82.5 -49.5t-91.5 -36.5h-10q57 57 108.5 124.5t73.5 114.5h4q22 -47 73.5 -114.5t108.5 -124.5zM303 76q41 0 63 34t22 98v176q0 52 -9 70.5t-44 38.5v2h232v-389q0 -46 9 -64.5t43 -39.5v-2h-231v133
q-17 -68 -62.5 -105.5t-110.5 -37.5q-74 0 -116 47t-42 127v220q0 52 -9 70.5t-43 38.5v2h231v-336q0 -37 18 -60t49 -23z" />
    <glyph glyph-name="udieresis" unicode="&#xfc;" horiz-adv-x="629" 
d="M296 641q0 -36 -26 -62t-62 -26t-61.5 26t-25.5 62q0 37 25.5 63.5t61.5 26.5t62 -26.5t26 -63.5zM507 641q0 -36 -26 -62t-62 -26q-37 0 -63 26t-26 62q0 37 26 63.5t63 26.5q36 0 62 -26.5t26 -63.5zM303 76q41 0 63 34t22 98v176q0 52 -9 70.5t-44 38.5v2h232v-389
q0 -46 9 -64.5t43 -39.5v-2h-231v133q-17 -68 -62.5 -105.5t-110.5 -37.5q-74 0 -116 47t-42 127v220q0 52 -9 70.5t-43 38.5v2h231v-336q0 -37 18 -60t49 -23z" />
    <glyph glyph-name="yacute" unicode="&#xfd;" horiz-adv-x="544" 
d="M172 -156q27 0 47 17t37 56l23 50l-213 420q-23 46 -36 64.5t-38 41.5v2h273v-2q-15 -10 -21.5 -20t-6.5 -25q0 -12 4 -26.5t11 -29.5l106 -221l85 208q5 12 7.5 23.5t2.5 22.5q0 24 -13 41.5t-38 26.5v2h150v-2q-29 -23 -44.5 -45.5t-32.5 -65.5l-204 -488
q-27 -65 -60 -94t-80 -29t-75.5 25.5t-28.5 67.5q0 39 24 62.5t62 23.5q9 0 15 -1t14 -3q-13 -8 -19.5 -19.5t-6.5 -27.5q0 -24 16 -39.5t40 -15.5zM261 749h174q-30 -62 -84 -113t-131 -91h-6q21 37 32.5 87.5t14.5 116.5z" />
    <glyph glyph-name="thorn" unicode="&#xfe;" horiz-adv-x="637" 
d="M428 253q0 88 -24.5 134.5t-70.5 46.5q-40 0 -67 -38t-27 -95v-114q0 -64 27.5 -105.5t68.5 -41.5q47 0 70 53t23 160zM1 747v2h238v-378q17 62 61.5 98t105.5 36q92 0 152 -70.5t60 -180.5q0 -116 -63.5 -190t-160.5 -74q-57 0 -97.5 29.5t-57.5 82.5v-212
q0 -53 8 -70.5t39 -36.5v-2h-273v2q31 19 39 36.5t8 70.5v748q0 48 -11 69t-48 40z" />
    <glyph glyph-name="ydieresis" unicode="&#xff;" horiz-adv-x="544" 
d="M172 -156q27 0 47 17t37 56l23 50l-213 420q-23 46 -36 64.5t-38 41.5v2h273v-2q-15 -10 -21.5 -20t-6.5 -25q0 -12 4 -26.5t11 -29.5l106 -221l85 208q5 12 7.5 23.5t2.5 22.5q0 24 -13 41.5t-38 26.5v2h150v-2q-29 -23 -44.5 -45.5t-32.5 -65.5l-204 -488
q-27 -65 -60 -94t-80 -29t-75.5 25.5t-28.5 67.5q0 39 24 62.5t62 23.5q9 0 15 -1t14 -3q-13 -8 -19.5 -19.5t-6.5 -27.5q0 -24 16 -39.5t40 -15.5zM277 641q0 -36 -26 -62t-62 -26t-61.5 26t-25.5 62q0 37 25.5 63.5t61.5 26.5t62 -26.5t26 -63.5zM488 641q0 -36 -26 -62
t-62 -26q-37 0 -63 26t-26 62q0 37 26 63.5t63 26.5q36 0 62 -26.5t26 -63.5z" />
    <glyph glyph-name="Amacron" unicode="&#x100;" horiz-adv-x="745" 
d="M400 235l-113 241l-108 -241h221zM119 77q0 -24 14 -43.5t41 -31.5v-2h-174v2q28 18 49.5 46.5t43.5 74.5l275 587h4l292 -598q24 -50 40 -71.5t41 -38.5v-2h-315v2q23 13 32.5 26t9.5 30q0 13 -3.5 26.5t-11.5 30.5l-43 91h-248l-34 -75q-7 -15 -10 -28.5t-3 -25.5z
M519 821v-38h-309v38h309z" />
    <glyph glyph-name="amacron" unicode="&#x101;" horiz-adv-x="565" 
d="M562 35q6 0 12 1t11 3v-2q-19 -21 -52 -33.5t-69 -12.5q-57 0 -90.5 23t-40.5 66q0 2 -1 12.5t-1 13.5q-12 -52 -55.5 -82.5t-105.5 -30.5q-66 0 -107 33.5t-41 91.5q0 41 20 70t62 48q23 10 54 18.5t95 20.5l76 14v97q0 47 -19.5 74t-56.5 27q-33 0 -52 -20.5t-19 -55.5
q0 -30 12.5 -45.5t35.5 -15.5q4 0 9 0.5t10 2.5q-15 -29 -42.5 -44t-64.5 -15q-41 0 -68 23.5t-27 60.5q0 57 58 92t153 35q129 0 189 -42.5t60 -132.5v-33.5t-1 -55.5q-1 -41 -1 -63v-42q0 -59 13 -80t44 -21zM328 165l1 106l-42 -10q-47 -9 -69 -37.5t-22 -78.5
q0 -39 15 -61t43 -22q33 0 53.5 29t20.5 74zM434 634v-37h-309v37h309z" />
    <glyph glyph-name="Abreve" unicode="&#x102;" horiz-adv-x="745" 
d="M400 235l-113 241l-108 -241h221zM119 77q0 -24 14 -43.5t41 -31.5v-2h-174v2q28 18 49.5 46.5t43.5 74.5l275 587h4l292 -598q24 -50 40 -71.5t41 -38.5v-2h-315v2q23 13 32.5 26t9.5 30q0 13 -3.5 26.5t-11.5 30.5l-43 91h-248l-34 -75q-7 -15 -10 -28.5t-3 -25.5z
M520 935h6q-1 -90 -45 -144t-116 -54t-116 54t-44 144h5q7 -39 51.5 -62t103.5 -23t103.5 23t51.5 62z" />
    <glyph glyph-name="abreve" unicode="&#x103;" horiz-adv-x="565" 
d="M562 35q6 0 12 1t11 3v-2q-19 -21 -52 -33.5t-69 -12.5q-57 0 -90.5 23t-40.5 66q0 2 -1 12.5t-1 13.5q-12 -52 -55.5 -82.5t-105.5 -30.5q-66 0 -107 33.5t-41 91.5q0 41 20 70t62 48q23 10 54 18.5t95 20.5l76 14v97q0 47 -19.5 74t-56.5 27q-33 0 -52 -20.5t-19 -55.5
q0 -30 12.5 -45.5t35.5 -15.5q4 0 9 0.5t10 2.5q-15 -29 -42.5 -44t-64.5 -15q-41 0 -68 23.5t-27 60.5q0 57 58 92t153 35q129 0 189 -42.5t60 -132.5v-33.5t-1 -55.5q-1 -41 -1 -63v-42q0 -59 13 -80t44 -21zM328 165l1 106l-42 -10q-47 -9 -69 -37.5t-22 -78.5
q0 -39 15 -61t43 -22q33 0 53.5 29t20.5 74zM435 759h5q0 -92 -44 -147.5t-116 -55.5t-116 55.5t-44 147.5h5q7 -41 51 -65.5t104 -24.5t104 24.5t51 65.5z" />
    <glyph glyph-name="Aogonek" unicode="&#x104;" horiz-adv-x="745" 
d="M532 -127l3 -2q-21 -57 -58 -84.5t-91 -27.5q-46 0 -77 26t-31 66q0 27 14.5 50.5t44.5 46.5q13 10 31 21t71 39q16 9 24.5 21.5t8.5 28.5q0 13 -3.5 26.5t-11.5 30.5l-43 91h-248l-34 -75q-7 -15 -10 -28.5t-3 -25.5q0 -24 14 -43.5t41 -31.5v-2h-174v2q28 18 49.5 46.5
t43.5 74.5l275 587h4l292 -598q24 -50 40 -71.5t41 -38.5v-2h-296q-34 -27 -51 -54.5t-17 -56.5q0 -30 16.5 -47.5t44.5 -17.5q29 0 49.5 11.5t40.5 37.5zM400 235l-113 241l-108 -241h221z" />
    <glyph glyph-name="aogonek" unicode="&#x105;" horiz-adv-x="565" 
d="M436 -241q-46 0 -77 26t-31 66q0 39 34.5 71.5t123.5 69.5q-4 -1 -8.5 -1h-13.5q-57 0 -90.5 23t-40.5 66q0 2 -1 12.5t-1 13.5q-12 -52 -55.5 -82.5t-105.5 -30.5q-66 0 -107 33.5t-41 91.5q0 41 20 70t62 48q23 10 54 18.5t95 20.5l76 14v97q0 47 -19.5 74t-56.5 27
q-33 0 -52 -20.5t-19 -55.5q0 -30 12.5 -45.5t35.5 -15.5q4 0 9 0.5t10 2.5q-15 -29 -42.5 -44t-64.5 -15q-41 0 -68 23.5t-27 60.5q0 57 58 92t153 35q129 0 189 -42.5t60 -132.5v-33.5t-1 -55.5q-1 -41 -1 -63v-42q0 -59 13 -80t44 -21q6 0 12 1t11 3v-2
q-14 -12 -48 -30.5t-48 -27.5q-30 -20 -44 -42t-14 -48q0 -30 16.5 -47.5t44.5 -17.5q29 0 49.5 11t40.5 38l3 -2q-22 -57 -58.5 -84.5t-90.5 -27.5zM328 165l1 106l-42 -10q-47 -9 -69 -37.5t-22 -78.5q0 -39 15 -61t43 -22q33 0 53.5 29t20.5 74z" />
    <glyph glyph-name="Cacute" unicode="&#x106;" horiz-adv-x="685" 
d="M576 680q16 0 30 6t35 24l7 -238h-2q-42 106 -99 161t-125 55q-88 0 -141 -85t-53 -219t66 -216t170 -82q71 0 119 30t78 93l6 -2q-26 -103 -104 -160t-193 -57q-151 0 -247.5 97.5t-96.5 252.5q0 160 108.5 265t268.5 105q29 0 57.5 -4t70.5 -16q21 -7 29.5 -8.5
t15.5 -1.5zM359 931h177q-31 -61 -85 -109.5t-131 -86.5h-5q20 34 30.5 81t13.5 115z" />
    <glyph glyph-name="cacute" unicode="&#x107;" horiz-adv-x="512" 
d="M269 749h174q-30 -62 -84 -113t-131 -91h-6q21 37 32.5 87.5t14.5 116.5zM384 409q0 37 -20 58t-56 21q-49 0 -76 -55.5t-27 -150.5q0 -99 41 -154.5t113 -55.5q46 0 82 23t58 66l6 -3q-20 -78 -81.5 -123t-147.5 -45q-111 0 -184 69t-73 179q0 120 80 193.5t207 73.5
q85 0 137 -35t52 -94q0 -41 -26.5 -66t-67.5 -25q-36 0 -60 16.5t-27 41.5q4 -1 9 -2t9 -1q25 0 38.5 18t13.5 51z" />
    <glyph glyph-name="Ccircumflex" unicode="&#x108;" horiz-adv-x="685" 
d="M576 680q16 0 30 6t35 24l7 -238h-2q-42 106 -99 161t-125 55q-88 0 -141 -85t-53 -219t66 -216t170 -82q71 0 119 30t78 93l6 -2q-26 -103 -104 -160t-193 -57q-151 0 -247.5 97.5t-96.5 252.5q0 160 108.5 265t268.5 105q29 0 57.5 -4t70.5 -16q21 -7 29.5 -8.5
t15.5 -1.5zM579 728h-11q-46 13 -90.5 34t-82.5 47q-37 -26 -82.5 -47t-91.5 -34h-11q57 55 109 120.5t74 112.5h4q21 -47 72.5 -112.5t109.5 -120.5z" />
    <glyph glyph-name="ccircumflex" unicode="&#x109;" horiz-adv-x="512" 
d="M487 534h-10q-46 14 -91.5 36.5t-82.5 49.5q-37 -27 -82.5 -49.5t-91.5 -36.5h-10q57 57 108.5 124.5t73.5 114.5h4q22 -47 73.5 -114.5t108.5 -124.5zM384 409q0 37 -20 58t-56 21q-49 0 -76 -55.5t-27 -150.5q0 -99 41 -154.5t113 -55.5q46 0 82 23t58 66l6 -3
q-20 -78 -81.5 -123t-147.5 -45q-111 0 -184 69t-73 179q0 120 80 193.5t207 73.5q85 0 137 -35t52 -94q0 -41 -26.5 -66t-67.5 -25q-36 0 -60 16.5t-27 41.5q4 -1 9 -2t9 -1q25 0 38.5 18t13.5 51z" />
    <glyph glyph-name="Cdotaccent" unicode="&#x10a;" horiz-adv-x="685" 
d="M394 746q-42 0 -71 28t-29 68q0 41 28.5 68.5t71.5 27.5t72.5 -27.5t29.5 -68.5q0 -40 -29.5 -68t-72.5 -28zM576 680q16 0 30 6t35 24l7 -238h-2q-42 106 -99 161t-125 55q-88 0 -141 -85t-53 -219t66 -216t170 -82q71 0 119 30t78 93l6 -2q-26 -103 -104 -160t-193 -57
q-151 0 -247.5 97.5t-96.5 252.5q0 160 108.5 265t268.5 105q29 0 57.5 -4t70.5 -16q21 -7 29.5 -8.5t15.5 -1.5z" />
    <glyph glyph-name="cdotaccent" unicode="&#x10b;" horiz-adv-x="512" 
d="M384 409q0 37 -20 58t-56 21q-49 0 -76 -55.5t-27 -150.5q0 -99 41 -154.5t113 -55.5q46 0 82 23t58 66l6 -3q-20 -78 -81.5 -123t-147.5 -45q-111 0 -184 69t-73 179q0 120 80 193.5t207 73.5q85 0 137 -35t52 -94q0 -41 -26.5 -66t-67.5 -25q-36 0 -60 16.5t-27 41.5
q4 -1 9 -2t9 -1q25 0 38.5 18t13.5 51zM302 554q-42 0 -71 28t-29 68q0 41 28.5 68.5t71.5 27.5t72.5 -27.5t29.5 -68.5q0 -40 -29.5 -68t-72.5 -28z" />
    <glyph glyph-name="Ccaron" unicode="&#x10c;" horiz-adv-x="685" 
d="M576 680q16 0 30 6t35 24l7 -238h-2q-42 106 -99 161t-125 55q-88 0 -141 -85t-53 -219t66 -216t170 -82q71 0 119 30t78 93l6 -2q-26 -103 -104 -160t-193 -57q-151 0 -247.5 97.5t-96.5 252.5q0 160 108.5 265t268.5 105q29 0 57.5 -4t70.5 -16q21 -7 29.5 -8.5
t15.5 -1.5zM211 964h10q47 -13 92.5 -34.5t81.5 -47.5q36 26 81.5 47.5t92.5 34.5h10q-58 -57 -109 -122t-73 -111h-4q-22 46 -73 111t-109 122z" />
    <glyph glyph-name="ccaron" unicode="&#x10d;" horiz-adv-x="512" 
d="M119 773h10q45 -14 90.5 -36t83.5 -49q38 27 83.5 49t90.5 36h10q-58 -58 -109 -125t-73 -114h-4q-22 47 -73 114t-109 125zM384 409q0 37 -20 58t-56 21q-49 0 -76 -55.5t-27 -150.5q0 -99 41 -154.5t113 -55.5q46 0 82 23t58 66l6 -3q-20 -78 -81.5 -123t-147.5 -45
q-111 0 -184 69t-73 179q0 120 80 193.5t207 73.5q85 0 137 -35t52 -94q0 -41 -26.5 -66t-67.5 -25q-36 0 -60 16.5t-27 41.5q4 -1 9 -2t9 -1q25 0 38.5 18t13.5 51z" />
    <glyph glyph-name="Dcaron" unicode="&#x10e;" horiz-adv-x="776" 
d="M173 964h10q47 -13 92.5 -34.5t81.5 -47.5q36 26 81.5 47.5t92.5 34.5h10q-58 -57 -109 -122t-73 -111h-4q-22 46 -73 111t-109 122zM333 0h-308v2q33 22 44 46t11 74v457q0 50 -11 73.5t-44 45.5v2h299q200 0 312.5 -91t112.5 -256q0 -167 -111 -260t-305 -93zM268 675
v-650h52q110 0 169 84.5t59 243.5q0 154 -61 238t-172 84h-47z" />
    <glyph glyph-name="dcaron" unicode="&#x10f;" horiz-adv-x="640" 
d="M646 749h144q-16 -67 -57 -126t-98 -98h-3q10 51 14 110t0 114zM208 242q0 -87 25 -134t71 -47q40 0 67 38t27 95v114q0 64 -27.5 106t-68.5 42q-47 0 -70.5 -53.5t-23.5 -160.5zM243 505q57 0 97.5 -29.5t57.5 -82.5v245q0 48 -11.5 69.5t-48.5 39.5v2h239v-640
q0 -50 9 -68.5t39 -38.5v-2h-227v124q-17 -62 -62 -98t-106 -36q-91 0 -151 70.5t-60 181.5q0 116 63.5 189.5t160.5 73.5z" />
    <glyph glyph-name="Dcroat" unicode="&#x110;" horiz-adv-x="776" 
d="M749 353q0 -167 -111 -260t-305 -93h-308v2q33 22 44 46t11 74v225h-55v30h55v202q0 50 -11 73.5t-44 45.5v2h299q200 0 312.5 -91t112.5 -256zM268 347v-322h52q110 0 169 84.5t59 243.5q0 154 -61 238t-172 84h-47v-298h112v-30h-112z" />
    <glyph glyph-name="dcroat" unicode="&#x111;" horiz-adv-x="644" 
d="M208 242q0 -87 25 -134t71 -47q40 0 67 38t27 95v114q0 64 -27.5 106t-68.5 42q-47 0 -70.5 -53.5t-23.5 -160.5zM398 0v124q-17 -62 -62 -98t-106 -36q-91 0 -151 70.5t-60 181.5q0 116 63.5 189.5t160.5 73.5q57 0 97.5 -29.5t57.5 -82.5v189h-110v25h110v31
q0 48 -11.5 69.5t-48.5 39.5v2h239v-142h55v-25h-55v-473q0 -50 9 -68.5t39 -38.5v-2h-227z" />
    <glyph glyph-name="Emacron" unicode="&#x112;" horiz-adv-x="662" 
d="M494 821v-38h-309v38h309zM25 698v2h490q28 0 44.5 2t25.5 7l34 -194h-2q-54 93 -105 125.5t-130 32.5h-114v-297h91q64 0 93.5 23.5t52.5 90.5h2v-252h-2q-22 64 -51 86.5t-95 22.5h-91v-320h130q76 0 129 35t115 142h2l-32 -204h-587v2q33 22 44 46t11 74v457
q0 50 -11 73.5t-44 45.5z" />
    <glyph glyph-name="emacron" unicode="&#x113;" horiz-adv-x="536" 
d="M19 247q0 113 75 185.5t187 72.5q111 0 174 -63t63 -172h-318q0 -91 43.5 -144.5t117.5 -53.5q49 0 86 22.5t59 66.5l7 -3q-21 -79 -83.5 -123.5t-149.5 -44.5q-115 0 -188 71t-73 186zM281 488q-37 0 -57.5 -51.5t-22.5 -145.5h145q0 111 -15.5 154t-49.5 43zM440 634
v-37h-309v37h309z" />
    <glyph glyph-name="Ebreve" unicode="&#x114;" horiz-adv-x="662" 
d="M494 935h6q-1 -90 -45 -144t-116 -54t-116 54t-44 144h5q7 -39 51.5 -62t103.5 -23t103.5 23t51.5 62zM25 698v2h490q28 0 44.5 2t25.5 7l34 -194h-2q-54 93 -105 125.5t-130 32.5h-114v-297h91q64 0 93.5 23.5t52.5 90.5h2v-252h-2q-22 64 -51 86.5t-95 22.5h-91v-320
h130q76 0 129 35t115 142h2l-32 -204h-587v2q33 22 44 46t11 74v457q0 50 -11 73.5t-44 45.5z" />
    <glyph glyph-name="ebreve" unicode="&#x115;" horiz-adv-x="536" 
d="M19 247q0 113 75 185.5t187 72.5q111 0 174 -63t63 -172h-318q0 -91 43.5 -144.5t117.5 -53.5q49 0 86 22.5t59 66.5l7 -3q-21 -79 -83.5 -123.5t-149.5 -44.5q-115 0 -188 71t-73 186zM281 488q-37 0 -57.5 -51.5t-22.5 -145.5h145q0 111 -15.5 154t-49.5 43zM441 759h5
q0 -92 -44 -147.5t-116 -55.5t-116 55.5t-44 147.5h5q7 -41 51 -65.5t104 -24.5t104 24.5t51 65.5z" />
    <glyph glyph-name="Edotaccent" unicode="&#x116;" horiz-adv-x="662" 
d="M339 741q-42 0 -71 28t-29 68q0 41 28.5 68.5t71.5 27.5t72.5 -27.5t29.5 -68.5q0 -40 -29.5 -68t-72.5 -28zM25 698v2h490q28 0 44.5 2t25.5 7l34 -194h-2q-54 93 -105 125.5t-130 32.5h-114v-297h91q64 0 93.5 23.5t52.5 90.5h2v-252h-2q-22 64 -51 86.5t-95 22.5h-91
v-320h130q76 0 129 35t115 142h2l-32 -204h-587v2q33 22 44 46t11 74v457q0 50 -11 73.5t-44 45.5z" />
    <glyph glyph-name="edotaccent" unicode="&#x117;" horiz-adv-x="536" 
d="M19 247q0 113 75 185.5t187 72.5q111 0 174 -63t63 -172h-318q0 -91 43.5 -144.5t117.5 -53.5q49 0 86 22.5t59 66.5l7 -3q-21 -79 -83.5 -123.5t-149.5 -44.5q-115 0 -188 71t-73 186zM281 488q-37 0 -57.5 -51.5t-22.5 -145.5h145q0 111 -15.5 154t-49.5 43zM285 554
q-42 0 -71 28t-29 68q0 41 28.5 68.5t71.5 27.5t72.5 -27.5t29.5 -68.5q0 -40 -29.5 -68t-72.5 -28z" />
    <glyph glyph-name="Eogonek" unicode="&#x118;" horiz-adv-x="662" 
d="M439 -241q-46 0 -77 26t-31 66q0 29 16.5 54t51.5 49q10 7 38 23t74 41l5 -7q-41 -29 -61.5 -59.5t-20.5 -62.5q0 -30 16.5 -47.5t44.5 -17.5q29 0 49.5 11.5t40.5 37.5l3 -2q-22 -57 -58.5 -84.5t-90.5 -27.5zM25 698v2h490q28 0 44.5 2t25.5 7l34 -194h-2
q-54 93 -105 125.5t-130 32.5h-114v-297h91q64 0 93.5 23.5t52.5 90.5h2v-252h-2q-22 64 -51 86.5t-95 22.5h-91v-320h130q76 0 129 35t115 142h2l-32 -204h-587v2q33 22 44 46t11 74v457q0 50 -11 73.5t-44 45.5z" />
    <glyph glyph-name="eogonek" unicode="&#x119;" horiz-adv-x="536" 
d="M309 -241q-46 0 -77 26t-31 66q0 37 29.5 69.5t111.5 75.5q-13 -3 -29 -4.5t-33 -1.5q-115 0 -188 71t-73 186q0 113 75 185.5t187 72.5q111 0 174 -63t63 -172h-318q0 -91 43.5 -144.5t117.5 -53.5q49 0 86 22.5t59 66.5l7 -3q-12 -46 -41.5 -81.5t-84.5 -68.5
q-43 -26 -63 -54.5t-20 -64.5q0 -30 16.5 -47.5t44.5 -17.5q29 0 49.5 11.5t40.5 37.5l3 -2q-21 -57 -58 -84.5t-91 -27.5zM281 488q-37 0 -57.5 -51.5t-22.5 -145.5h145q0 111 -15.5 154t-49.5 43z" />
    <glyph glyph-name="Ecaron" unicode="&#x11a;" horiz-adv-x="662" 
d="M155 964h10q47 -13 92.5 -34.5t81.5 -47.5q36 26 81.5 47.5t92.5 34.5h10q-58 -57 -109 -122t-73 -111h-4q-22 46 -73 111t-109 122zM25 698v2h490q28 0 44.5 2t25.5 7l34 -194h-2q-54 93 -105 125.5t-130 32.5h-114v-297h91q64 0 93.5 23.5t52.5 90.5h2v-252h-2
q-22 64 -51 86.5t-95 22.5h-91v-320h130q76 0 129 35t115 142h2l-32 -204h-587v2q33 22 44 46t11 74v457q0 50 -11 73.5t-44 45.5z" />
    <glyph glyph-name="ecaron" unicode="&#x11b;" horiz-adv-x="536" 
d="M102 773h10q45 -14 90.5 -36t83.5 -49q38 27 83.5 49t90.5 36h10q-58 -58 -109 -125t-73 -114h-4q-22 47 -73 114t-109 125zM19 247q0 113 75 185.5t187 72.5q111 0 174 -63t63 -172h-318q0 -91 43.5 -144.5t117.5 -53.5q49 0 86 22.5t59 66.5l7 -3q-21 -79 -83.5 -123.5
t-149.5 -44.5q-115 0 -188 71t-73 186zM281 488q-37 0 -57.5 -51.5t-22.5 -145.5h145q0 111 -15.5 154t-49.5 43z" />
    <glyph glyph-name="Gcircumflex" unicode="&#x11c;" horiz-adv-x="769" 
d="M427 688q-92 0 -144.5 -91.5t-52.5 -251.5q0 -148 45 -239t121 -91q58 0 91 37t33 103v53q0 51 -11 74.5t-44 44.5v2h293v-2q-33 -21 -44 -44.5t-11 -74.5v-218h-2l-87 100q-37 -45 -97 -72.5t-125 -27.5q-164 0 -265 98t-101 257q0 158 110 261.5t273 103.5
q30 0 59.5 -4t73.5 -17q22 -6 30.5 -7.5t15.5 -1.5q16 0 30 6t35 24l7 -238h-2q-44 104 -103.5 160t-127.5 56zM584 728h-11q-46 13 -90.5 34t-82.5 47q-37 -26 -82.5 -47t-91.5 -34h-11q57 55 109 120.5t74 112.5h4q21 -47 72.5 -112.5t109.5 -120.5z" />
    <glyph glyph-name="gcircumflex" unicode="&#x11d;" horiz-adv-x="584" 
d="M444 534h-10q-46 14 -91.5 36.5t-82.5 49.5q-37 -27 -82.5 -49.5t-91.5 -36.5h-10q57 57 108.5 124.5t73.5 114.5h4q22 -47 73.5 -114.5t108.5 -124.5zM324 341q0 77 -13.5 112.5t-42.5 35.5q-28 0 -41.5 -35.5t-13.5 -112.5t13 -112t42 -35t42.5 35t13.5 112zM569 -33
q0 -90 -87.5 -143t-228.5 -53q-116 0 -183 27.5t-67 78.5q0 33 34 54t93 24q-49 11 -77.5 42.5t-28.5 76.5q0 44 31 78.5t82 49.5q-46 20 -71 56.5t-25 82.5q0 74 61.5 119t165.5 45q50 0 90.5 -11t69.5 -32q27 46 50 63t51 17q39 0 61.5 -20t22.5 -55q0 -37 -25.5 -58
t-66.5 -21v2q6 8 9 16.5t3 18.5q0 23 -13.5 36.5t-36.5 13.5q-13 0 -24 -5t-22 -16q29 -21 44.5 -50t15.5 -63q0 -75 -61.5 -119.5t-167.5 -44.5q-33 0 -62 4.5t-54 13.5q-21 -8 -31.5 -19t-10.5 -25q0 -17 12.5 -26.5t35.5 -9.5h217q91 0 142.5 -39t51.5 -109zM97 -121
q0 -42 42.5 -66t113.5 -24q86 0 138.5 26t52.5 70q0 33 -22.5 49.5t-68.5 16.5h-166q-44 0 -67 -18.5t-23 -53.5z" />
    <glyph glyph-name="Gbreve" unicode="&#x11e;" horiz-adv-x="769" 
d="M554 939h6q-1 -90 -45 -144t-116 -54t-116 54t-44 144h5q7 -39 51.5 -62t103.5 -23t103.5 23t51.5 62zM427 688q-92 0 -144.5 -91.5t-52.5 -251.5q0 -148 45 -239t121 -91q58 0 91 37t33 103v53q0 51 -11 74.5t-44 44.5v2h293v-2q-33 -21 -44 -44.5t-11 -74.5v-218h-2
l-87 100q-37 -45 -97 -72.5t-125 -27.5q-164 0 -265 98t-101 257q0 158 110 261.5t273 103.5q30 0 59.5 -4t73.5 -17q22 -6 30.5 -7.5t15.5 -1.5q16 0 30 6t35 24l7 -238h-2q-44 104 -103.5 160t-127.5 56z" />
    <glyph glyph-name="gbreve" unicode="&#x11f;" horiz-adv-x="584" 
d="M324 341q0 77 -13.5 112.5t-42.5 35.5q-28 0 -41.5 -35.5t-13.5 -112.5t13 -112t42 -35t42.5 35t13.5 112zM569 -33q0 -90 -87.5 -143t-228.5 -53q-116 0 -183 27.5t-67 78.5q0 33 34 54t93 24q-49 11 -77.5 42.5t-28.5 76.5q0 44 31 78.5t82 49.5q-46 20 -71 56.5
t-25 82.5q0 74 61.5 119t165.5 45q50 0 90.5 -11t69.5 -32q27 46 50 63t51 17q39 0 61.5 -20t22.5 -55q0 -37 -25.5 -58t-66.5 -21v2q6 8 9 16.5t3 18.5q0 23 -13.5 36.5t-36.5 13.5q-13 0 -24 -5t-22 -16q29 -21 44.5 -50t15.5 -63q0 -75 -61.5 -119.5t-167.5 -44.5
q-33 0 -62 4.5t-54 13.5q-21 -8 -31.5 -19t-10.5 -25q0 -17 12.5 -26.5t35.5 -9.5h217q91 0 142.5 -39t51.5 -109zM97 -121q0 -42 42.5 -66t113.5 -24q86 0 138.5 26t52.5 70q0 33 -22.5 49.5t-68.5 16.5h-166q-44 0 -67 -18.5t-23 -53.5zM425 759h5q0 -92 -44 -147.5
t-116 -55.5t-116 55.5t-44 147.5h5q7 -41 51 -65.5t104 -24.5t104 24.5t51 65.5z" />
    <glyph glyph-name="Gdotaccent" unicode="&#x120;" horiz-adv-x="769" 
d="M398 746q-42 0 -71 28t-29 68q0 41 28.5 68.5t71.5 27.5t72.5 -27.5t29.5 -68.5q0 -40 -29.5 -68t-72.5 -28zM427 688q-92 0 -144.5 -91.5t-52.5 -251.5q0 -148 45 -239t121 -91q58 0 91 37t33 103v53q0 51 -11 74.5t-44 44.5v2h293v-2q-33 -21 -44 -44.5t-11 -74.5v-218
h-2l-87 100q-37 -45 -97 -72.5t-125 -27.5q-164 0 -265 98t-101 257q0 158 110 261.5t273 103.5q30 0 59.5 -4t73.5 -17q22 -6 30.5 -7.5t15.5 -1.5q16 0 30 6t35 24l7 -238h-2q-44 104 -103.5 160t-127.5 56z" />
    <glyph glyph-name="gdotaccent" unicode="&#x121;" horiz-adv-x="584" 
d="M324 341q0 77 -13.5 112.5t-42.5 35.5q-28 0 -41.5 -35.5t-13.5 -112.5t13 -112t42 -35t42.5 35t13.5 112zM569 -33q0 -90 -87.5 -143t-228.5 -53q-116 0 -183 27.5t-67 78.5q0 33 34 54t93 24q-49 11 -77.5 42.5t-28.5 76.5q0 44 31 78.5t82 49.5q-46 20 -71 56.5
t-25 82.5q0 74 61.5 119t165.5 45q50 0 90.5 -11t69.5 -32q27 46 50 63t51 17q39 0 61.5 -20t22.5 -55q0 -37 -25.5 -58t-66.5 -21v2q6 8 9 16.5t3 18.5q0 23 -13.5 36.5t-36.5 13.5q-13 0 -24 -5t-22 -16q29 -21 44.5 -50t15.5 -63q0 -75 -61.5 -119.5t-167.5 -44.5
q-33 0 -62 4.5t-54 13.5q-21 -8 -31.5 -19t-10.5 -25q0 -17 12.5 -26.5t35.5 -9.5h217q91 0 142.5 -39t51.5 -109zM97 -121q0 -42 42.5 -66t113.5 -24q86 0 138.5 26t52.5 70q0 33 -22.5 49.5t-68.5 16.5h-166q-44 0 -67 -18.5t-23 -53.5zM269 554q-42 0 -71 28t-29 68
q0 41 28.5 68.5t71.5 27.5t72.5 -27.5t29.5 -68.5q0 -40 -29.5 -68t-72.5 -28z" />
    <glyph glyph-name="Gcommaaccent" unicode="&#x122;" horiz-adv-x="769" 
d="M395 -36q44 0 71.5 -28t27.5 -72q0 -65 -48 -101.5t-132 -37.5v16q58 5 89 24t35 53q-9 -8 -24 -12.5t-31 -4.5q-32 0 -54 23.5t-22 56.5q0 35 25.5 59t62.5 24zM427 688q-92 0 -144.5 -91.5t-52.5 -251.5q0 -148 45 -239t121 -91q58 0 91 37t33 103v53q0 51 -11 74.5
t-44 44.5v2h293v-2q-33 -21 -44 -44.5t-11 -74.5v-218h-2l-87 100q-37 -45 -97 -72.5t-125 -27.5q-164 0 -265 98t-101 257q0 158 110 261.5t273 103.5q30 0 59.5 -4t73.5 -17q22 -6 30.5 -7.5t15.5 -1.5q16 0 30 6t35 24l7 -238h-2q-44 104 -103.5 160t-127.5 56z" />
    <glyph glyph-name="gcommaaccent" unicode="&#x123;" horiz-adv-x="584" 
d="M274 545q-44 0 -71.5 28t-27.5 72q0 64 48 100.5t132 37.5v-16q-58 -5 -89 -24t-35 -53q9 8 24.5 12.5t31.5 4.5q31 0 53 -23.5t22 -56.5q0 -35 -25.5 -58.5t-62.5 -23.5zM324 341q0 77 -13.5 112.5t-42.5 35.5q-28 0 -41.5 -35.5t-13.5 -112.5t13 -112t42 -35t42.5 35
t13.5 112zM569 -33q0 -90 -87.5 -143t-228.5 -53q-116 0 -183 27.5t-67 78.5q0 33 34 54t93 24q-49 11 -77.5 42.5t-28.5 76.5q0 44 31 78.5t82 49.5q-46 20 -71 56.5t-25 82.5q0 74 61.5 119t165.5 45q50 0 90.5 -11t69.5 -32q27 46 50 63t51 17q39 0 61.5 -20t22.5 -55
q0 -37 -25.5 -58t-66.5 -21v2q6 8 9 16.5t3 18.5q0 23 -13.5 36.5t-36.5 13.5q-13 0 -24 -5t-22 -16q29 -21 44.5 -50t15.5 -63q0 -75 -61.5 -119.5t-167.5 -44.5q-33 0 -62 4.5t-54 13.5q-21 -8 -31.5 -19t-10.5 -25q0 -17 12.5 -26.5t35.5 -9.5h217q91 0 142.5 -39
t51.5 -109zM97 -121q0 -42 42.5 -66t113.5 -24q86 0 138.5 26t52.5 70q0 33 -22.5 49.5t-68.5 16.5h-166q-44 0 -67 -18.5t-23 -53.5z" />
    <glyph glyph-name="Hcircumflex" unicode="&#x124;" horiz-adv-x="826" 
d="M80 122v457q0 50 -11 73.5t-44 45.5v2h298v-2q-33 -22 -44 -45.5t-11 -73.5v-202h289v202q0 51 -11 74.5t-44 44.5v2h299v-2q-33 -21 -44 -44.5t-11 -74.5v-457q0 -51 11 -75t44 -45v-2h-299v2q33 21 44 45t11 75v225h-289v-225q0 -50 11 -74t44 -46v-2h-298v2
q33 22 44 46t11 74zM597 728h-11q-46 13 -90.5 34t-82.5 47q-37 -26 -82.5 -47t-91.5 -34h-11q57 55 109 120.5t74 112.5h4q21 -47 72.5 -112.5t109.5 -120.5z" />
    <glyph glyph-name="hcircumflex" unicode="&#x125;" horiz-adv-x="635" 
d="M5 747v2h238v-384q19 67 64.5 103.5t109.5 36.5q75 0 116.5 -46.5t41.5 -126.5v-223q0 -53 8 -70.5t39 -36.5v-2h-272v2q30 19 38 36.5t8 70.5v228q0 39 -17.5 61t-49.5 22q-41 0 -63.5 -34.5t-22.5 -97.5v-179q0 -53 8 -70.5t39 -36.5v-2h-272v2q30 19 38 36.5t8 70.5
v529q0 49 -11.5 70t-47.5 39zM504 775h-11q-46 13 -90.5 34t-82.5 47q-37 -26 -82.5 -47t-91.5 -34h-11q57 55 109 120.5t74 112.5h4q21 -47 72.5 -112.5t109.5 -120.5z" />
    <glyph glyph-name="Hbar" unicode="&#x126;" horiz-adv-x="826" 
d="M268 344h289v120h-289v-120zM323 2v-2h-298v2q33 22 44 46t11 74v342h-55v30h55v85q0 50 -11 73.5t-44 45.5v2h298v-2q-33 -22 -44 -45.5t-11 -73.5v-85h289v85q0 51 -11 74.5t-44 44.5v2h299v-2q-33 -21 -44 -44.5t-11 -74.5v-85h55v-30h-55v-342q0 -51 11 -75t44 -45
v-2h-299v2q33 21 44 45t11 75v192h-289v-192q0 -50 11 -74t44 -46z" />
    <glyph glyph-name="hbar" unicode="&#x127;" horiz-adv-x="638" 
d="M294 1v-2h-272v2q30 19 38 36.5t8 70.5v474h-55v25h55v30q0 49 -11.5 70t-47.5 39v2h238v-141h109v-25h-109v-218q19 67 64.5 103.5t109.5 36.5q75 0 116.5 -46.5t41.5 -126.5v-223q0 -53 8 -70.5t39 -36.5v-2h-272v2q30 19 38 36.5t8 70.5v228q0 39 -17.5 61t-49.5 22
q-41 0 -63.5 -34.5t-22.5 -97.5v-179q0 -53 8 -70.5t39 -36.5z" />
    <glyph glyph-name="Itilde" unicode="&#x128;" horiz-adv-x="348" 
d="M268 579v-457q0 -50 11 -74t44 -46v-2h-298v2q33 22 44 46t11 74v457q0 50 -11 73.5t-44 45.5v2h298v-2q-33 -22 -44 -45.5t-11 -73.5zM357 929h5q-6 -79 -38.5 -125.5t-81.5 -46.5q-19 0 -37.5 5t-51.5 22q-30 15 -45.5 19.5t-30.5 4.5q-30 0 -51.5 -14.5t-34.5 -44.5
h-5q6 78 38.5 124.5t81.5 46.5q19 0 37.5 -5t51.5 -22q30 -15 45.5 -19.5t30.5 -4.5q30 0 51.5 15t34.5 45z" />
    <glyph glyph-name="itilde" unicode="&#x129;" horiz-adv-x="309" 
d="M325 739h5q-4 -78 -35 -125t-78 -47q-18 0 -35.5 5t-48.5 22q-28 14 -42.5 18.5t-28.5 4.5q-28 0 -48 -14.5t-31 -43.5h-6q4 78 35.5 124.5t78.5 46.5q18 0 35.5 -5t48.5 -22q27 -14 41.5 -18.5t28.5 -4.5q29 0 49 15t31 44zM15 495h232v-386q0 -53 8 -70.5t39 -36.5v-2
h-273v2q31 19 39 36.5t8 70.5v275q0 52 -9 70.5t-44 38.5v2z" />
    <glyph glyph-name="Imacron" unicode="&#x12a;" horiz-adv-x="348" 
d="M268 579v-457q0 -50 11 -74t44 -46v-2h-298v2q33 22 44 46t11 74v457q0 50 -11 73.5t-44 45.5v2h298v-2q-33 -22 -44 -45.5t-11 -73.5zM328 821v-38h-309v38h309z" />
    <glyph glyph-name="imacron" unicode="&#x12b;" horiz-adv-x="309" 
d="M288 634v-37h-276v37h276zM15 495h232v-386q0 -53 8 -70.5t39 -36.5v-2h-273v2q31 19 39 36.5t8 70.5v275q0 52 -9 70.5t-44 38.5v2z" />
    <glyph glyph-name="Ibreve" unicode="&#x12c;" horiz-adv-x="348" 
d="M268 579v-457q0 -50 11 -74t44 -46v-2h-298v2q33 22 44 46t11 74v457q0 50 -11 73.5t-44 45.5v2h298v-2q-33 -22 -44 -45.5t-11 -73.5zM329 935h6q-1 -90 -45 -144t-116 -54t-116 54t-44 144h5q7 -39 51.5 -62t103.5 -23t103.5 23t51.5 62z" />
    <glyph glyph-name="ibreve" unicode="&#x12d;" horiz-adv-x="309" 
d="M152 555q-67 0 -105 54t-38 150h4q7 -41 46.5 -65.5t92.5 -24.5q55 0 94 24.5t45 65.5h5q0 -96 -38.5 -150t-105.5 -54zM15 495h232v-386q0 -53 8 -70.5t39 -36.5v-2h-273v2q31 19 39 36.5t8 70.5v275q0 52 -9 70.5t-44 38.5v2z" />
    <glyph glyph-name="Iogonek" unicode="&#x12e;" horiz-adv-x="348" 
d="M268 579v-457q0 -50 11 -74t44 -46v-2h-298v2q33 22 44 46t11 74v457q0 50 -11 73.5t-44 45.5v2h298v-2q-33 -22 -44 -45.5t-11 -73.5zM152 -241q-46 0 -77 26t-31 66q0 29 16.5 54t51.5 49q10 7 38 23t74 41l5 -7q-41 -29 -61.5 -59.5t-20.5 -62.5q0 -30 16.5 -47.5
t44.5 -17.5q29 0 49.5 11.5t40.5 37.5l3 -2q-22 -57 -58.5 -84.5t-90.5 -27.5z" />
    <glyph glyph-name="iogonek" unicode="&#x12f;" horiz-adv-x="309" 
d="M155 555q-43 0 -71.5 27.5t-28.5 68.5t28.5 68t71.5 27t72.5 -27t29.5 -68t-29.5 -68.5t-72.5 -27.5zM15 495h232v-386q0 -53 8 -70.5t39 -36.5v-2h-273v2q31 19 39 36.5t8 70.5v275q0 52 -9 70.5t-44 38.5v2zM132 -241q-46 0 -77 26t-31 66q0 29 16.5 54t51.5 49
q10 7 38 23t74 41l5 -7q-41 -29 -61.5 -59.5t-20.5 -62.5q0 -30 16.5 -47.5t44.5 -17.5q29 0 49.5 11.5t40.5 37.5l3 -2q-22 -57 -58.5 -84.5t-90.5 -27.5z" />
    <glyph glyph-name="Idotaccent" unicode="&#x130;" horiz-adv-x="348" 
d="M268 579v-457q0 -50 11 -74t44 -46v-2h-298v2q33 22 44 46t11 74v457q0 50 -11 73.5t-44 45.5v2h298v-2q-33 -22 -44 -45.5t-11 -73.5zM173 741q-42 0 -71 28t-29 68q0 41 28.5 68.5t71.5 27.5t72.5 -27.5t29.5 -68.5q0 -40 -29.5 -68t-72.5 -28z" />
    <glyph glyph-name="dotlessi" unicode="&#x131;" horiz-adv-x="309" 
d="M15 495h232v-386q0 -53 8 -70.5t39 -36.5v-2h-273v2q31 19 39 36.5t8 70.5v275q0 52 -9 70.5t-44 38.5v2z" />
    <glyph glyph-name="IJ" unicode="&#x132;" 
 />
    <glyph glyph-name="Jcircumflex" unicode="&#x134;" horiz-adv-x="607" 
d="M254 9q48 0 72 36.5t24 109.5v424q0 51 -11 74.5t-44 44.5v2h299v-2q-33 -21 -44 -44.5t-11 -74.5v-359q0 -110 -75.5 -170t-209.5 -60q-108 0 -179.5 46.5t-71.5 122.5q0 53 36 84.5t93 31.5q31 0 57 -11t41 -30q-35 1 -54.5 -26.5t-19.5 -73.5q0 -57 26 -91t72 -34z
M624 728h-11q-46 13 -90.5 34t-82.5 47q-37 -26 -82.5 -47t-91.5 -34h-11q57 55 109 120.5t74 112.5h4q21 -47 72.5 -112.5t109.5 -120.5z" />
    <glyph glyph-name="jcircumflex" unicode="&#x135;" horiz-adv-x="293" 
d="M327 534h-10q-46 14 -91.5 36.5t-82.5 49.5q-37 -27 -82.5 -49.5t-91.5 -36.5h-10q57 57 108.5 124.5t73.5 114.5h4q22 -47 73.5 -114.5t108.5 -124.5zM240 495v-519q0 -97 -63.5 -151t-174.5 -54q-76 0 -121.5 27.5t-45.5 75.5q0 34 27 56t67 22q22 0 41 -5.5t30 -15.5
q-24 -6 -37.5 -25.5t-13.5 -49.5q0 -33 14 -51t41 -18q29 0 43 23.5t14 73.5v500q-1 53 -10 71.5t-43 37.5v2h232z" />
    <glyph glyph-name="Kcommaaccent" unicode="&#x136;" horiz-adv-x="769" 
d="M365 -36q44 0 71.5 -28t27.5 -72q0 -65 -48 -101.5t-132 -37.5v16q58 5 89 24t35 53q-9 -8 -24 -12.5t-31 -4.5q-32 0 -54 23.5t-22 56.5q0 35 25.5 59t62.5 24zM323 2v-2h-298v2q33 22 44 46t11 74v457q0 50 -11 73.5t-44 45.5v2h298v-2q-33 -22 -44 -45.5t-11 -73.5
v-250l285 268q13 12 19.5 24.5t6.5 24.5q0 16 -10.5 29.5t-29.5 22.5v2h206v-2q-41 -16 -77.5 -40.5t-83.5 -67.5l-127 -120l216 -359q24 -38 49.5 -64.5t56.5 -44.5v-2h-318v2q15 8 20.5 16t5.5 22q0 13 -6 28.5t-22 44.5l-143 228l-48 -45v-174q0 -50 11 -74t44 -46z" />
    <glyph glyph-name="kcommaaccent" unicode="&#x137;" horiz-adv-x="624" 
d="M314 -36q44 0 71.5 -28t27.5 -72q0 -65 -48 -101.5t-132 -37.5v16q58 5 89 24t35 53q-9 -8 -24 -12.5t-31 -4.5q-32 0 -54 23.5t-22 56.5q0 35 25.5 59t62.5 24zM243 749v-470h19q25 0 39.5 6.5t31.5 22.5l89 85q17 16 25 31t7 28q0 14 -9 25t-24 16v2h196v-2
q-44 -13 -75.5 -30.5t-68.5 -51.5l-57 -55l121 -232q24 -46 50 -76t55 -46v-2h-252q2 14 -2 32.5t-15 38.5l-82 163q-8 15 -15.5 20.5t-19.5 5.5h-13v-151q0 -53 8 -70.5t39 -36.5v-2h-272v2q30 19 38 36.5t8 70.5v529q0 49 -11.5 70t-47.5 39v2h238z" />
    <glyph glyph-name="kgreenlandic" unicode="&#x138;" horiz-adv-x="634" 
d="M253 495v-216h19q25 0 39.5 6.5t31.5 22.5l89 85q17 16 25 31t7 28q0 14 -9 25t-24 16v2h196v-2q-43 -13 -74 -30t-70 -52l-57 -55l121 -232q24 -46 50 -76t55 -46v-2h-252q2 14 -2 32.5t-15 38.5l-82 163q-8 16 -15.5 21t-19.5 5h-13v-151q0 -52 8 -69.5t39 -37.5v-2
h-272v2q30 19 38 36.5t8 70.5v275q0 49 -11 70t-48 39v2h238z" />
    <glyph glyph-name="Lacute" unicode="&#x139;" horiz-adv-x="643" 
d="M188 931h177q-31 -61 -85 -109.5t-131 -86.5h-5q20 34 30.5 81t13.5 115zM25 698v2h298v-2q-33 -22 -44 -45.5t-11 -73.5v-552h114q51 0 88 14t67 44q19 20 39 49.5t55 92.5h2l-37 -227h-571v2q33 22 44 46t11 74v457q0 50 -11 73.5t-44 45.5z" />
    <glyph glyph-name="lacute" unicode="&#x13a;" horiz-adv-x="305" 
d="M111 972h177q-31 -61 -85 -109.5t-131 -86.5h-5q20 34 30.5 81t13.5 115zM5 749h238v-640q0 -53 8 -70.5t39 -36.5v-2h-272v2q30 19 38 36.5t8 70.5v529q0 49 -11.5 70t-47.5 39v2z" />
    <glyph glyph-name="Lcommaaccent" unicode="&#x13b;" horiz-adv-x="643" 
d="M323 -36q44 0 71.5 -28t27.5 -72q0 -65 -48 -101.5t-132 -37.5v16q58 5 89 24t35 53q-9 -8 -24 -12.5t-31 -4.5q-32 0 -54 23.5t-22 56.5q0 35 25.5 59t62.5 24zM25 698v2h298v-2q-33 -22 -44 -45.5t-11 -73.5v-552h114q51 0 88 14t67 44q19 20 39 49.5t55 92.5h2
l-37 -227h-571v2q33 22 44 46t11 74v457q0 50 -11 73.5t-44 45.5z" />
    <glyph glyph-name="lcommaaccent" unicode="&#x13c;" horiz-adv-x="305" 
d="M143 -36q44 0 71.5 -28t27.5 -72q0 -65 -48 -101.5t-132 -37.5v16q58 5 89 24t35 53q-9 -8 -24 -12.5t-31 -4.5q-32 0 -54 23.5t-22 56.5q0 35 25.5 59t62.5 24zM5 749h238v-640q0 -53 8 -70.5t39 -36.5v-2h-272v2q30 19 38 36.5t8 70.5v529q0 49 -11.5 70t-47.5 39v2z
" />
    <glyph glyph-name="Lcaron" unicode="&#x13d;" horiz-adv-x="643" 
d="M441 700h144q-16 -67 -57 -126t-98 -98h-3q10 51 14 110t0 114zM25 698v2h298v-2q-33 -22 -44 -45.5t-11 -73.5v-552h114q51 0 88 14t67 44q19 20 39 49.5t55 92.5h2l-37 -227h-571v2q33 22 44 46t11 74v457q0 50 -11 73.5t-44 45.5z" />
    <glyph glyph-name="lcaron" unicode="&#x13e;" horiz-adv-x="305" 
d="M312 749h144q-16 -67 -57 -126t-98 -98h-3q10 51 14 110t0 114zM5 749h238v-640q0 -53 8 -70.5t39 -36.5v-2h-272v2q30 19 38 36.5t8 70.5v529q0 49 -11.5 70t-47.5 39v2z" />
    <glyph glyph-name="Ldot" unicode="&#x13f;" horiz-adv-x="643" 
d="M25 698v2h298v-2q-33 -22 -44 -45.5t-11 -73.5v-552h114q51 0 88 14t67 44q19 20 39 49.5t55 92.5h2l-37 -227h-571v2q33 22 44 46t11 74v457q0 50 -11 73.5t-44 45.5zM534 297q-42 0 -71 28t-29 68q0 41 28.5 68.5t71.5 27.5t72.5 -27.5t29.5 -68.5q0 -40 -29.5 -68
t-72.5 -28z" />
    <glyph glyph-name="ldot" unicode="&#x140;" horiz-adv-x="485" 
d="M5 749h238v-640q0 -53 8 -70.5t39 -36.5v-2h-272v2q30 19 38 36.5t8 70.5v529q0 49 -11.5 70t-47.5 39v2zM393 277q-42 0 -71 28t-29 68q0 41 28.5 68.5t71.5 27.5t72.5 -27.5t29.5 -68.5q0 -40 -29.5 -68t-72.5 -28z" />
    <glyph glyph-name="Lslash" unicode="&#x141;" horiz-adv-x="643" 
d="M633 227l-37 -227h-571v2q33 22 44 46t11 74v175l-55 -22v32l55 22v250q0 50 -11 73.5t-44 45.5v2h298v-2q-33 -22 -44 -45.5t-11 -73.5v-188l145 58v-32l-145 -56v-334h114q51 0 88 14t67 44q19 20 39 49.5t55 92.5h2z" />
    <glyph glyph-name="lslash" unicode="&#x142;" horiz-adv-x="318" 
d="M296 2v-2h-272v2q30 19 38 36.5t8 70.5v269l-64 -31v32l64 31v228q0 49 -11.5 70t-47.5 39v2h238v-273l64 30v-31l-64 -31v-335q0 -53 8 -70.5t39 -36.5z" />
    <glyph glyph-name="Nacute" unicode="&#x143;" horiz-adv-x="724" 
d="M339 931h177q-31 -61 -85 -109.5t-131 -86.5h-5q20 34 30.5 81t13.5 115zM722 700v-2q-39 -22 -56.5 -57t-17.5 -92v-552h-45l-491 609v-448q0 -63 19.5 -99.5t62.5 -56.5v-2h-189v2q39 22 57 57.5t18 91.5v428q0 50 -11 73.5t-44 45.5v2h257l334 -414v256q0 63 -20 100
t-63 56v2h189z" />
    <glyph glyph-name="nacute" unicode="&#x144;" horiz-adv-x="639" 
d="M298 749h174q-30 -62 -84 -113t-131 -91h-6q21 37 32.5 87.5t14.5 116.5zM15 493v2h232v-130q18 66 63.5 103t109.5 37q75 0 117 -46.5t42 -126.5v-223q0 -53 8 -70.5t39 -36.5v-2h-273v2q31 19 39 36.5t8 70.5v228q0 38 -18 60.5t-50 22.5q-40 0 -62.5 -34.5
t-22.5 -97.5v-179q0 -53 8 -70.5t39 -36.5v-2h-273v2q31 19 39 36.5t8 70.5v275q0 52 -9 70.5t-44 38.5z" />
    <glyph glyph-name="Ncommaaccent" unicode="&#x145;" horiz-adv-x="724" 
d="M358 -36q44 0 71.5 -28t27.5 -72q0 -65 -48 -101.5t-132 -37.5v16q58 5 89 24t35 53q-9 -8 -24 -12.5t-31 -4.5q-32 0 -54 23.5t-22 56.5q0 35 25.5 59t62.5 24zM722 700v-2q-39 -22 -56.5 -57t-17.5 -92v-552h-45l-491 609v-448q0 -63 19.5 -99.5t62.5 -56.5v-2h-189v2
q39 22 57 57.5t18 91.5v428q0 50 -11 73.5t-44 45.5v2h257l334 -414v256q0 63 -20 100t-63 56v2h189z" />
    <glyph glyph-name="ncommaaccent" unicode="&#x146;" horiz-adv-x="639" 
d="M322 -36q44 0 71.5 -28t27.5 -72q0 -65 -48 -101.5t-132 -37.5v16q58 5 89 24t35 53q-9 -8 -24 -12.5t-31 -4.5q-32 0 -54 23.5t-22 56.5q0 35 25.5 59t62.5 24zM15 493v2h232v-130q18 66 63.5 103t109.5 37q75 0 117 -46.5t42 -126.5v-223q0 -53 8 -70.5t39 -36.5v-2
h-273v2q31 19 39 36.5t8 70.5v228q0 38 -18 60.5t-50 22.5q-40 0 -62.5 -34.5t-22.5 -97.5v-179q0 -53 8 -70.5t39 -36.5v-2h-273v2q31 19 39 36.5t8 70.5v275q0 52 -9 70.5t-44 38.5z" />
    <glyph glyph-name="Ncaron" unicode="&#x147;" horiz-adv-x="724" 
d="M191 964h10q47 -13 92.5 -34.5t81.5 -47.5q36 26 81.5 47.5t92.5 34.5h10q-58 -57 -109 -122t-73 -111h-4q-22 46 -73 111t-109 122zM722 700v-2q-39 -22 -56.5 -57t-17.5 -92v-552h-45l-491 609v-448q0 -63 19.5 -99.5t62.5 -56.5v-2h-189v2q39 22 57 57.5t18 91.5v428
q0 50 -11 73.5t-44 45.5v2h257l334 -414v256q0 63 -20 100t-63 56v2h189z" />
    <glyph glyph-name="ncaron" unicode="&#x148;" horiz-adv-x="639" 
d="M148 773h10q45 -14 90.5 -36t83.5 -49q38 27 83.5 49t90.5 36h10q-58 -58 -109 -125t-73 -114h-4q-22 47 -73 114t-109 125zM15 493v2h232v-130q18 66 63.5 103t109.5 37q75 0 117 -46.5t42 -126.5v-223q0 -53 8 -70.5t39 -36.5v-2h-273v2q31 19 39 36.5t8 70.5v228
q0 38 -18 60.5t-50 22.5q-40 0 -62.5 -34.5t-22.5 -97.5v-179q0 -53 8 -70.5t39 -36.5v-2h-273v2q31 19 39 36.5t8 70.5v275q0 52 -9 70.5t-44 38.5z" />
    <glyph glyph-name="Eng" unicode="&#x14a;" horiz-adv-x="724" 
d="M528 -199q43 0 65.5 36.5t22.5 106.5v38l-504 624v-448q0 -63 19.5 -99.5t62.5 -56.5v-2h-189v2q39 22 57 57.5t18 91.5v428q0 50 -11 73.5t-44 45.5v2h257l334 -414v256q0 63 -20 100t-63 56v2h189v-2q-39 -22 -56.5 -57t-17.5 -92v-600q0 -87 -35.5 -132.5
t-103.5 -45.5q-69 0 -111 30t-42 81q0 35 27 57.5t67 22.5q22 0 41 -6t30 -16q-24 -6 -37 -24.5t-13 -48.5t15.5 -48t41.5 -18z" />
    <glyph glyph-name="eng" unicode="&#x14b;" horiz-adv-x="636" 
d="M341 -229q-76 0 -121 27.5t-45 75.5q0 34 26.5 56t66.5 22q22 0 41.5 -5.5t30.5 -15.5q-25 -6 -38 -25t-13 -50q0 -34 14 -51.5t40 -17.5q29 0 43 23.5t14 73.5v453q0 38 -18 60.5t-50 22.5q-40 0 -62.5 -34.5t-22.5 -97.5v-179q0 -53 8 -70.5t39 -36.5v-2h-273v2
q31 19 39 36.5t8 70.5v275q0 52 -9 70.5t-44 38.5v2h232v-130q18 66 63.5 103t109.5 37q75 0 117 -46.5t42 -126.5v-356q0 -97 -63.5 -151t-174.5 -54z" />
    <glyph glyph-name="Omacron" unicode="&#x14c;" horiz-adv-x="771" 
d="M540 821v-38h-309v38h309zM386 710q156 0 257.5 -102t101.5 -258t-101.5 -258t-257.5 -102t-258 101.5t-102 258.5t102 258.5t258 101.5zM386 10q80 0 116.5 80.5t36.5 259.5t-36.5 259.5t-116.5 80.5t-117 -80.5t-37 -259.5t37 -259.5t117 -80.5z" />
    <glyph glyph-name="omacron" unicode="&#x14d;" horiz-adv-x="588" 
d="M448 634v-37h-309v37h309zM569 248q0 -113 -78.5 -185.5t-196.5 -72.5t-196.5 72.5t-78.5 185.5q0 112 78.5 184.5t196.5 72.5t196.5 -72.5t78.5 -184.5zM209 248q0 -126 20.5 -183.5t64.5 -57.5t64.5 57.5t20.5 183.5q0 125 -20.5 182.5t-64.5 57.5t-64.5 -57.5
t-20.5 -182.5z" />
    <glyph glyph-name="Obreve" unicode="&#x14e;" horiz-adv-x="771" 
d="M541 935h6q-1 -90 -45 -144t-116 -54t-116 54t-44 144h5q7 -39 51.5 -62t103.5 -23t103.5 23t51.5 62zM386 710q156 0 257.5 -102t101.5 -258t-101.5 -258t-257.5 -102t-258 101.5t-102 258.5t102 258.5t258 101.5zM386 10q80 0 116.5 80.5t36.5 259.5t-36.5 259.5
t-116.5 80.5t-117 -80.5t-37 -259.5t37 -259.5t117 -80.5z" />
    <glyph glyph-name="obreve" unicode="&#x14f;" horiz-adv-x="588" 
d="M569 248q0 -113 -78.5 -185.5t-196.5 -72.5t-196.5 72.5t-78.5 185.5q0 112 78.5 184.5t196.5 72.5t196.5 -72.5t78.5 -184.5zM209 248q0 -126 20.5 -183.5t64.5 -57.5t64.5 57.5t20.5 183.5q0 125 -20.5 182.5t-64.5 57.5t-64.5 -57.5t-20.5 -182.5zM449 759h5
q0 -92 -44 -147.5t-116 -55.5t-116 55.5t-44 147.5h5q7 -41 51 -65.5t104 -24.5t104 24.5t51 65.5z" />
    <glyph glyph-name="Ohungarumlaut" unicode="&#x150;" horiz-adv-x="771" 
d="M386 710q156 0 257.5 -102t101.5 -258t-101.5 -258t-257.5 -102t-258 101.5t-102 258.5t102 258.5t258 101.5zM386 10q80 0 116.5 80.5t36.5 259.5t-36.5 259.5t-116.5 80.5t-117 -80.5t-37 -259.5t37 -259.5t117 -80.5zM309 931h164q-35 -68 -83.5 -115t-119.5 -81h-5
q20 34 30.5 81t13.5 115zM503 931h164q-34 -67 -83 -114t-120 -82h-5q20 34 30.5 81t13.5 115z" />
    <glyph glyph-name="ohungarumlaut" unicode="&#x151;" horiz-adv-x="588" 
d="M210 749h160q-34 -69 -83 -118t-120 -86h-5q21 38 33 89t15 115zM398 749h160q-34 -69 -82.5 -118t-119.5 -86h-6q21 38 33 89t15 115zM569 248q0 -113 -78.5 -185.5t-196.5 -72.5t-196.5 72.5t-78.5 185.5q0 112 78.5 184.5t196.5 72.5t196.5 -72.5t78.5 -184.5z
M209 248q0 -126 20.5 -183.5t64.5 -57.5t64.5 57.5t20.5 183.5q0 125 -20.5 182.5t-64.5 57.5t-64.5 -57.5t-20.5 -182.5z" />
    <glyph glyph-name="OE" unicode="&#x152;" horiz-adv-x="1084" 
d="M455 25h47v650h-52q-110 0 -168.5 -84.5t-58.5 -243.5q0 -153 60.5 -237.5t171.5 -84.5zM1064 204h2l-32 -204h-588q-200 0 -312.5 91t-112.5 256q0 167 111 260t306 93h499q28 0 44.5 2t25.5 7l34 -194h-2q-54 93 -105 125.5t-130 32.5h-113v-297h90q64 0 93.5 23.5
t52.5 90.5h2v-252h-2q-22 64 -51 86.5t-95 22.5h-90v-320h129q76 0 129 35t115 142z" />
    <glyph glyph-name="oe" unicode="&#x153;" horiz-adv-x="890" 
d="M860 161l7 -3q-21 -79 -83.5 -123.5t-149.5 -44.5q-48 0 -92 18t-76 50q-35 -33 -79.5 -50.5t-92.5 -17.5q-118 0 -196.5 72.5t-78.5 185.5q0 112 78.5 184.5t196.5 72.5q48 0 93.5 -18.5t80.5 -51.5q35 34 78.5 52t88.5 18q111 0 173.5 -63t62.5 -172h-317
q0 -91 43.5 -144.5t117.5 -53.5q49 0 86 22.5t59 66.5zM294 7q44 0 64.5 57.5t20.5 183.5q0 125 -20.5 182.5t-64.5 57.5t-64.5 -57.5t-20.5 -182.5q0 -126 20.5 -183.5t64.5 -57.5zM635 488q-37 0 -57.5 -51.5t-22.5 -145.5h145q0 111 -15.5 154t-49.5 43z" />
    <glyph glyph-name="Racute" unicode="&#x154;" horiz-adv-x="759" 
d="M342 673h-74v-322h74q69 0 107 42t38 118q0 77 -38 119.5t-107 42.5zM25 698v2h399q126 0 193.5 -48t67.5 -140q0 -80 -64.5 -129t-165.5 -50q79 -4 124.5 -35t66.5 -95l26 -78q16 -50 37 -75.5t64 -47.5v-2h-247q-16 18 -28 44t-23 64l-34 122q-16 52 -43 73t-72 21h-58
v-202q0 -50 11 -74t44 -46v-2h-298v2q33 22 44 46t11 74v457q0 50 -11 73.5t-44 45.5zM336 931h177q-31 -61 -85 -109.5t-131 -86.5h-5q20 34 30.5 81t13.5 115z" />
    <glyph glyph-name="racute" unicode="&#x155;" horiz-adv-x="516" 
d="M245 749h174q-30 -62 -84 -113t-131 -91h-6q21 37 32.5 87.5t14.5 116.5zM409 288q-11 0 -21 3t-15 7q15 6 23.5 19t8.5 30q0 27 -16 41.5t-46 14.5q-41 0 -68.5 -39t-27.5 -101v-154q0 -42 14 -63.5t63 -43.5v-2h-303v2q31 19 39 36.5t8 70.5v275q0 52 -9 70.5t-44 38.5
v2h232v-161q23 85 62.5 128t95.5 43q47 0 77 -29t30 -75q0 -51 -29 -82t-74 -31z" />
    <glyph glyph-name="Rcommaaccent" unicode="&#x156;" horiz-adv-x="759" 
d="M368 -36q44 0 71.5 -28t27.5 -72q0 -65 -48 -101.5t-132 -37.5v16q58 5 89 24t35 53q-9 -8 -24 -12.5t-31 -4.5q-32 0 -54 23.5t-22 56.5q0 35 25.5 59t62.5 24zM342 673h-74v-322h74q69 0 107 42t38 118q0 77 -38 119.5t-107 42.5zM25 698v2h399q126 0 193.5 -48
t67.5 -140q0 -80 -64.5 -129t-165.5 -50q79 -4 124.5 -35t66.5 -95l26 -78q16 -50 37 -75.5t64 -47.5v-2h-247q-16 18 -28 44t-23 64l-34 122q-16 52 -43 73t-72 21h-58v-202q0 -50 11 -74t44 -46v-2h-298v2q33 22 44 46t11 74v457q0 50 -11 73.5t-44 45.5z" />
    <glyph glyph-name="rcommaaccent" unicode="&#x157;" horiz-adv-x="516" 
d="M152 -36q44 0 71.5 -28t27.5 -72q0 -65 -48 -101.5t-132 -37.5v16q58 5 89 24t35 53q-9 -8 -24 -12.5t-31 -4.5q-32 0 -54 23.5t-22 56.5q0 35 25.5 59t62.5 24zM409 288q-11 0 -21 3t-15 7q15 6 23.5 19t8.5 30q0 27 -16 41.5t-46 14.5q-41 0 -68.5 -39t-27.5 -101v-154
q0 -42 14 -63.5t63 -43.5v-2h-303v2q31 19 39 36.5t8 70.5v275q0 52 -9 70.5t-44 38.5v2h232v-161q23 85 62.5 128t95.5 43q47 0 77 -29t30 -75q0 -51 -29 -82t-74 -31z" />
    <glyph glyph-name="Rcaron" unicode="&#x158;" horiz-adv-x="759" 
d="M188 964h10q47 -13 92.5 -34.5t81.5 -47.5q36 26 81.5 47.5t92.5 34.5h10q-58 -57 -109 -122t-73 -111h-4q-22 46 -73 111t-109 122zM342 673h-74v-322h74q69 0 107 42t38 118q0 77 -38 119.5t-107 42.5zM25 698v2h399q126 0 193.5 -48t67.5 -140q0 -80 -64.5 -129
t-165.5 -50q79 -4 124.5 -35t66.5 -95l26 -78q16 -50 37 -75.5t64 -47.5v-2h-247q-16 18 -28 44t-23 64l-34 122q-16 52 -43 73t-72 21h-58v-202q0 -50 11 -74t44 -46v-2h-298v2q33 22 44 46t11 74v457q0 50 -11 73.5t-44 45.5z" />
    <glyph glyph-name="rcaron" unicode="&#x159;" horiz-adv-x="516" 
d="M95 773h10q45 -14 90.5 -36t83.5 -49q38 27 83.5 49t90.5 36h10q-58 -58 -109 -125t-73 -114h-4q-22 47 -73 114t-109 125zM409 288q-11 0 -21 3t-15 7q15 6 23.5 19t8.5 30q0 27 -16 41.5t-46 14.5q-41 0 -68.5 -39t-27.5 -101v-154q0 -42 14 -63.5t63 -43.5v-2h-303v2
q31 19 39 36.5t8 70.5v275q0 52 -9 70.5t-44 38.5v2h232v-161q23 85 62.5 128t95.5 43q47 0 77 -29t30 -75q0 -51 -29 -82t-74 -31z" />
    <glyph glyph-name="Sacute" unicode="&#x15a;" horiz-adv-x="589" 
d="M289 690q-53 0 -86.5 -30t-33.5 -79q0 -46 32 -76t123 -59q80 -25 112 -40.5t55 -33.5q36 -29 54 -69.5t18 -93.5q0 -98 -75.5 -158.5t-192.5 -60.5q-25 0 -51 3.5t-69 14.5q-27 7 -39.5 9t-21.5 2q-17 0 -33.5 -6.5t-36.5 -22.5l-18 232h2q51 -98 122 -155t144 -57
q64 0 100 31.5t36 87.5q0 34 -17.5 60t-54.5 45q-11 6 -43 18t-83 30q-114 37 -157 87t-43 128q0 96 70.5 154.5t186.5 58.5q23 0 46.5 -3.5t62.5 -13.5q26 -7 37.5 -9t20.5 -2q13 0 26 5.5t34 22.5l4 -202h-2q-57 99 -110 140.5t-119 41.5zM258 931h177q-31 -61 -85 -109.5
t-131 -86.5h-5q20 34 30.5 81t13.5 115z" />
    <glyph glyph-name="sacute" unicode="&#x15b;" horiz-adv-x="473" 
d="M204 749h174q-30 -62 -84 -113t-131 -91h-6q21 37 32.5 87.5t14.5 116.5zM213 488q-33 0 -53.5 -17t-20.5 -45q0 -29 21.5 -46t101.5 -41q103 -33 143.5 -73.5t40.5 -109.5q0 -75 -55.5 -120.5t-147.5 -45.5q-21 0 -42.5 2.5t-57.5 10.5q-23 5 -33.5 6.5t-18.5 1.5
q-12 0 -22 -3.5t-29 -18.5l-11 183h2q45 -84 97 -124.5t115 -40.5q39 0 62 19t23 53q0 28 -19.5 45t-99.5 42q-96 30 -136.5 72.5t-40.5 111.5q0 68 51 111.5t130 43.5q19 0 37.5 -3t50.5 -11q21 -6 31 -8t18 -2q14 0 26.5 5t29.5 20v-162h-2q-33 65 -85.5 104.5
t-105.5 39.5z" />
    <glyph glyph-name="Scircumflex" unicode="&#x15c;" horiz-adv-x="589" 
d="M289 690q-53 0 -86.5 -30t-33.5 -79q0 -46 32 -76t123 -59q80 -25 112 -40.5t55 -33.5q36 -29 54 -69.5t18 -93.5q0 -98 -75.5 -158.5t-192.5 -60.5q-25 0 -51 3.5t-69 14.5q-27 7 -39.5 9t-21.5 2q-17 0 -33.5 -6.5t-36.5 -22.5l-18 232h2q51 -98 122 -155t144 -57
q64 0 100 31.5t36 87.5q0 34 -17.5 60t-54.5 45q-11 6 -43 18t-83 30q-114 37 -157 87t-43 128q0 96 70.5 154.5t186.5 58.5q23 0 46.5 -3.5t62.5 -13.5q26 -7 37.5 -9t20.5 -2q13 0 26 5.5t34 22.5l4 -202h-2q-57 99 -110 140.5t-119 41.5zM479 728h-11q-46 13 -90.5 34
t-82.5 47q-37 -26 -82.5 -47t-91.5 -34h-11q57 55 109 120.5t74 112.5h4q21 -47 72.5 -112.5t109.5 -120.5z" />
    <glyph glyph-name="scircumflex" unicode="&#x15d;" horiz-adv-x="473" 
d="M422 534h-10q-46 14 -91.5 36.5t-82.5 49.5q-37 -27 -82.5 -49.5t-91.5 -36.5h-10q57 57 108.5 124.5t73.5 114.5h4q22 -47 73.5 -114.5t108.5 -124.5zM213 488q-33 0 -53.5 -17t-20.5 -45q0 -29 21.5 -46t101.5 -41q103 -33 143.5 -73.5t40.5 -109.5q0 -75 -55.5 -120.5
t-147.5 -45.5q-21 0 -42.5 2.5t-57.5 10.5q-23 5 -33.5 6.5t-18.5 1.5q-12 0 -22 -3.5t-29 -18.5l-11 183h2q45 -84 97 -124.5t115 -40.5q39 0 62 19t23 53q0 28 -19.5 45t-99.5 42q-96 30 -136.5 72.5t-40.5 111.5q0 68 51 111.5t130 43.5q19 0 37.5 -3t50.5 -11
q21 -6 31 -8t18 -2q14 0 26.5 5t29.5 20v-162h-2q-33 65 -85.5 104.5t-105.5 39.5z" />
    <glyph glyph-name="Scedilla" unicode="&#x15e;" horiz-adv-x="589" 
d="M289 690q-53 0 -86.5 -30t-33.5 -79q0 -46 32 -76t123 -59q80 -25 112 -40.5t55 -33.5q36 -29 54 -69.5t18 -93.5q0 -98 -75.5 -158.5t-192.5 -60.5q-25 0 -51 3.5t-69 14.5q-27 7 -39.5 9t-21.5 2q-17 0 -33.5 -6.5t-36.5 -22.5l-18 232h2q51 -98 122 -155t144 -57
q64 0 100 31.5t36 87.5q0 34 -17.5 60t-54.5 45q-11 6 -43 18t-83 30q-114 37 -157 87t-43 128q0 96 70.5 154.5t186.5 58.5q23 0 46.5 -3.5t62.5 -13.5q26 -7 37.5 -9t20.5 -2q13 0 26 5.5t34 22.5l4 -202h-2q-57 99 -110 140.5t-119 41.5zM267 -224q-45 0 -80 22.5
t-45 56.5l7 7q13 -22 30.5 -33.5t39.5 -11.5q23 0 36 14t13 38q0 28 -18 41.5t-58 15.5l52 80h19l-36 -56q73 3 114 -20t41 -67q0 -39 -32.5 -63t-82.5 -24z" />
    <glyph glyph-name="scedilla" unicode="&#x15f;" horiz-adv-x="473" 
d="M213 488q-33 0 -53.5 -17t-20.5 -45q0 -29 21.5 -46t101.5 -41q103 -33 143.5 -73.5t40.5 -109.5q0 -75 -55.5 -120.5t-147.5 -45.5q-21 0 -42.5 2.5t-57.5 10.5q-23 5 -33.5 6.5t-18.5 1.5q-12 0 -22 -3.5t-29 -18.5l-11 183h2q45 -84 97 -124.5t115 -40.5q39 0 62 19
t23 53q0 28 -19.5 45t-99.5 42q-96 30 -136.5 72.5t-40.5 111.5q0 68 51 111.5t130 43.5q19 0 37.5 -3t50.5 -11q21 -6 31 -8t18 -2q14 0 26.5 5t29.5 20v-162h-2q-33 65 -85.5 104.5t-105.5 39.5zM211 -224q-45 0 -80 22.5t-45 56.5l7 7q13 -22 30.5 -33.5t39.5 -11.5
q23 0 36 14t13 38q0 28 -18 41.5t-58 15.5l52 80h19l-36 -56q73 3 114 -20t41 -67q0 -39 -32.5 -63t-82.5 -24z" />
    <glyph glyph-name="Scaron" unicode="&#x160;" horiz-adv-x="589" 
d="M289 690q-53 0 -86.5 -30t-33.5 -79q0 -46 32 -76t123 -59q80 -25 112 -40.5t55 -33.5q36 -29 54 -69.5t18 -93.5q0 -98 -75.5 -158.5t-192.5 -60.5q-25 0 -51 3.5t-69 14.5q-27 7 -39.5 9t-21.5 2q-17 0 -33.5 -6.5t-36.5 -22.5l-18 232h2q51 -98 122 -155t144 -57
q64 0 100 31.5t36 87.5q0 34 -17.5 60t-54.5 45q-11 6 -43 18t-83 30q-114 37 -157 87t-43 128q0 96 70.5 154.5t186.5 58.5q23 0 46.5 -3.5t62.5 -13.5q26 -7 37.5 -9t20.5 -2q13 0 26 5.5t34 22.5l4 -202h-2q-57 99 -110 140.5t-119 41.5zM110 964h10q47 -13 92.5 -34.5
t81.5 -47.5q36 26 81.5 47.5t92.5 34.5h10q-58 -57 -109 -122t-73 -111h-4q-22 46 -73 111t-109 122z" />
    <glyph glyph-name="scaron" unicode="&#x161;" horiz-adv-x="473" 
d="M54 773h10q45 -14 90.5 -36t83.5 -49q38 27 83.5 49t90.5 36h10q-58 -58 -109 -125t-73 -114h-4q-22 47 -73 114t-109 125zM213 488q-33 0 -53.5 -17t-20.5 -45q0 -29 21.5 -46t101.5 -41q103 -33 143.5 -73.5t40.5 -109.5q0 -75 -55.5 -120.5t-147.5 -45.5
q-21 0 -42.5 2.5t-57.5 10.5q-23 5 -33.5 6.5t-18.5 1.5q-12 0 -22 -3.5t-29 -18.5l-11 183h2q45 -84 97 -124.5t115 -40.5q39 0 62 19t23 53q0 28 -19.5 45t-99.5 42q-96 30 -136.5 72.5t-40.5 111.5q0 68 51 111.5t130 43.5q19 0 37.5 -3t50.5 -11q21 -6 31 -8t18 -2
q14 0 26.5 5t29.5 20v-162h-2q-33 65 -85.5 104.5t-105.5 39.5z" />
    <glyph glyph-name="Tcommaaccent" unicode="&#x162;" horiz-adv-x="764" 
d="M378 -36q44 0 71.5 -28t27.5 -72q0 -65 -48 -101.5t-132 -37.5v16q58 5 89 24t35 53q-9 -8 -24 -12.5t-31 -4.5q-32 0 -54 23.5t-22 56.5q0 35 25.5 59t62.5 24zM116 700h532q28 0 44 2t26 7l34 -237h-2q-44 70 -60.5 94t-30.5 40q-31 37 -63.5 52.5t-76.5 15.5h-43v-555
q0 -47 11 -70.5t46 -46.5v-2h-302v2q35 22 46 45.5t11 71.5v555h-43q-44 0 -76.5 -15.5t-63.5 -52.5q-14 -16 -30.5 -40t-60.5 -94h-2l34 237q10 -5 26 -7t44 -2z" />
    <glyph glyph-name="tcommaaccent" unicode="&#x163;" horiz-adv-x="406" 
d="M198 -36q44 0 71.5 -28t27.5 -72q0 -65 -48 -101.5t-132 -37.5v16q58 5 89 24t35 53q-9 -8 -24 -12.5t-31 -4.5q-32 0 -54 23.5t-22 56.5q0 35 25.5 59t62.5 24zM297 75q34 0 56.5 28t32.5 81l12 -4q-13 -93 -59 -141.5t-122 -48.5q-75 0 -117.5 44.5t-41.5 124.5l2 311
h-54v11q80 17 137.5 66t83.5 122h10v-174h150l-5 -25h-145v-315q0 -39 15.5 -59.5t44.5 -20.5z" />
    <glyph glyph-name="Tcaron" unicode="&#x164;" horiz-adv-x="764" 
d="M198 964h10q47 -13 92.5 -34.5t81.5 -47.5q36 26 81.5 47.5t92.5 34.5h10q-58 -57 -109 -122t-73 -111h-4q-22 46 -73 111t-109 122zM116 700h532q28 0 44 2t26 7l34 -237h-2q-44 70 -60.5 94t-30.5 40q-31 37 -63.5 52.5t-76.5 15.5h-43v-555q0 -47 11 -70.5t46 -46.5
v-2h-302v2q35 22 46 45.5t11 71.5v555h-43q-44 0 -76.5 -15.5t-63.5 -52.5q-14 -16 -30.5 -40t-60.5 -94h-2l34 237q10 -5 26 -7t44 -2z" />
    <glyph glyph-name="tcaron" unicode="&#x165;" horiz-adv-x="406" 
d="M300 762h144q-16 -67 -57 -126t-98 -98h-3q10 51 14 110t0 114zM297 75q34 0 56.5 28t32.5 81l12 -4q-13 -93 -59 -141.5t-122 -48.5q-75 0 -117.5 44.5t-41.5 124.5l2 311h-54v11q80 17 137.5 66t83.5 122h10v-174h150l-5 -25h-145v-315q0 -39 15.5 -59.5t44.5 -20.5z
" />
    <glyph glyph-name="Tbar" unicode="&#x166;" horiz-adv-x="764" 
d="M533 2v-2h-302v2q35 22 46 45.5t11 71.5v228h-113v30h113v297h-43q-44 0 -76.5 -15.5t-63.5 -52.5q-14 -16 -30.5 -40t-60.5 -94h-2l34 237q10 -5 26 -7t44 -2h532q28 0 44 2t26 7l34 -237h-2q-44 70 -60.5 94t-30.5 40q-31 37 -63.5 52.5t-76.5 15.5h-43v-297h113v-30
h-113v-228q0 -47 11 -70.5t46 -46.5z" />
    <glyph glyph-name="tbar" unicode="&#x167;" horiz-adv-x="414" 
d="M399 184l12 -4q-12 -92 -58.5 -141t-122.5 -49q-75 0 -117.5 44.5t-41.5 124.5l1 166h-54v26h54v119h-53v11q79 17 136.5 65.5t84.5 122.5h10v-174h150l-5 -25h-145v-119h140v-26h-140v-170q0 -39 15.5 -59.5t44.5 -20.5q33 0 56 28t33 81z" />
    <glyph glyph-name="Utilde" unicode="&#x168;" horiz-adv-x="728" 
d="M582 929h5q-6 -79 -38.5 -125.5t-81.5 -46.5q-19 0 -37.5 5t-51.5 22q-30 15 -45.5 19.5t-30.5 4.5q-30 0 -51.5 -14.5t-34.5 -44.5h-5q6 78 38.5 124.5t81.5 46.5q19 0 37.5 -5t51.5 -22q30 -15 45.5 -19.5t30.5 -4.5q30 0 51.5 15t34.5 45zM654 549v-278
q0 -134 -73 -207.5t-206 -73.5q-143 0 -224 74.5t-81 208.5v306q0 51 -11 74.5t-44 44.5v2h299v-2q-33 -22 -44 -45.5t-11 -73.5v-304q0 -109 44.5 -166.5t129.5 -57.5q86 0 137.5 60t51.5 163v268q0 63 -19.5 100t-62.5 56v2h189v-2q-39 -22 -57 -57.5t-18 -91.5z" />
    <glyph glyph-name="utilde" unicode="&#x169;" horiz-adv-x="629" 
d="M303 76q41 0 63 34t22 98v176q0 52 -9 70.5t-44 38.5v2h232v-389q0 -46 9 -64.5t43 -39.5v-2h-231v133q-17 -68 -62.5 -105.5t-110.5 -37.5q-74 0 -116 47t-42 127v220q0 52 -9 70.5t-43 38.5v2h231v-336q0 -37 18 -60t49 -23zM497 739h5q-6 -79 -38.5 -125.5
t-81.5 -46.5q-19 0 -37.5 5t-51.5 22q-30 15 -45.5 19.5t-30.5 4.5q-30 0 -51.5 -14.5t-34.5 -44.5h-5q6 78 38.5 124.5t81.5 46.5q19 0 37.5 -5t51.5 -22q30 -15 45.5 -19.5t30.5 -4.5q30 0 51.5 15t34.5 45z" />
    <glyph glyph-name="Umacron" unicode="&#x16a;" horiz-adv-x="728" 
d="M554 821v-38h-309v38h309zM654 549v-278q0 -134 -73 -207.5t-206 -73.5q-143 0 -224 74.5t-81 208.5v306q0 51 -11 74.5t-44 44.5v2h299v-2q-33 -22 -44 -45.5t-11 -73.5v-304q0 -109 44.5 -166.5t129.5 -57.5q86 0 137.5 60t51.5 163v268q0 63 -19.5 100t-62.5 56v2h189
v-2q-39 -22 -57 -57.5t-18 -91.5z" />
    <glyph glyph-name="umacron" unicode="&#x16b;" horiz-adv-x="629" 
d="M303 76q41 0 63 34t22 98v176q0 52 -9 70.5t-44 38.5v2h232v-389q0 -46 9 -64.5t43 -39.5v-2h-231v133q-17 -68 -62.5 -105.5t-110.5 -37.5q-74 0 -116 47t-42 127v220q0 52 -9 70.5t-43 38.5v2h231v-336q0 -37 18 -60t49 -23zM469 634v-37h-309v37h309z" />
    <glyph glyph-name="Ubreve" unicode="&#x16c;" horiz-adv-x="728" 
d="M554 935h6q-1 -90 -45 -144t-116 -54t-116 54t-44 144h5q7 -39 51.5 -62t103.5 -23t103.5 23t51.5 62zM654 549v-278q0 -134 -73 -207.5t-206 -73.5q-143 0 -224 74.5t-81 208.5v306q0 51 -11 74.5t-44 44.5v2h299v-2q-33 -22 -44 -45.5t-11 -73.5v-304
q0 -109 44.5 -166.5t129.5 -57.5q86 0 137.5 60t51.5 163v268q0 63 -19.5 100t-62.5 56v2h189v-2q-39 -22 -57 -57.5t-18 -91.5z" />
    <glyph glyph-name="ubreve" unicode="&#x16d;" horiz-adv-x="629" 
d="M303 76q41 0 63 34t22 98v176q0 52 -9 70.5t-44 38.5v2h232v-389q0 -46 9 -64.5t43 -39.5v-2h-231v133q-17 -68 -62.5 -105.5t-110.5 -37.5q-74 0 -116 47t-42 127v220q0 52 -9 70.5t-43 38.5v2h231v-336q0 -37 18 -60t49 -23zM469 759h5q0 -92 -44 -147.5t-116 -55.5
t-116 55.5t-44 147.5h5q7 -41 51 -65.5t104 -24.5t104 24.5t51 65.5z" />
    <glyph glyph-name="Uring" unicode="&#x16e;" horiz-adv-x="728" 
d="M654 549v-278q0 -134 -73 -207.5t-206 -73.5q-143 0 -224 74.5t-81 208.5v306q0 51 -11 74.5t-44 44.5v2h299v-2q-33 -22 -44 -45.5t-11 -73.5v-304q0 -109 44.5 -166.5t129.5 -57.5q86 0 137.5 60t51.5 163v268q0 63 -19.5 100t-62.5 56v2h189v-2q-39 -22 -57 -57.5
t-18 -91.5zM291 843q0 43 32 75t76 32t76 -31.5t32 -75.5q0 -45 -31.5 -76.5t-76.5 -31.5q-44 0 -76 32t-32 76zM322 843q0 -32 22.5 -54.5t54.5 -22.5t55 22.5t23 54.5q0 31 -23 53.5t-55 22.5q-31 0 -54 -22.5t-23 -53.5z" />
    <glyph glyph-name="uring" unicode="&#x16f;" horiz-adv-x="629" 
d="M206 653q0 43 32 75t76 32t76 -31.5t32 -75.5q0 -45 -31.5 -76.5t-76.5 -31.5q-44 0 -76 32t-32 76zM237 653q0 -32 22.5 -54.5t54.5 -22.5t55 22.5t23 54.5q0 31 -23 53.5t-55 22.5q-31 0 -54 -22.5t-23 -53.5zM303 76q41 0 63 34t22 98v176q0 52 -9 70.5t-44 38.5v2
h232v-389q0 -46 9 -64.5t43 -39.5v-2h-231v133q-17 -68 -62.5 -105.5t-110.5 -37.5q-74 0 -116 47t-42 127v220q0 52 -9 70.5t-43 38.5v2h231v-336q0 -37 18 -60t49 -23z" />
    <glyph glyph-name="Uhungarumlaut" unicode="&#x170;" horiz-adv-x="728" 
d="M654 549v-278q0 -134 -73 -207.5t-206 -73.5q-143 0 -224 74.5t-81 208.5v306q0 51 -11 74.5t-44 44.5v2h299v-2q-33 -22 -44 -45.5t-11 -73.5v-304q0 -109 44.5 -166.5t129.5 -57.5q86 0 137.5 60t51.5 163v268q0 63 -19.5 100t-62.5 56v2h189v-2q-39 -22 -57 -57.5
t-18 -91.5zM322 931h164q-35 -68 -83.5 -115t-119.5 -81h-5q20 34 30.5 81t13.5 115zM516 931h164q-34 -67 -83 -114t-120 -82h-5q20 34 30.5 81t13.5 115z" />
    <glyph glyph-name="uhungarumlaut" unicode="&#x171;" horiz-adv-x="629" 
d="M303 76q41 0 63 34t22 98v176q0 52 -9 70.5t-44 38.5v2h232v-389q0 -46 9 -64.5t43 -39.5v-2h-231v133q-17 -68 -62.5 -105.5t-110.5 -37.5q-74 0 -116 47t-42 127v220q0 52 -9 70.5t-43 38.5v2h231v-336q0 -37 18 -60t49 -23zM223 749h160q-34 -69 -83 -118t-120 -86h-5
q21 38 33 89t15 115zM411 749h160q-34 -69 -82.5 -118t-119.5 -86h-6q21 38 33 89t15 115z" />
    <glyph glyph-name="Uogonek" unicode="&#x172;" horiz-adv-x="728" 
d="M419 -241q-46 0 -77 26t-31 66q0 37 29 69.5t112 77.5q-16 -4 -35 -6t-42 -2q-143 0 -224 74.5t-81 208.5v306q0 51 -11 74.5t-44 44.5v2h299v-2q-33 -22 -44 -45.5t-11 -73.5v-304q0 -109 44.5 -166.5t129.5 -57.5q86 0 137.5 60t51.5 163v268q0 63 -19.5 100t-62.5 56
v2h189v-2q-39 -22 -57 -57.5t-18 -90.5v-279q0 -97 -36.5 -159t-119.5 -103q-40 -20 -62 -52t-22 -68q0 -30 16.5 -47.5t44.5 -17.5q29 0 49.5 11.5t40.5 37.5l3 -2q-23 -57 -59.5 -84.5t-89.5 -27.5z" />
    <glyph glyph-name="uogonek" unicode="&#x173;" horiz-adv-x="629" 
d="M349 -241q-46 0 -77 26t-31 66q0 29 16.5 54t51.5 49q10 7 38 23t74 41l5 -7q-41 -29 -61.5 -59.5t-20.5 -62.5q0 -30 16.5 -47.5t44.5 -17.5q29 0 49.5 11.5t40.5 37.5l3 -2q-22 -57 -58.5 -84.5t-90.5 -27.5zM303 76q41 0 63 34t22 98v176q0 52 -9 70.5t-44 38.5v2h232
v-389q0 -46 9 -64.5t43 -39.5v-2h-231v133q-17 -68 -62.5 -105.5t-110.5 -37.5q-74 0 -116 47t-42 127v220q0 52 -9 70.5t-43 38.5v2h231v-336q0 -37 18 -60t49 -23z" />
    <glyph glyph-name="Wcircumflex" unicode="&#x174;" horiz-adv-x="985" 
d="M676 -10h-5l-176 457l-180 -457h-5l-243 598q-17 42 -33 66t-41 44v2h298v-2q-21 -13 -30.5 -27t-9.5 -31q0 -12 3 -25.5t9 -29.5l130 -329l87 228l-40 104q-17 43 -32.5 66.5t-40.5 43.5v2h293v-2q-21 -13 -30.5 -27t-9.5 -31q0 -10 2.5 -22t9.5 -33l118 -334l121 322
q4 12 6 22.5t2 19.5q0 26 -14 47t-41 36v2h170v-2q-29 -22 -50 -51.5t-36 -68.5zM686 728h-11q-46 13 -90.5 34t-82.5 47q-37 -26 -82.5 -47t-91.5 -34h-11q57 55 109 120.5t74 112.5h4q21 -47 72.5 -112.5t109.5 -120.5z" />
    <glyph glyph-name="wcircumflex" unicode="&#x175;" horiz-adv-x="788" 
d="M585 534h-10q-46 14 -91.5 36.5t-82.5 49.5q-37 -27 -82.5 -49.5t-91.5 -36.5h-10q57 57 108.5 124.5t73.5 114.5h4q22 -47 73.5 -114.5t108.5 -124.5zM544 -10h-2l-136 322l-156 -322h-2l-185 397q-22 47 -35 66.5t-36 39.5v2h258v-2q-12 -10 -17 -20t-5 -25
q0 -11 3.5 -23.5t11.5 -32.5l86 -188l65 136l-20 47q-22 46 -35 65.5t-37 40.5v2h261v-2q-16 -10 -23 -20.5t-7 -25.5q0 -8 2.5 -18.5t11.5 -36.5l68 -181l74 176q4 10 6.5 20t2.5 20q0 23 -13.5 40t-37.5 26v2h149v-2q-29 -24 -43.5 -44.5t-33.5 -62.5z" />
    <glyph glyph-name="Ycircumflex" unicode="&#x176;" horiz-adv-x="707" 
d="M282 593l148 -258l147 245q8 14 11.5 25.5t3.5 22.5q0 22 -12.5 39.5t-36.5 30.5v2h170v-2q-29 -20 -51 -45.5t-47 -67.5l-175 -290v-176q0 -48 11 -71.5t46 -45.5v-2h-293v2q35 22 46 45.5t11 71.5v176l-178 293q-25 42 -44 65.5t-46 44.5v2h312v-2q-21 -16 -29 -29
t-8 -30q0 -11 3.5 -22.5t10.5 -23.5zM562 728h-11q-46 13 -90.5 34t-82.5 47q-37 -26 -82.5 -47t-91.5 -34h-11q57 55 109 120.5t74 112.5h4q21 -47 72.5 -112.5t109.5 -120.5z" />
    <glyph glyph-name="ycircumflex" unicode="&#x177;" horiz-adv-x="544" 
d="M172 -156q27 0 47 17t37 56l23 50l-213 420q-23 46 -36 64.5t-38 41.5v2h273v-2q-15 -10 -21.5 -20t-6.5 -25q0 -12 4 -26.5t11 -29.5l106 -221l85 208q5 12 7.5 23.5t2.5 22.5q0 24 -13 41.5t-38 26.5v2h150v-2q-29 -23 -44.5 -45.5t-32.5 -65.5l-204 -488
q-27 -65 -60 -94t-80 -29t-75.5 25.5t-28.5 67.5q0 39 24 62.5t62 23.5q9 0 15 -1t14 -3q-13 -8 -19.5 -19.5t-6.5 -27.5q0 -24 16 -39.5t40 -15.5zM479 534h-10q-46 14 -91.5 36.5t-82.5 49.5q-37 -27 -82.5 -49.5t-91.5 -36.5h-10q57 57 108.5 124.5t73.5 114.5h4
q22 -47 73.5 -114.5t108.5 -124.5z" />
    <glyph glyph-name="Ydieresis" unicode="&#x178;" horiz-adv-x="707" 
d="M282 593l148 -258l147 245q8 14 11.5 25.5t3.5 22.5q0 22 -12.5 39.5t-36.5 30.5v2h170v-2q-29 -20 -51 -45.5t-47 -67.5l-175 -290v-176q0 -48 11 -71.5t46 -45.5v-2h-293v2q35 22 46 45.5t11 71.5v176l-178 293q-25 42 -44 65.5t-46 44.5v2h312v-2q-21 -16 -29 -29
t-8 -30q0 -11 3.5 -22.5t10.5 -23.5zM360 833q0 -36 -26 -62t-62 -26t-61.5 26t-25.5 62q0 37 25.5 63.5t61.5 26.5t62 -26.5t26 -63.5zM571 833q0 -36 -26 -62t-62 -26q-37 0 -63 26t-26 62q0 37 26 63.5t63 26.5q36 0 62 -26.5t26 -63.5z" />
    <glyph glyph-name="Zacute" unicode="&#x179;" horiz-adv-x="694" 
d="M671 231l-31 -231h-619v2l420 671h-163q-44 0 -78 -13.5t-63 -43.5q-17 -17 -35 -42t-56 -86h-2l34 221q10 -5 26.5 -7t43.5 -2h514v-2l-410 -671h165q51 0 87.5 14t67.5 47q18 20 39 50.5t58 92.5h2zM319 931h177q-31 -61 -85 -109.5t-131 -86.5h-5q20 34 30.5 81
t13.5 115z" />
    <glyph glyph-name="zacute" unicode="&#x17a;" horiz-adv-x="529" 
d="M237 749h174q-30 -62 -84 -113t-131 -91h-6q21 37 32.5 87.5t14.5 116.5zM15 2l285 472h-73q-51 0 -89 -27.5t-103 -124.5h-2l14 183q11 -5 27.5 -7.5t34.5 -2.5h392v-2l-282 -472h65q44 0 74 12t59 40q14 14 31 35.5t59 80.5h2l-29 -189h-465v2z" />
    <glyph glyph-name="Zdotaccent" unicode="&#x17b;" horiz-adv-x="694" 
d="M354 741q-42 0 -71 28t-29 68q0 41 28.5 68.5t71.5 27.5t72.5 -27.5t29.5 -68.5q0 -40 -29.5 -68t-72.5 -28zM671 231l-31 -231h-619v2l420 671h-163q-44 0 -78 -13.5t-63 -43.5q-17 -17 -35 -42t-56 -86h-2l34 221q10 -5 26.5 -7t43.5 -2h514v-2l-410 -671h165
q51 0 87.5 14t67.5 47q18 20 39 50.5t58 92.5h2z" />
    <glyph glyph-name="zdotaccent" unicode="&#x17c;" horiz-adv-x="529" 
d="M15 2l285 472h-73q-51 0 -89 -27.5t-103 -124.5h-2l14 183q11 -5 27.5 -7.5t34.5 -2.5h392v-2l-282 -472h65q44 0 74 12t59 40q14 14 31 35.5t59 80.5h2l-29 -189h-465v2zM271 554q-42 0 -71 28t-29 68q0 41 28.5 68.5t71.5 27.5t72.5 -27.5t29.5 -68.5q0 -40 -29.5 -68
t-72.5 -28z" />
    <glyph glyph-name="Zcaron" unicode="&#x17d;" horiz-adv-x="694" 
d="M171 964h10q47 -13 92.5 -34.5t81.5 -47.5q36 26 81.5 47.5t92.5 34.5h10q-58 -57 -109 -122t-73 -111h-4q-22 46 -73 111t-109 122zM671 231l-31 -231h-619v2l420 671h-163q-44 0 -78 -13.5t-63 -43.5q-17 -17 -35 -42t-56 -86h-2l34 221q10 -5 26.5 -7t43.5 -2h514v-2
l-410 -671h165q51 0 87.5 14t67.5 47q18 20 39 50.5t58 92.5h2z" />
    <glyph glyph-name="zcaron" unicode="&#x17e;" horiz-adv-x="529" 
d="M88 773h10q45 -14 90.5 -36t83.5 -49q38 27 83.5 49t90.5 36h10q-58 -58 -109 -125t-73 -114h-4q-22 47 -73 114t-109 125zM15 2l285 472h-73q-51 0 -89 -27.5t-103 -124.5h-2l14 183q11 -5 27.5 -7.5t34.5 -2.5h392v-2l-282 -472h65q44 0 74 12t59 40q14 14 31 35.5
t59 80.5h2l-29 -189h-465v2z" />
    <glyph glyph-name="florin" unicode="&#x192;" horiz-adv-x="604" 
d="M33 -208q-76 0 -119.5 27t-43.5 75q0 34 24.5 56t61.5 22q21 0 40 -6t29 -16q-25 -4 -37.5 -22.5t-12.5 -50.5q0 -31 15.5 -50t42.5 -19q25 0 41 22.5t23 68.5l67 439h-87l4 23h86l20 129q16 106 80.5 163t169.5 57q77 0 120.5 -27t43.5 -77q0 -36 -25.5 -58.5
t-64.5 -22.5q-22 0 -40.5 6t-29.5 17q24 4 37 24t13 53t-14 51t-40 18t-41.5 -22.5t-22.5 -68.5l-37 -242h110l-4 -23h-109l-45 -295q-20 -125 -83.5 -188t-171.5 -63z" />
    <glyph glyph-name="Aringacute" unicode="&#x1fa;" horiz-adv-x="745" 
d="M284 822q0 -29 22.5 -49t55.5 -20t56 20t23 49t-23 49.5t-56 20.5t-55.5 -20.5t-22.5 -49.5zM327 1086h177q-24 -45 -66.5 -79.5t-149.5 -85.5h-5q22 36 31.5 72.5t12.5 92.5zM252 822q0 40 32.5 69t77.5 29q44 0 76.5 -29t32.5 -69t-32.5 -68.5t-76.5 -28.5
q-45 0 -77.5 28.5t-32.5 68.5zM400 235l-113 241l-108 -241h221zM119 77q0 -24 14 -43.5t41 -31.5v-2h-174v2q28 18 49.5 46.5t43.5 74.5l275 587h4l292 -598q24 -50 40 -71.5t41 -38.5v-2h-315v2q23 13 32.5 26t9.5 30q0 13 -3.5 26.5t-11.5 30.5l-43 91h-248l-34 -75
q-7 -15 -10 -28.5t-3 -25.5z" />
    <glyph glyph-name="aringacute" unicode="&#x1fb;" horiz-adv-x="565" 
d="M354 623q0 29 -23.5 49t-56.5 20t-55 -20t-22 -49q0 -30 22 -50t55 -20q34 0 57 20.5t23 49.5zM165 623q0 39 32.5 68t76.5 29q45 0 77.5 -29t32.5 -68q0 -40 -32.5 -69t-77.5 -29t-77 29t-32 69zM195 722q22 35 32 71.5t13 92.5h177q-24 -45 -67.5 -80t-148.5 -84h-6z
M562 35q6 0 12 1t11 3v-2q-19 -21 -52 -33.5t-69 -12.5q-57 0 -90.5 23t-40.5 66q0 2 -1 12.5t-1 13.5q-12 -52 -55.5 -82.5t-105.5 -30.5q-66 0 -107 33.5t-41 91.5q0 41 20 70t62 48q23 10 54 18.5t95 20.5l76 14v97q0 47 -19.5 74t-56.5 27q-33 0 -52 -20.5t-19 -55.5
q0 -30 12.5 -45.5t35.5 -15.5q4 0 9 0.5t10 2.5q-15 -29 -42.5 -44t-64.5 -15q-41 0 -68 23.5t-27 60.5q0 57 58 92t153 35q129 0 189 -42.5t60 -132.5v-33.5t-1 -55.5q-1 -41 -1 -63v-42q0 -59 13 -80t44 -21zM328 165l1 106l-42 -10q-47 -9 -69 -37.5t-22 -78.5
q0 -39 15 -61t43 -22q33 0 53.5 29t20.5 74z" />
    <glyph glyph-name="AEacute" unicode="&#x1fc;" horiz-adv-x="1079" 
d="M665 931h177q-31 -61 -85 -109.5t-131 -86.5h-5q20 34 30.5 81t13.5 115zM498 288v382l-251 -382h251zM123 69q0 -24 12 -41t36 -26v-2h-171v2q23 16 42 37.5t51 71.5l328 499q5 8 7.5 15.5t2.5 15.5q0 14 -11 26.5t-41 30.5v2h553q28 0 44 2t26 7l34 -194h-2
q-53 92 -104 125t-130 33h-114v-297h91q64 0 93.5 24t51.5 90h2v-252h-2q-21 64 -50 86.5t-95 22.5h-91v-320h130q76 0 129.5 35.5t113.5 141.5h2l-32 -204h-586v2q33 22 44 46t11 74v137h-270l-84 -128q-10 -16 -15.5 -31.5t-5.5 -30.5z" />
    <glyph glyph-name="aeacute" unicode="&#x1fd;" horiz-adv-x="838" 
d="M410 749h174q-30 -62 -84 -113t-131 -91h-6q21 37 32.5 87.5t14.5 116.5zM808 161l7 -3q-21 -79 -83 -123.5t-149 -44.5q-77 0 -138 34t-92 95q-23 -58 -71.5 -92t-111.5 -34q-66 0 -107 33.5t-41 91.5q0 41 20 70t62 47q22 10 52 18t97 20l76 14v99q0 47 -19.5 74
t-56.5 27q-33 0 -52 -20.5t-19 -55.5q0 -30 12.5 -45.5t35.5 -15.5q4 0 9 0.5t10 2.5q-15 -29 -42.5 -44t-64.5 -15q-41 0 -68 23.5t-27 60.5q0 57 58 92t153 35q57 0 96 -16.5t62 -49.5q35 32 78.5 49t89.5 17q111 0 173.5 -63t62.5 -172h-318q0 -91 44 -144.5t118 -53.5
q49 0 85.5 22.5t58.5 66.5zM583 488q-37 0 -57.5 -52t-22.5 -145h146q0 110 -15.5 153.5t-50.5 43.5zM329 169v100l-42 -9q-47 -10 -69 -38t-22 -77q0 -39 15 -61t43 -22q35 0 55 29t20 78z" />
    <glyph glyph-name="Oslashacute" unicode="&#x1fe;" horiz-adv-x="771" 
d="M386 690q-80 0 -117 -80.5t-37 -259.5q0 -41 1.5 -75.5t5.5 -63.5l289 309q-15 87 -49.5 128.5t-92.5 41.5zM386 10q80 0 116.5 80.5t36.5 259.5q0 41 -1.5 75t-5.5 62l-288 -308q14 -86 49 -127.5t93 -41.5zM745 350q0 -156 -101.5 -258t-257.5 -102q-69 0 -130.5 21.5
t-109.5 63.5l-81 -87l-20 16l82 88q-49 50 -75 116t-26 142q0 157 102 258.5t258 101.5q69 0 130.5 -21.5t109.5 -63.5l75 80l20 -17l-76 -81q49 -49 74.5 -115t25.5 -142zM350 931h177q-31 -61 -85 -109.5t-131 -86.5h-5q20 34 30.5 81t13.5 115z" />
    <glyph glyph-name="oslashacute" unicode="&#x1ff;" horiz-adv-x="588" 
d="M294 488q-44 0 -64.5 -57.5t-20.5 -182.5q0 -14 0.5 -29.5t1.5 -41.5l164 172q-7 71 -27 105t-54 34zM294 7q44 0 64.5 57.5t20.5 183.5q0 14 -0.5 28.5t-1.5 37.5l-163 -172q7 -68 26.5 -101.5t53.5 -33.5zM569 248q0 -113 -78.5 -185.5t-196.5 -72.5q-49 0 -93.5 13.5
t-80.5 40.5l-53 -56l-19 18l52 55q-39 34 -60 82.5t-21 104.5q0 112 78.5 184.5t196.5 72.5q50 0 94.5 -14.5t81.5 -41.5l53 56l19 -18l-52 -54q38 -35 58.5 -82.5t20.5 -102.5zM260 749h174q-30 -62 -84 -113t-131 -91h-6q21 37 32.5 87.5t14.5 116.5z" />
    <glyph glyph-name="Scommaaccent" unicode="&#x218;" horiz-adv-x="589" 
d="M290 -36q44 0 71.5 -28t27.5 -72q0 -65 -48 -101.5t-132 -37.5v16q58 5 89 24t35 53q-9 -8 -24 -12.5t-31 -4.5q-32 0 -54 23.5t-22 56.5q0 35 25.5 59t62.5 24zM289 690q-53 0 -86.5 -30t-33.5 -79q0 -46 32 -76t123 -59q80 -25 112 -40.5t55 -33.5q36 -29 54 -69.5
t18 -93.5q0 -98 -75.5 -158.5t-192.5 -60.5q-25 0 -51 3.5t-69 14.5q-27 7 -39.5 9t-21.5 2q-17 0 -33.5 -6.5t-36.5 -22.5l-18 232h2q51 -98 122 -155t144 -57q64 0 100 31.5t36 87.5q0 34 -17.5 60t-54.5 45q-11 6 -43 18t-83 30q-114 37 -157 87t-43 128q0 96 70.5 154.5
t186.5 58.5q23 0 46.5 -3.5t62.5 -13.5q26 -7 37.5 -9t20.5 -2q13 0 26 5.5t34 22.5l4 -202h-2q-57 99 -110 140.5t-119 41.5z" />
    <glyph glyph-name="scommaaccent" unicode="&#x219;" horiz-adv-x="473" 
d="M234 -36q44 0 71.5 -28t27.5 -72q0 -65 -48 -101.5t-132 -37.5v16q58 5 89 24t35 53q-9 -8 -24 -12.5t-31 -4.5q-32 0 -54 23.5t-22 56.5q0 35 25.5 59t62.5 24zM213 488q-33 0 -53.5 -17t-20.5 -45q0 -29 21.5 -46t101.5 -41q103 -33 143.5 -73.5t40.5 -109.5
q0 -75 -55.5 -120.5t-147.5 -45.5q-21 0 -42.5 2.5t-57.5 10.5q-23 5 -33.5 6.5t-18.5 1.5q-12 0 -22 -3.5t-29 -18.5l-11 183h2q45 -84 97 -124.5t115 -40.5q39 0 62 19t23 53q0 28 -19.5 45t-99.5 42q-96 30 -136.5 72.5t-40.5 111.5q0 68 51 111.5t130 43.5q19 0 37.5 -3
t50.5 -11q21 -6 31 -8t18 -2q14 0 26.5 5t29.5 20v-162h-2q-33 65 -85.5 104.5t-105.5 39.5z" />
    <glyph glyph-name="uni0237" unicode="&#x237;" horiz-adv-x="293" 
d="M240 495v-519q0 -97 -63.5 -151t-174.5 -54q-76 0 -121.5 27.5t-45.5 75.5q0 34 27 56t67 22q22 0 41 -5.5t30 -15.5q-24 -6 -37.5 -25.5t-13.5 -49.5q0 -33 14 -51t41 -18q29 0 43 23.5t14 73.5v500q-1 53 -10 71.5t-43 37.5v2h232z" />
    <glyph glyph-name="circumflex" unicode="&#x2c6;" 
d="M434 534h-10q-46 14 -91.5 36.5t-82.5 49.5q-37 -27 -82.5 -49.5t-91.5 -36.5h-10q57 57 108.5 124.5t73.5 114.5h4q22 -47 73.5 -114.5t108.5 -124.5z" />
    <glyph glyph-name="caron" unicode="&#x2c7;" 
d="M66 773h10q45 -14 90.5 -36t83.5 -49q38 27 83.5 49t90.5 36h10q-58 -58 -109 -125t-73 -114h-4q-22 47 -73 114t-109 125z" />
    <glyph glyph-name="breve" unicode="&#x2d8;" 
d="M405 759h5q0 -92 -44 -147.5t-116 -55.5t-116 55.5t-44 147.5h5q7 -41 51 -65.5t104 -24.5t104 24.5t51 65.5z" />
    <glyph glyph-name="dotaccent" unicode="&#x2d9;" 
d="M249 554q-42 0 -71 28t-29 68q0 41 28.5 68.5t71.5 27.5t72.5 -27.5t29.5 -68.5q0 -40 -29.5 -68t-72.5 -28z" />
    <glyph glyph-name="ring" unicode="&#x2da;" horiz-adv-x="501" 
d="M142 653q0 43 32 75t76 32t76 -31.5t32 -75.5q0 -45 -31.5 -76.5t-76.5 -31.5q-44 0 -76 32t-32 76zM173 653q0 -32 22.5 -54.5t54.5 -22.5t55 22.5t23 54.5q0 31 -23 53.5t-55 22.5q-31 0 -54 -22.5t-23 -53.5z" />
    <glyph glyph-name="ogonek" unicode="&#x2db;" 
d="M245 -241q-46 0 -77 26t-31 66q0 29 16.5 54t51.5 49q10 7 38 23t74 41l5 -7q-41 -29 -61.5 -59.5t-20.5 -62.5q0 -30 16.5 -47.5t44.5 -17.5q29 0 49.5 11.5t40.5 37.5l3 -2q-22 -57 -58.5 -84.5t-90.5 -27.5z" />
    <glyph glyph-name="tilde" unicode="&#x2dc;" 
d="M433 739h5q-6 -79 -38.5 -125.5t-81.5 -46.5q-19 0 -37.5 5t-51.5 22q-30 15 -45.5 19.5t-30.5 4.5q-30 0 -51.5 -14.5t-34.5 -44.5h-5q6 78 38.5 124.5t81.5 46.5q19 0 37.5 -5t51.5 -22q30 -15 45.5 -19.5t30.5 -4.5q30 0 51.5 15t34.5 45z" />
    <glyph glyph-name="hungarumlaut" unicode="&#x2dd;" 
d="M100 749h160q-34 -69 -83 -118t-120 -86h-5q21 38 33 89t15 115zM288 749h160q-34 -69 -82.5 -118t-119.5 -86h-6q21 38 33 89t15 115z" />
    <glyph glyph-name="Wgrave" unicode="&#x1e80;" horiz-adv-x="985" 
d="M359 931h177q2 -66 13 -113.5t31 -82.5h-6q-78 38 -131.5 87t-83.5 109zM676 -10h-5l-176 457l-180 -457h-5l-243 598q-17 42 -33 66t-41 44v2h298v-2q-21 -13 -30.5 -27t-9.5 -31q0 -12 3 -25.5t9 -29.5l130 -329l87 228l-40 104q-17 43 -32.5 66.5t-40.5 43.5v2h293v-2
q-21 -13 -30.5 -27t-9.5 -31q0 -10 2.5 -22t9.5 -33l118 -334l121 322q4 12 6 22.5t2 19.5q0 26 -14 47t-41 36v2h170v-2q-29 -22 -50 -51.5t-36 -68.5z" />
    <glyph glyph-name="wgrave" unicode="&#x1e81;" horiz-adv-x="788" 
d="M544 -10h-2l-136 322l-156 -322h-2l-185 397q-22 47 -35 66.5t-36 39.5v2h258v-2q-12 -10 -17 -20t-5 -25q0 -11 3.5 -23.5t11.5 -32.5l86 -188l65 136l-20 47q-22 46 -35 65.5t-37 40.5v2h261v-2q-16 -10 -23 -20.5t-7 -25.5q0 -8 2.5 -18.5t11.5 -36.5l68 -181l74 176
q4 10 6.5 20t2.5 20q0 23 -13.5 40t-37.5 26v2h149v-2q-29 -24 -43.5 -44.5t-33.5 -62.5zM244 749h175q2 -64 13.5 -115t32.5 -89h-5q-78 40 -132 91t-84 113z" />
    <glyph glyph-name="Wacute" unicode="&#x1e82;" horiz-adv-x="985" 
d="M466 931h177q-31 -61 -85 -109.5t-131 -86.5h-5q20 34 30.5 81t13.5 115zM676 -10h-5l-176 457l-180 -457h-5l-243 598q-17 42 -33 66t-41 44v2h298v-2q-21 -13 -30.5 -27t-9.5 -31q0 -12 3 -25.5t9 -29.5l130 -329l87 228l-40 104q-17 43 -32.5 66.5t-40.5 43.5v2h293
v-2q-21 -13 -30.5 -27t-9.5 -31q0 -10 2.5 -22t9.5 -33l118 -334l121 322q4 12 6 22.5t2 19.5q0 26 -14 47t-41 36v2h170v-2q-29 -22 -50 -51.5t-36 -68.5z" />
    <glyph glyph-name="wacute" unicode="&#x1e83;" horiz-adv-x="788" 
d="M367 749h174q-30 -62 -84 -113t-131 -91h-6q21 37 32.5 87.5t14.5 116.5zM544 -10h-2l-136 322l-156 -322h-2l-185 397q-22 47 -35 66.5t-36 39.5v2h258v-2q-12 -10 -17 -20t-5 -25q0 -11 3.5 -23.5t11.5 -32.5l86 -188l65 136l-20 47q-22 46 -35 65.5t-37 40.5v2h261v-2
q-16 -10 -23 -20.5t-7 -25.5q0 -8 2.5 -18.5t11.5 -36.5l68 -181l74 176q4 10 6.5 20t2.5 20q0 23 -13.5 40t-37.5 26v2h149v-2q-29 -24 -43.5 -44.5t-33.5 -62.5z" />
    <glyph glyph-name="Wdieresis" unicode="&#x1e84;" horiz-adv-x="985" 
d="M484 833q0 -36 -26 -62t-62 -26t-61.5 26t-25.5 62q0 37 25.5 63.5t61.5 26.5t62 -26.5t26 -63.5zM695 833q0 -36 -26 -62t-62 -26q-37 0 -63 26t-26 62q0 37 26 63.5t63 26.5q36 0 62 -26.5t26 -63.5zM676 -10h-5l-176 457l-180 -457h-5l-243 598q-17 42 -33 66t-41 44
v2h298v-2q-21 -13 -30.5 -27t-9.5 -31q0 -12 3 -25.5t9 -29.5l130 -329l87 228l-40 104q-17 43 -32.5 66.5t-40.5 43.5v2h293v-2q-21 -13 -30.5 -27t-9.5 -31q0 -10 2.5 -22t9.5 -33l118 -334l121 322q4 12 6 22.5t2 19.5q0 26 -14 47t-41 36v2h170v-2q-29 -22 -50 -51.5
t-36 -68.5z" />
    <glyph glyph-name="wdieresis" unicode="&#x1e85;" horiz-adv-x="788" 
d="M383 641q0 -36 -26 -62t-62 -26t-61.5 26t-25.5 62q0 37 25.5 63.5t61.5 26.5t62 -26.5t26 -63.5zM594 641q0 -36 -26 -62t-62 -26q-37 0 -63 26t-26 62q0 37 26 63.5t63 26.5q36 0 62 -26.5t26 -63.5zM544 -10h-2l-136 322l-156 -322h-2l-185 397q-22 47 -35 66.5
t-36 39.5v2h258v-2q-12 -10 -17 -20t-5 -25q0 -11 3.5 -23.5t11.5 -32.5l86 -188l65 136l-20 47q-22 46 -35 65.5t-37 40.5v2h261v-2q-16 -10 -23 -20.5t-7 -25.5q0 -8 2.5 -18.5t11.5 -36.5l68 -181l74 176q4 10 6.5 20t2.5 20q0 23 -13.5 40t-37.5 26v2h149v-2
q-29 -24 -43.5 -44.5t-33.5 -62.5z" />
    <glyph glyph-name="Ygrave" unicode="&#x1ef2;" horiz-adv-x="707" 
d="M282 593l148 -258l147 245q8 14 11.5 25.5t3.5 22.5q0 22 -12.5 39.5t-36.5 30.5v2h170v-2q-29 -20 -51 -45.5t-47 -67.5l-175 -290v-176q0 -48 11 -71.5t46 -45.5v-2h-293v2q35 22 46 45.5t11 71.5v176l-178 293q-25 42 -44 65.5t-46 44.5v2h312v-2q-21 -16 -29 -29
t-8 -30q0 -11 3.5 -22.5t10.5 -23.5zM235 931h177q2 -66 13 -113.5t31 -82.5h-6q-78 38 -131.5 87t-83.5 109z" />
    <glyph glyph-name="ygrave" unicode="&#x1ef3;" horiz-adv-x="544" 
d="M172 -156q27 0 47 17t37 56l23 50l-213 420q-23 46 -36 64.5t-38 41.5v2h273v-2q-15 -10 -21.5 -20t-6.5 -25q0 -12 4 -26.5t11 -29.5l106 -221l85 208q5 12 7.5 23.5t2.5 22.5q0 24 -13 41.5t-38 26.5v2h150v-2q-29 -23 -44.5 -45.5t-32.5 -65.5l-204 -488
q-27 -65 -60 -94t-80 -29t-75.5 25.5t-28.5 67.5q0 39 24 62.5t62 23.5q9 0 15 -1t14 -3q-13 -8 -19.5 -19.5t-6.5 -27.5q0 -24 16 -39.5t40 -15.5zM138 749h175q2 -64 13.5 -115t32.5 -89h-5q-78 40 -132 91t-84 113z" />
    <glyph glyph-name="endash" unicode="&#x2013;" horiz-adv-x="496" 
d="M458 261h-420v48h420v-48z" />
    <glyph glyph-name="emdash" unicode="&#x2014;" horiz-adv-x="796" 
d="M758 261h-720v48h720v-48z" />
    <glyph glyph-name="quoteleft" unicode="&#x2018;" horiz-adv-x="246" 
d="M79 577q9 10 24.5 16t35.5 6q35 0 58 -23.5t23 -59.5q0 -39 -27 -64.5t-67 -25.5q-47 0 -76.5 32.5t-29.5 84.5q0 82 58 131.5t149 48.5v-16q-72 -4 -111.5 -38t-36.5 -92z" />
    <glyph glyph-name="quoteright" unicode="&#x2019;" horiz-adv-x="246" 
d="M167 573q-9 -10 -24.5 -16t-35.5 -6q-35 0 -58 23.5t-23 59.5q0 39 27 64.5t67 25.5q47 0 76.5 -32.5t29.5 -84.5q0 -82 -58 -131.5t-149 -48.5v16q72 4 111.5 38t36.5 92z" />
    <glyph glyph-name="quotesinglbase" unicode="&#x201a;" horiz-adv-x="246" 
d="M167 24q-9 -10 -24.5 -16t-35.5 -6q-35 0 -58 23.5t-23 59.5q0 39 27 64.5t67 25.5q47 0 76.5 -32.5t29.5 -84.5q0 -82 -58 -131.5t-149 -48.5v16q72 4 111.5 38t36.5 92z" />
    <glyph glyph-name="quotedblleft" unicode="&#x201c;" horiz-adv-x="478" 
d="M79 577q9 10 24.5 16t35.5 6q35 0 58 -23.5t23 -59.5q0 -39 -27 -64.5t-67 -25.5q-47 0 -76.5 32.5t-29.5 84.5q0 82 58 131.5t149 48.5v-16q-72 -4 -111.5 -38t-36.5 -92zM311 577q9 10 24.5 16t35.5 6q35 0 58 -23.5t23 -59.5q0 -39 -27 -64.5t-67 -25.5
q-47 0 -76.5 32.5t-29.5 84.5q0 82 58 131.5t149 48.5v-16q-72 -4 -111.5 -38t-36.5 -92z" />
    <glyph glyph-name="quotedblright" unicode="&#x201d;" horiz-adv-x="478" 
d="M167 573q-9 -10 -24.5 -16t-35.5 -6q-35 0 -58 23.5t-23 59.5q0 39 27 64.5t67 25.5q47 0 76.5 -32.5t29.5 -84.5q0 -82 -58 -131.5t-149 -48.5v16q72 4 111.5 38t36.5 92zM399 573q-9 -10 -24.5 -16t-35.5 -6q-35 0 -58 23.5t-23 59.5q0 39 27 64.5t67 25.5
q47 0 76.5 -32.5t29.5 -84.5q0 -82 -58 -131.5t-149 -48.5v16q72 4 111.5 38t36.5 92z" />
    <glyph glyph-name="quotedblbase" unicode="&#x201e;" horiz-adv-x="478" 
d="M167 24q-9 -10 -24.5 -16t-35.5 -6q-35 0 -58 23.5t-23 59.5q0 39 27 64.5t67 25.5q47 0 76.5 -32.5t29.5 -84.5q0 -82 -58 -131.5t-149 -48.5v16q72 4 111.5 38t36.5 92zM399 24q-9 -10 -24.5 -16t-35.5 -6q-35 0 -58 23.5t-23 59.5q0 39 27 64.5t67 25.5
q47 0 76.5 -32.5t29.5 -84.5q0 -82 -58 -131.5t-149 -48.5v16q72 4 111.5 38t36.5 92z" />
    <glyph glyph-name="dagger" unicode="&#x2020;" horiz-adv-x="457" 
d="M311 584q-10 -3 -17.5 -13.5t-10.5 -22.5q-10 -39 -18.5 -83.5t-15.5 -95.5q-8 -50 -12 -96t-5 -87h-8q-1 41 -5 87t-11 96q-7 51 -15.5 95.5t-18.5 83.5q-3 13 -11 23t-18 13q-8 -27 -25 -43.5t-38 -16.5q-20 0 -32.5 12.5t-12.5 32.5q0 17 12 31t31 19q3 -14 9.5 -21.5
t17.5 -7.5q4 0 9 1t14 4t14.5 4t10.5 1q17 0 37 -12.5t29 -27.5q-5 40 -21.5 78t-42.5 71q12 18 31 29t40 11t40 -11t31 -29q-27 -35 -43 -72.5t-20 -76.5q9 15 29 27.5t36 12.5q5 0 10.5 -1t15.5 -4q9 -3 13.5 -4t8.5 -1q11 0 18 7t10 22q19 -5 31 -19t12 -31
q0 -20 -12.5 -32.5t-32.5 -12.5q-21 0 -38.5 16.5t-25.5 43.5z" />
    <glyph glyph-name="daggerdbl" unicode="&#x2021;" horiz-adv-x="457" 
d="M316 625q-22 -17 -49 -68.5t-36 -98.5h-5q-9 46 -36 97.5t-49 69.5q-8 -28 -24 -44.5t-35 -16.5q-20 0 -32.5 12t-12.5 33q0 17 12 31t31 19q3 -15 9.5 -22.5t17.5 -7.5q4 0 9 1t14 4t14.5 4t10.5 1q19 0 39.5 -10t28.5 -23q-4 30 -17.5 52t-48.5 50q11 19 30.5 30
t40.5 11t40.5 -11t30.5 -30q-34 -28 -47.5 -50t-17.5 -52q8 13 28.5 23t38.5 10q5 0 10.5 -1t15.5 -4q9 -3 13.5 -4t8.5 -1q11 0 18 7.5t10 22.5q19 -5 31 -19t12 -31q0 -21 -12.5 -33t-32.5 -12t-35.5 16t-23.5 45zM226 440h5q9 -46 36 -98t49 -70q8 29 23.5 45.5
t35.5 16.5t32.5 -12.5t12.5 -32.5q0 -17 -12 -31t-31 -19q-3 15 -10 22t-18 7q-4 0 -8.5 -1t-13.5 -4q-10 -3 -15.5 -4t-10.5 -1q-18 0 -38.5 10t-28.5 23q4 -30 18 -52t47 -50q-11 -18 -30.5 -29.5t-40.5 -11.5t-40.5 11.5t-30.5 29.5q34 27 48 49.5t18 52.5
q-8 -13 -28.5 -23t-39.5 -10q-5 0 -10.5 1t-14.5 4t-14 4t-9 1q-11 0 -17.5 -7.5t-9.5 -21.5q-19 5 -31 19t-12 31q0 20 12.5 32.5t32.5 12.5q19 0 35 -16.5t24 -45.5q22 19 49 71t36 97z" />
    <glyph glyph-name="bullet" unicode="&#x2022;" horiz-adv-x="388" 
d="M194 123q-64 0 -110 46t-46 110q0 65 46 111t110 46q65 0 110.5 -46t45.5 -111q0 -64 -46 -110t-110 -46z" />
    <glyph glyph-name="ellipsis" unicode="&#x2026;" horiz-adv-x="709" 
d="M584 194q42 0 71 -29.5t29 -71.5t-29 -71.5t-71 -29.5t-71 29.5t-29 71.5t29 71.5t71 29.5zM354 194q42 0 71 -29.5t29 -71.5t-29 -71.5t-71 -29.5t-71 29.5t-29 71.5t29 71.5t71 29.5zM124 194q42 0 71 -29.5t29 -71.5t-29 -71.5t-71 -29.5t-71 29.5t-29 71.5t29 71.5
t71 29.5z" />
    <glyph glyph-name="perthousand" unicode="&#x2030;" horiz-adv-x="1052" 
d="M554 710l-388 -710h-47l395 675q-23 -21 -59 -34t-72 -13q-15 0 -30 2.5t-38 8.5q14 -20 21.5 -42t7.5 -46q0 -66 -47.5 -112t-114.5 -46q-66 0 -114 46t-48 112t48 112t114 46q21 0 40.5 -5.5t53.5 -22.5q37 -18 59.5 -24t47.5 -6q46 0 82 14.5t77 53.5zM133 551
q0 -78 11.5 -109.5t37.5 -31.5q27 0 38.5 31.5t11.5 109.5t-11.5 109.5t-38.5 31.5q-26 0 -37.5 -31.5t-11.5 -109.5zM870 312q67 0 114.5 -46.5t47.5 -112.5t-48 -112t-114 -46t-114 46.5t-48 111.5q0 66 48 112.5t114 46.5zM677 153q0 -66 -48 -112t-114 -46t-114 46.5
t-48 111.5q0 66 48 112.5t114 46.5q67 0 114.5 -46.5t47.5 -112.5zM821 153q0 -77 11.5 -108.5t37.5 -31.5q27 0 38.5 31.5t11.5 108.5q0 78 -11.5 109.5t-38.5 31.5q-26 0 -37.5 -31.5t-11.5 -109.5zM466 153q0 -79 11.5 -109.5t37.5 -30.5q27 0 38.5 31.5t11.5 108.5
q0 78 -11.5 109.5t-38.5 31.5q-26 0 -37.5 -31t-11.5 -110z" />
    <glyph glyph-name="guilsinglleft" unicode="&#x2039;" horiz-adv-x="308" 
d="M18 242v4q71 35 141.5 89.5t119.5 112.5h4q-19 -58 -45.5 -111t-55.5 -93q29 -40 55.5 -93t45.5 -111h-4q-49 58 -119.5 112.5t-141.5 89.5z" />
    <glyph glyph-name="guilsinglright" unicode="&#x203a;" horiz-adv-x="308" 
d="M294 246v-4q-71 -35 -141.5 -89.5t-119.5 -112.5h-4q19 58 45.5 111t55.5 93q-29 40 -55.5 93t-45.5 111h4q49 -58 119.5 -112.5t141.5 -89.5z" />
    <glyph glyph-name="fraction" unicode="&#x2044;" horiz-adv-x="353" 
d="M35 -123h-35l298 872h35z" />
    <glyph glyph-name="Euro" unicode="&#x20ac;" horiz-adv-x="657" 
d="M631 210h5q-18 -105 -87 -162.5t-176 -57.5q-120 0 -200.5 83.5t-91.5 220.5h-58v22h57v8v8q0 15 1 30t2 29h-60v23h64q23 135 112.5 215.5t220.5 80.5q88 0 146 -39t58 -102q0 -42 -27 -67.5t-70 -25.5q-30 0 -54 13.5t-35 36.5q3 -1 5.5 -1h7.5q29 0 45.5 20.5
t16.5 54.5q0 44 -24 68t-69 24q-67 0 -108 -74t-48 -204h195l-9 -23h-187v-13.5v-13.5q0 -9 0.5 -20t1.5 -28h163l-8 -22h-153q13 -103 61 -159.5t122 -56.5q66 0 110 32t71 100z" />
    <glyph glyph-name="trademark" unicode="&#x2122;" horiz-adv-x="889" 
d="M69 700h270q9 0 15 0.5t11 2.5l13 -115h-4q-29 55 -49.5 73.5t-45.5 18.5h-23v-236q0 -16 4.5 -25.5t25.5 -25.5v-2h-163v2q21 16 25.5 25.5t4.5 25.5v236h-24q-25 0 -46 -19.5t-48 -72.5h-4l12 115q6 -2 11.5 -2.5t14.5 -0.5zM543 700l76 -167l74 167h130v-2
q-19 -14 -23 -22t-4 -26v-208q0 -17 3.5 -25.5t23.5 -23.5v-2h-150v2q14 11 17.5 18.5t3.5 30.5v214l-120 -268h-2l-117 268v-214q0 -17 3.5 -25.5t23.5 -23.5v-2h-79v2q20 15 23.5 23.5t3.5 25.5v203q0 20 -5 30.5t-22 22.5v2h140z" />
    <glyph glyph-name="uni2153" unicode="&#x2153;" horiz-adv-x="405" 
d="M155 448v214q0 13 -7 18.5t-39 14.5v5h141v-252q0 -13 7 -18.5t39 -14.5v-5h-186v5q32 9 38.5 14.5t6.5 18.5zM20 342v16h365v-16h-365zM159 60q0 -22 10.5 -35.5t27.5 -13.5q16 0 26 18.5t10 49.5q0 36 -12 53.5t-37 17.5v9q22 1 32 17t10 50q0 27 -7 40t-22 13
q-14 0 -23 -11t-9 -30q0 -17 6 -27.5t16 -10.5q3 0 4.5 0.5t3.5 1.5l3 -1q-5 -10 -17 -15.5t-29 -5.5q-23 0 -37.5 13.5t-14.5 34.5q0 30 27 48t70 18q53 0 85.5 -19.5t32.5 -52.5q0 -28 -21.5 -45t-59.5 -20q44 -3 68 -23t24 -55q0 -39 -35 -61t-94 -22q-51 0 -81.5 19.5
t-30.5 53.5q0 24 16 38.5t43 14.5q18 0 30 -5.5t18 -15.5l-2 -2q-2 2 -4.5 2.5t-4.5 0.5q-11 0 -16.5 -11t-5.5 -31z" />
    <glyph glyph-name="uni2154" unicode="&#x2154;" horiz-adv-x="405" 
d="M227 640q0 23 -10 36t-28 13q-19 0 -30 -11.5t-11 -31.5t9 -31.5t23 -11.5q7 0 10.5 1.5t7.5 5.5h3q-6 -20 -20.5 -30t-35.5 -10q-25 0 -40.5 16t-15.5 41q0 35 27.5 56t72.5 21q60 0 93 -22.5t33 -64.5q0 -41 -35 -73t-121 -64h78q35 0 49.5 6.5t29.5 26.5h4l-11 -103
h-229v3q96 99 121.5 140t25.5 87zM20 342v16h365v-16h-365zM159 60q0 -22 10.5 -35.5t27.5 -13.5q16 0 26 18.5t10 49.5q0 36 -12 53.5t-37 17.5v9q22 1 32 17t10 50q0 27 -7 40t-22 13q-14 0 -23 -11t-9 -30q0 -17 6 -27.5t16 -10.5q3 0 4.5 0.5t3.5 1.5l3 -1
q-5 -10 -17 -15.5t-29 -5.5q-23 0 -37.5 13.5t-14.5 34.5q0 30 27 48t70 18q53 0 85.5 -19.5t32.5 -52.5q0 -28 -21.5 -45t-59.5 -20q44 -3 68 -23t24 -55q0 -39 -35 -61t-94 -22q-51 0 -81.5 19.5t-30.5 53.5q0 24 16 38.5t43 14.5q18 0 30 -5.5t18 -15.5l-2 -2
q-2 2 -4.5 2.5t-4.5 0.5q-11 0 -16.5 -11t-5.5 -31z" />
    <glyph glyph-name="uni215B" unicode="&#x215b;" horiz-adv-x="405" 
d="M159 448v214q0 12 -7 18t-40 15v5h142v-252q0 -13 7 -18.5t39 -14.5v-5h-187v5q32 9 39 14.5t7 18.5zM20 342v16h365v-16h-365zM306 234q0 -19 -17 -32t-43 -15q40 -13 61 -37t21 -57q0 -45 -33 -71t-87 -26t-88 19t-34 51q0 22 16.5 36.5t48.5 19.5q-24 10 -39 31.5
t-15 48.5q0 42 30 67t78 25q45 0 73 -16t28 -44zM205 280q-20 0 -31.5 -9t-11.5 -25q1 -14 9 -23t27 -16l43 -18q8 10 12 20.5t4 23.5q0 22 -14 34.5t-38 12.5zM214 96l-58 23q-9 -8 -13 -19t-4 -26q0 -27 19.5 -45t49.5 -18q23 0 37.5 10.5t14.5 27.5q0 15 -8 24t-38 23z
" />
    <glyph glyph-name="uni215C" unicode="&#x215c;" horiz-adv-x="405" 
d="M162 470q0 -22 10.5 -35.5t27.5 -13.5t26.5 18.5t9.5 49.5q0 37 -12 54t-37 17v9q22 1 32 17t10 50q0 27 -7 40t-21 13t-23 -11t-9 -30q0 -18 5.5 -28t15.5 -10q4 0 5.5 0.5t3.5 1.5l2 -1q-5 -10 -17 -15.5t-28 -5.5q-24 0 -38.5 13.5t-14.5 34.5q0 31 27 48.5t71 17.5
q52 0 84.5 -19.5t32.5 -52.5q0 -28 -21.5 -45t-59.5 -20q44 -3 68 -23t24 -55q0 -39 -35 -61t-94 -22q-50 0 -81 19.5t-31 53.5q0 24 16.5 38.5t42.5 14.5q18 0 31 -5.5t18 -15.5l-3 -2q-1 1 -3.5 2t-4.5 1q-11 0 -17 -11t-6 -31zM20 342v16h365v-16h-365zM306 234
q0 -19 -17 -32t-43 -15q40 -13 61 -37t21 -57q0 -45 -33 -71t-87 -26t-88 19t-34 51q0 22 16.5 36.5t48.5 19.5q-24 10 -39 31.5t-15 48.5q0 42 30 67t78 25q45 0 73 -16t28 -44zM205 280q-20 0 -31.5 -9t-11.5 -25q1 -14 9 -23t27 -16l43 -18q8 10 12 20.5t4 23.5
q0 22 -14 34.5t-38 12.5zM214 96l-58 23q-9 -8 -13 -19t-4 -26q0 -27 19.5 -45t49.5 -18q23 0 37.5 10.5t14.5 27.5q0 15 -8 24t-38 23z" />
    <glyph glyph-name="uni215D" unicode="&#x215d;" horiz-adv-x="405" 
d="M218 599q48 0 77 -24.5t29 -64.5q0 -48 -36 -76t-94 -28q-49 0 -78 18.5t-29 51.5q0 24 15.5 38.5t41.5 14.5q17 0 30 -6.5t19 -16.5h-4q-2 1 -4 1.5t-4 0.5q-11 0 -17 -11t-6 -31q0 -21 9.5 -33t26.5 -12q18 0 28 21t10 57q0 35 -13.5 55t-38.5 20q-13 0 -26.5 -6.5
t-24.5 -18.5h-3l19 155q21 -3 48 -4.5t48 -1.5q32 0 46.5 4t25.5 14h2q0 -49 -18 -69.5t-59 -20.5q-18 0 -44 5t-42 12l-8 -67q15 12 33 17.5t41 5.5zM20 342v16h365v-16h-365zM306 234q0 -19 -17 -32t-43 -15q40 -13 61 -37t21 -57q0 -45 -33 -71t-87 -26t-88 19t-34 51
q0 22 16.5 36.5t48.5 19.5q-24 10 -39 31.5t-15 48.5q0 42 30 67t78 25q45 0 73 -16t28 -44zM205 280q-20 0 -31.5 -9t-11.5 -25q1 -14 9 -23t27 -16l43 -18q8 10 12 20.5t4 23.5q0 22 -14 34.5t-38 12.5zM214 96l-58 23q-9 -8 -13 -19t-4 -26q0 -27 19.5 -45t49.5 -18
q23 0 37.5 10.5t14.5 27.5q0 15 -8 24t-38 23z" />
    <glyph glyph-name="uni215E" unicode="&#x215e;" horiz-adv-x="405" 
d="M110 573h-4l9 127h218v-1l-64 -104q-20 -32 -25 -83.5t7 -97.5l-95 -10q4 45 24 87.5t71 105.5l15 18h-108q-16 0 -25.5 -8t-22.5 -34zM20 342v16h365v-16h-365zM306 234q0 -19 -17 -32t-43 -15q40 -13 61 -37t21 -57q0 -45 -33 -71t-87 -26t-88 19t-34 51
q0 22 16.5 36.5t48.5 19.5q-24 10 -39 31.5t-15 48.5q0 42 30 67t78 25q45 0 73 -16t28 -44zM205 280q-20 0 -31.5 -9t-11.5 -25q1 -14 9 -23t27 -16l43 -18q8 10 12 20.5t4 23.5q0 22 -14 34.5t-38 12.5zM214 96l-58 23q-9 -8 -13 -19t-4 -26q0 -27 19.5 -45t49.5 -18
q23 0 37.5 10.5t14.5 27.5q0 15 -8 24t-38 23z" />
    <glyph glyph-name="minus" unicode="&#x2212;" horiz-adv-x="479" 
d="M435 307h-391v30h391v-30z" />
    <glyph glyph-name="approxequal" unicode="&#x2248;" horiz-adv-x="484" 
d="M151 388q-24 0 -50 -14t-55 -43v38q26 26 52 39t53 13q18 0 37.5 -5.5t54.5 -23.5q34 -17 52 -22t35 -5q26 0 53.5 14.5t54.5 42.5v-37q-26 -26 -53 -39.5t-55 -13.5q-18 0 -37 5.5t-54 22.5q-34 17 -52.5 22.5t-35.5 5.5zM151 280q-25 0 -51 -14.5t-54 -42.5v38
q26 26 52 39t53 13q18 0 37.5 -5.5t54.5 -23.5q34 -17 52 -22t35 -5q26 0 53.5 14.5t54.5 43.5v-38q-26 -26 -53 -39.5t-55 -13.5q-18 0 -37 5.5t-54 22.5q-34 17 -52.5 22.5t-35.5 5.5z" />
    <glyph glyph-name="notequal" unicode="&#x2260;" horiz-adv-x="484" 
d="M438 273v-29h-241l-80 -99h-37l80 99h-114v29h138l81 100h-219v29h242l79 97h37l-79 -97h113v-29h-136l-81 -100h217z" />
    <glyph glyph-name="lessequal" unicode="&#x2264;" horiz-adv-x="351" 
d="M311 218l-285 125v20l285 125v-33l-235 -102l235 -102v-33zM311 139h-285v29h285v-29z" />
    <glyph glyph-name="greaterequal" unicode="&#x2265;" horiz-adv-x="351" 
d="M40 488l285 -125v-20l-285 -125v33l235 102l-235 102v33zM40 168h285v-29h-285v29z" />
    <glyph glyph-name="commaaccent" unicode="&#xf6c3;" 
d="M246 -36q44 0 71.5 -28t27.5 -72q0 -65 -48 -101.5t-132 -37.5v16q58 5 89 24t35 53q-9 -8 -24 -12.5t-31 -4.5q-32 0 -54 23.5t-22 56.5q0 35 25.5 59t62.5 24z" />
    <glyph glyph-name="_230" 
 />
    <glyph glyph-name="thinspace" horiz-adv-x="40" 
 />
    <glyph glyph-name="idotaccent" horiz-adv-x="309" 
d="M15 495h232v-386q0 -53 8 -70.5t39 -36.5v-2h-273v2q31 19 39 36.5t8 70.5v275q0 52 -9 70.5t-44 38.5v2zM153 554q-42 0 -71 28t-29 68q0 41 28.5 68.5t71.5 27.5t72.5 -27.5t29.5 -68.5q0 -40 -29.5 -68t-72.5 -28z" />
    <glyph glyph-name="f_idieresis" horiz-adv-x="609" 
d="M670 641q0 -36 -25.5 -62t-61.5 -26q-37 0 -63 26t-26 62q0 37 26 63.5t63 26.5q36 0 61.5 -26.5t25.5 -63.5zM311 741q-32 0 -48 -29t-16 -86v-131h326v-386q0 -53 8 -70.5t39 -36.5v-2h-272v2q30 19 38 36.5t8 70.5v320q0 22 -9.5 31.5t-31.5 9.5h-106v-361
q0 -47 10 -66.5t47 -40.5v-2h-283v2q31 19 39 36.5t8 70.5v361h-58v11l58 22v23q0 106 66 168.5t178 62.5q69 0 108.5 -30t39.5 -83q0 -39 -24 -64.5t-63 -25.5q-20 0 -38 7t-32 20q28 7 43 31t15 61q0 31 -13.5 49.5t-36.5 18.5z" />
    <glyph glyph-name="f_f_idieresis" horiz-adv-x="962" 
d="M991 641q0 -36 -26 -62t-62 -26t-62 26t-26 62q0 37 26 63.5t62 26.5t62 -26.5t26 -63.5zM247 622v-127h147v31q0 7 0.5 15t1.5 20q-20 1 -36 6.5t-25 14.5q22 6 34 24.5t12 47.5q0 36 -15 56t-44 20q-36 0 -55.5 -28t-19.5 -80zM304 2v-2h-283v2q31 19 39 36.5t8 70.5
v361h-58v11l58 22v16q0 107 68 167t186 60q44 0 80.5 -14t56.5 -39q32 31 78 47.5t102 16.5q68 0 108 -30.5t40 -82.5q0 -39 -24.5 -64.5t-62.5 -25.5q-20 0 -38 7t-33 20q28 7 43.5 30.5t15.5 61.5q0 32 -13.5 50t-37.5 18q-32 0 -48 -29t-16 -86v-131h327v-386
q0 -53 8 -70.5t38 -36.5v-2h-272v2q31 19 39 36.5t8 70.5v320q0 22 -10 31.5t-32 9.5h-106v-361q0 -46 10 -65.5t47 -41.5v-2h-282v2q30 19 38 36.5t8 70.5v361h-147v-361q0 -47 10 -66.5t47 -40.5z" />
    <glyph glyph-name="caron.Slovak" 
d="M212 749h144q-16 -67 -57 -126t-98 -98h-3q10 51 14 110t0 114z" />
    <glyph glyph-name="commaturn" 
d="M254 545q-44 0 -71.5 28t-27.5 72q0 64 48 100.5t132 37.5v-16q-58 -5 -89 -24t-35 -53q9 8 24.5 12.5t31.5 4.5q31 0 53 -23.5t22 -56.5q0 -35 -25.5 -58.5t-62.5 -23.5z" />
    <glyph glyph-name="dotbelow" 
d="M249 -234q-43 0 -71.5 27.5t-28.5 68.5t28.5 68t71.5 27t72.5 -27.5t29.5 -67.5t-29.5 -68t-72.5 -28z" />
    <glyph glyph-name="grave.cap" 
d="M140 931h177q2 -66 13 -113.5t31 -82.5h-6q-78 38 -131.5 87t-83.5 109z" />
    <glyph glyph-name="acute.cap" 
d="M184 931h177q-31 -61 -85 -109.5t-131 -86.5h-5q20 34 30.5 81t13.5 115z" />
    <glyph glyph-name="circumflex.cap" 
d="M467 728h-11q-46 13 -90.5 34t-82.5 47q-37 -26 -82.5 -47t-91.5 -34h-11q57 55 109 120.5t74 112.5h4q21 -47 72.5 -112.5t109.5 -120.5z" />
    <glyph glyph-name="tilde.cap" 
d="M433 929h5q-6 -79 -38.5 -125.5t-81.5 -46.5q-19 0 -37.5 5t-51.5 22q-30 15 -45.5 19.5t-30.5 4.5q-30 0 -51.5 -14.5t-34.5 -44.5h-5q6 78 38.5 124.5t81.5 46.5q19 0 37.5 -5t51.5 -22q30 -15 45.5 -19.5t30.5 -4.5q30 0 51.5 15t34.5 45z" />
    <glyph glyph-name="macron.cap" 
d="M411 821v-38h-309v38h309z" />
    <glyph glyph-name="breve.cap" 
d="M405 935h6q-1 -90 -45 -144t-116 -54t-116 54t-44 144h5q7 -39 51.5 -62t103.5 -23t103.5 23t51.5 62z" />
    <glyph glyph-name="dotaccent.cap" 
d="M249 741q-42 0 -71 28t-29 68q0 41 28.5 68.5t71.5 27.5t72.5 -27.5t29.5 -68.5q0 -40 -29.5 -68t-72.5 -28z" />
    <glyph glyph-name="dieresis.cap" 
d="M232 833q0 -36 -26 -62t-62 -26t-61.5 26t-25.5 62q0 37 25.5 63.5t61.5 26.5t62 -26.5t26 -63.5zM443 833q0 -36 -26 -62t-62 -26q-37 0 -63 26t-26 62q0 37 26 63.5t63 26.5q36 0 62 -26.5t26 -63.5z" />
    <glyph glyph-name="ring.cap" horiz-adv-x="501" 
d="M142 843q0 43 32 75t76 32t76 -31.5t32 -75.5q0 -45 -31.5 -76.5t-76.5 -31.5q-44 0 -76 32t-32 76zM173 843q0 -32 22.5 -54.5t54.5 -22.5t55 22.5t23 54.5q0 31 -23 53.5t-55 22.5q-31 0 -54 -22.5t-23 -53.5z" />
    <glyph glyph-name="hungarumlaut.cap" 
d="M93 931h164q-35 -68 -83.5 -115t-119.5 -81h-5q20 34 30.5 81t13.5 115zM287 931h164q-34 -67 -83 -114t-120 -82h-5q20 34 30.5 81t13.5 115z" />
    <glyph glyph-name="caron.cap" 
d="M66 964h10q47 -13 92.5 -34.5t81.5 -47.5q36 26 81.5 47.5t92.5 34.5h10q-58 -57 -109 -122t-73 -111h-4q-22 46 -73 111t-109 122z" />
    <glyph glyph-name="exclamdown.cap" horiz-adv-x="304" 
d="M154 456l112 -456h-228l112 456h4zM152 506q-42 0 -71 29.5t-29 71.5t29 71.5t71 29.5t71 -29.5t29 -71.5t-29 -71.5t-71 -29.5z" />
    <glyph glyph-name="questiondown.cap" horiz-adv-x="555" 
d="M172 126q0 -52 33.5 -84.5t89.5 -32.5q49 0 81 29.5t32 73.5q0 36 -19 58t-50 22q-8 0 -15.5 -1.5t-12.5 -4.5l-2 1q11 34 39 53t67 19q49 0 81.5 -31.5t32.5 -80.5q0 -69 -65.5 -112.5t-168.5 -43.5q-122 0 -195.5 54.5t-73.5 144.5q0 87 72 152t183 82v40h20v-183
q-66 -22 -97.5 -60t-31.5 -95zM391 608q0 -42 -28.5 -71.5t-70.5 -29.5t-71 29.5t-29 71.5t29 71.5t71 29.5t70.5 -29.5t28.5 -71.5z" />
    <glyph glyph-name="guilsinglleft.cap" horiz-adv-x="308" 
d="M18 349v3q72 37 142 91.5t119 111.5h4q-19 -58 -45.5 -111t-55.5 -93q30 -42 56 -95t45 -110h-4q-49 57 -119 111.5t-142 91.5z" />
    <glyph glyph-name="guilsinglright.cap" horiz-adv-x="308" 
d="M294 352v-3q-72 -37 -142 -91.5t-119 -111.5h-4q19 57 45 110t56 95q-29 40 -55.5 93t-45.5 111h4q49 -57 119 -111.5t142 -91.5z" />
    <glyph glyph-name="guillemotleft.cap" horiz-adv-x="509" 
d="M18 349v3q72 37 142 91.5t119 111.5h4q-19 -58 -45.5 -111t-55.5 -93q30 -42 56 -95t45 -110h-4q-49 57 -119 111.5t-142 91.5zM220 349v3q72 37 142 91.5t119 111.5h4q-19 -58 -45.5 -111t-55.5 -93q30 -42 56 -95t45 -110h-4q-49 57 -119 111.5t-142 91.5z" />
    <glyph glyph-name="guillemotright.cap" horiz-adv-x="509" 
d="M294 352v-3q-72 -37 -142 -91.5t-119 -111.5h-4q19 57 45 110t56 95q-29 40 -55.5 93t-45.5 111h4q49 -57 119 -111.5t142 -91.5zM495 352v-3q-72 -37 -142 -91.5t-119 -111.5h-4q19 57 45 110t56 95q-29 40 -55.5 93t-45.5 111h4q49 -57 119 -111.5t142 -91.5z" />
    <glyph glyph-name="slash.cap" horiz-adv-x="353" 
d="M35 -103h-35l298 872h35z" />
    <glyph glyph-name="backslash.cap" horiz-adv-x="353" 
d="M20 769h35l298 -872h-35z" />
    <glyph glyph-name="bar.cap" horiz-adv-x="204" 
d="M117 -103h-30v872h30v-872z" />
    <glyph glyph-name="periodcentered.cap" horiz-adv-x="276" 
d="M137 447q42 0 71 -29.5t29 -71.5t-29 -71.5t-71 -29.5t-71 29.5t-29 71.5t29 71.5t71 29.5z" />
    <glyph glyph-name="bullet.cap" horiz-adv-x="388" 
d="M194 188q-64 0 -110 46t-46 110t46 110.5t110 46.5t110 -46t46 -111q0 -64 -46 -110t-110 -46z" />
    <glyph glyph-name="hyphen.cap" horiz-adv-x="325" 
d="M287 318h-249v64h249v-64z" />
    <glyph glyph-name="endash.cap" horiz-adv-x="496" 
d="M458 326h-420v48h420v-48z" />
    <glyph glyph-name="emdash.cap" horiz-adv-x="796" 
d="M758 326h-720v48h720v-48z" />
    <glyph glyph-name="parenleft.cap" horiz-adv-x="371" 
d="M35 336q0 140 77 250.5t226 185.5h18q-75 -63 -116.5 -179.5t-41.5 -256.5t41.5 -256.5t116.5 -179.5h-18q-148 75 -225.5 185.5t-77.5 250.5z" />
    <glyph glyph-name="parenright.cap" horiz-adv-x="371" 
d="M336 336q0 -140 -77 -250.5t-226 -185.5h-18q75 63 116.5 179.5t41.5 256.5t-41.5 256.5t-116.5 179.5h18q149 -75 226 -185.5t77 -250.5z" />
    <glyph glyph-name="bracketleft.cap" horiz-adv-x="355" 
d="M337 -97h-258v873h258v-3l-115 -38v-790l115 -39v-3z" />
    <glyph glyph-name="bracketright.cap" horiz-adv-x="355" 
d="M18 -93l115 38v791l-115 37v3h258v-872h-258v3z" />
    <glyph glyph-name="braceleft.cap" horiz-adv-x="382" 
d="M126 192q0 70 -29 106.5t-86 38.5v5q57 2 86 39t29 107q0 11 -1.5 23.5t-5.5 38.5q-5 29 -6.5 45t-1.5 30q0 71 54.5 111t150.5 40q14 0 26.5 -1t26.5 -4v-3q-55 0 -84 -33.5t-29 -97.5q0 -16 2 -34t8 -53q5 -29 6.5 -43t1.5 -25q0 -60 -55 -98t-134 -44q81 -7 135 -45
t54 -97q0 -12 -1.5 -26t-6.5 -44q-6 -34 -8 -52t-2 -34q0 -64 29 -97.5t84 -33.5v-3q-14 -3 -26.5 -4t-26.5 -1q-96 0 -150.5 40t-54.5 111q0 14 1.5 30t6.5 46q4 26 5.5 38.5t1.5 23.5z" />
    <glyph glyph-name="braceright.cap" horiz-adv-x="382" 
d="M256 192q0 -11 1.5 -23.5t5.5 -38.5q5 -29 6.5 -45t1.5 -30q0 -71 -54.5 -111t-150.5 -40q-14 0 -26.5 1t-26.5 4v2q55 0 84 33.5t29 97.5q0 16 -2 34.5t-8 53.5q-5 29 -6.5 43t-1.5 25q0 60 55.5 98t133.5 44q-78 6 -133.5 44t-55.5 98q0 11 1.5 25t6.5 43q6 35 8 53.5
t2 34.5q0 64 -29 97.5t-84 33.5v2q14 3 26.5 4t26.5 1q96 0 150.5 -40t54.5 -111q0 -14 -1.5 -30t-6.5 -45q-4 -26 -5.5 -38.5t-1.5 -23.5q0 -70 29 -107t86 -39v-4q-57 -2 -86 -39t-29 -107z" />
    <glyph glyph-name="at.cap" horiz-adv-x="918" 
d="M574 479q27 32 71 52t87 20l-74 -297q-9 -32 0.5 -50t35.5 -18q29 0 59 25.5t50 68.5q15 32 23 69.5t8 78.5q0 139 -95.5 223.5t-244.5 84.5q-82 0 -153.5 -33t-124.5 -94q-49 -58 -76 -134t-27 -158q0 -164 101.5 -262.5t262.5 -98.5q96 0 175 26t140 77l2 -4
q-54 -59 -137.5 -92t-179.5 -33q-200 0 -318.5 103.5t-118.5 284.5q0 91 34.5 172.5t98.5 142.5q63 60 145.5 92t175.5 32q167 0 275.5 -91t108.5 -238q0 -130 -68 -212t-168 -82q-59 0 -95 25.5t-43 71.5q-25 -50 -60.5 -73.5t-84.5 -23.5q-61 0 -99 42.5t-38 112.5
q0 114 66.5 192.5t168.5 78.5q47 0 77.5 -21t39.5 -60zM428 188q30 0 55.5 35.5t38.5 93.5l28 118q9 38 -1.5 60.5t-36.5 22.5q-47 0 -88 -82t-41 -167q0 -37 12 -59t33 -22z" />
    <glyph glyph-name="published" horiz-adv-x="810" 
d="M405 710q152 0 256 -103t104 -257t-104 -257t-256 -103t-256 103t-104 257t104 257t256 103zM405 10q144 0 242 97.5t98 242.5t-98 242.5t-242 97.5t-242 -97.5t-98 -242.5t98 -242.5t242 -97.5zM448 317h-73v-101q0 -25 7 -37t38 -29v-2h-197v2q22 16 27.5 28t5.5 38
v274q0 25 -5.5 37t-27.5 28v2h224q76 0 118 -31.5t42 -88.5t-42 -88.5t-117 -31.5zM375 540v-206h26q43 0 67 27t24 76t-24 76t-67 27h-26z" />
    <glyph glyph-name="florin.op" horiz-adv-x="599" 
d="M33 -208q-76 0 -119.5 27t-43.5 75q0 34 24.5 56t61.5 22q21 0 40 -6t29 -16q-25 -4 -37.5 -22.5t-12.5 -50.5q0 -31 15.5 -50t42.5 -19q25 0 41 22.5t23 68.5l57 372h-89l4 22h88l19 123q16 106 80 163t169 57q78 0 121 -27t43 -77q0 -36 -25.5 -58.5t-63.5 -22.5
q-22 0 -41.5 6.5t-29.5 16.5q25 4 38 23.5t13 53.5q0 33 -14.5 51t-40.5 18q-25 0 -41 -22.5t-23 -68.5l-35 -236h108l-4 -22h-108l-34 -228q-20 -125 -83.5 -188t-171.5 -63z" />
    <glyph glyph-name="Euro.op" horiz-adv-x="637" 
d="M611 196h4q-16 -96 -84 -151t-168 -55q-114 0 -191.5 73.5t-89.5 193.5h-59v22h57v9.5v8.5q0 17 1 31t3 26h-61v23h65q23 119 110.5 189t214.5 70q81 0 136 -36.5t55 -94.5q0 -38 -26 -62t-66 -24q-29 0 -52.5 12.5t-34.5 33.5q3 -1 5 -1h7q29 1 45 19.5t16 50.5
q0 39 -22.5 61.5t-62.5 22.5q-64 0 -104.5 -64.5t-48.5 -176.5h182l-8 -23h-175q-1 -5 -1 -11v-18q0 -8 0.5 -17.5l1.5 -28.5h151l-8 -22h-140q13 -86 58 -133t115 -47q64 0 106 29t69 90z" />
    <glyph glyph-name="dollar.op" horiz-adv-x="559" 
d="M281 617q-6 0 -12.5 -0.5t-16.5 -1.5v-196l60 -18v214q-12 1 -18.5 1.5t-12.5 0.5zM146 515q0 -33 18.5 -53.5t68.5 -36.5h1v187q-42 -9 -65 -34.5t-23 -62.5zM275 9q10 0 19 0.5t18 2.5v214l-60 17v-233q4 -1 8.5 -1h14.5zM430 125q0 37 -22 58.5t-79 38.5v-207
q48 11 74.5 40t26.5 70zM275 -10h-11.5h-11.5v-101h-18v102q-99 7 -157.5 43.5t-58.5 91.5q0 37 25.5 60t66.5 23q22 0 40.5 -7.5t29.5 -20.5q-21 -4 -33.5 -21.5t-12.5 -44.5q0 -38 27 -65.5t73 -36.5v235l-20 6q-90 25 -135 71.5t-45 115.5q0 77 54 129t146 63v107h18
v-105q5 1 11 1h18h19.5t11.5 -1v105h17v-106q85 -7 134 -40t49 -81q0 -34 -22.5 -54.5t-58.5 -20.5q-21 0 -40.5 8t-28.5 20q21 3 34 19.5t13 41.5q0 30 -21 52.5t-59 32.5v-216l28 -8q97 -30 137.5 -74t40.5 -114q0 -78 -57 -134.5t-149 -71.5v-105h-17v103l-22.5 -1.5
t-14.5 -0.5z" />
    <glyph glyph-name="sterling.op" horiz-adv-x="643" 
d="M625 107q0 -61 -40.5 -97t-105.5 -36q-30 0 -59 7.5t-57 22.5q-13 7 -26 15.5t-73 53.5q-33 -41 -75.5 -62.5t-89.5 -21.5q-41 0 -67 23.5t-26 60.5q0 39 27 63t70 24q16 0 39.5 -4t60.5 -14v7.5v7.5q0 27 -5 56t-27 99h-98v22h92q-9 30 -12.5 53t-3.5 45q0 94 74.5 149
t197.5 55q82 0 132 -34.5t50 -92.5q0 -40 -26 -64.5t-66 -24.5q-28 0 -52 11.5t-36 31.5q33 0 52 20.5t19 56.5q0 37 -19 57t-54 20t-54.5 -28.5t-19.5 -77.5v-157v-10v-10h138v-22h-139q-3 -55 -16.5 -104.5t-36.5 -91.5q44 -12 75.5 -17t57.5 -5q61 0 92 22.5t31 66.5
q0 12 -3.5 24t-9.5 22q42 -16 65.5 -48t23.5 -74zM31 73q0 -27 17 -43t46 -16q40 0 68 27t37 74q-25 12 -48.5 18t-47.5 6q-33 0 -52.5 -18t-19.5 -48z" />
    <glyph glyph-name="yen.op" horiz-adv-x="668" 
d="M476 2v-2h-284v2q33 22 44 45t11 72v103h-169v22h169v33l-25 40h-144v23h129l-111 174q-26 41 -46 65t-46 45v2h309v-2q-20 -15 -28 -28t-8 -30q0 -12 3.5 -24t9.5 -24l123 -202l121 189q12 18 17.5 33.5t5.5 27.5q0 19 -11 33.5t-33 24.5v2h152v-2q-23 -17 -41 -38
t-51 -72l-112 -174h129v-23h-143l-26 -40v-33h169v-22h-169v-103q0 -48 10.5 -71t44.5 -46z" />
    <glyph glyph-name="zero.op" horiz-adv-x="668" 
d="M334 636q135 0 221 -90t86 -233t-86 -233t-221 -90t-221 90t-86 233t86 233t221 90zM334 9q57 0 82 70.5t25 233.5t-25 233.5t-82 70.5t-82 -70.5t-25 -233.5t25 -233.5t82 -70.5z" />
    <glyph glyph-name="one.op" horiz-adv-x="399" 
d="M391 5v-5h-379v5q2 1 28.5 10.5t36.5 15.5q19 9 25.5 21t6.5 35v451q0 23 -7 35t-26 21q-11 5 -35 14.5t-32 12.5v5h285v-539q0 -23 6.5 -35t25.5 -21q10 -6 35.5 -15.5t29.5 -10.5z" />
    <glyph glyph-name="two.op" horiz-adv-x="565" 
d="M352 482q0 66 -26.5 102t-76.5 36q-49 0 -78 -33.5t-29 -88.5q0 -43 22 -69.5t56 -26.5q14 0 24 3t19 11h2q-13 -39 -42.5 -59t-73.5 -20q-57 0 -92.5 35t-35.5 92q0 77 63.5 124.5t164.5 47.5q129 0 203 -49.5t74 -139.5q0 -86 -78.5 -154t-302.5 -159h192q93 0 130 16
t70 65h2l-27 -215h-514v2q110 105 150.5 145t68.5 70q77 83 106 139.5t29 125.5z" />
    <glyph glyph-name="three.op" horiz-adv-x="566" 
d="M160 130q0 -54 27.5 -88t71.5 -34q48 0 76 44t28 118q0 81 -34 121t-103 40v9q60 3 88.5 39t28.5 110q0 65 -20 97t-60 32q-38 0 -60.5 -28t-22.5 -73q0 -39 14.5 -62t38.5 -23q6 0 10.5 1t8.5 3h2q-12 -22 -37 -33.5t-61 -11.5q-49 0 -79.5 28t-30.5 72q0 66 60.5 105.5
t156.5 39.5q116 0 186 -41.5t70 -111.5q0 -61 -50 -98.5t-138 -44.5q99 -6 157.5 -50.5t58.5 -117.5q0 -84 -78.5 -133t-209.5 -49q-111 0 -180 43.5t-69 116.5q0 51 34.5 82t89.5 31q39 0 64.5 -12t36.5 -36h-2q-4 1 -9.5 2t-10.5 1q-25 0 -39 -23.5t-14 -64.5z" />
    <glyph glyph-name="four.op" horiz-adv-x="632" 
d="M55 218h240v316zM295 122v67h-292v4l327 433h150v-408h36q40 0 58 10t43 55h2v-159h-2q-25 45 -43 55t-58 10h-36v-67q0 -51 11 -75t44 -45v-2h-295v2q33 22 44 46t11 74z" />
    <glyph glyph-name="five.op" horiz-adv-x="556" 
d="M154 128q0 -53 27.5 -86.5t70.5 -33.5q52 0 79 48t27 138q0 75 -35.5 119.5t-97.5 44.5q-33 0 -68.5 -17.5t-61.5 -44.5h-2l43 336q55 -7 114.5 -11.5t99.5 -4.5q68 0 103.5 10t61.5 35h2q0 -96 -42.5 -141t-130.5 -45q-46 0 -106.5 10t-93.5 22l-20 -164q31 27 77 42
t101 15q107 0 171 -51.5t64 -137.5q0 -101 -79.5 -161t-205.5 -60q-107 0 -174 42.5t-67 115.5q0 51 33 81.5t87 30.5q36 0 62.5 -13t37.5 -36h-2q-4 2 -8 2.5t-12 0.5q-25 1 -40 -22.5t-15 -63.5z" />
    <glyph glyph-name="six.op" horiz-adv-x="606" 
d="M27 335q0 159 94 267t241 108q98 0 156 -37.5t58 -104.5q0 -43 -30.5 -71t-75.5 -28q-39 0 -67 20.5t-36 55.5h2q6 -4 12 -6t13 -2q22 0 36 19t14 49q0 41 -21.5 64t-60.5 23q-73 0 -113 -80t-40 -219q0 -11 0.5 -26.5t1.5 -32.5q21 50 63 77t99 27q93 0 151 -56t58 -152
q0 -108 -73.5 -174t-191.5 -66q-127 0 -208.5 97.5t-81.5 247.5zM318 8q42 0 64.5 51.5t22.5 146.5t-23 145t-66 50t-66.5 -51.5t-23.5 -143.5q0 -95 23.5 -146.5t68.5 -51.5z" />
    <glyph glyph-name="seven.op" horiz-adv-x="544" 
d="M17 359l21 278q11 -6 29.5 -8.5t48.5 -2.5h429v-2l-137 -219q-56 -87 -75.5 -212t0.5 -258l-193 -18q5 68 26 133.5t58 132.5q25 44 60 93.5t103 134.5l38 46h-276q-48 0 -75.5 -20.5t-54.5 -77.5h-2z" />
    <glyph glyph-name="eight.op" horiz-adv-x="577" 
d="M509 501q0 -46 -39.5 -76.5t-100.5 -35.5q94 -29 142 -79.5t48 -119.5q0 -91 -75 -145.5t-195 -54.5q-121 0 -196.5 43t-75.5 114q0 50 40 84t112 46q-57 23 -90 68t-33 102q0 86 66.5 137.5t171.5 51.5q99 0 162 -37t63 -98zM284 618q-51 0 -80 -24t-29 -68
q1 -34 22 -57t69 -41l91 -34q25 21 37 48t12 61q0 54 -32.5 84.5t-89.5 30.5zM422 112q0 36 -23 60t-88 50l-130 50q-25 -19 -39 -48.5t-14 -65.5q0 -67 45 -108.5t116 -41.5q61 0 97 28t36 76z" />
    <glyph glyph-name="nine.op" horiz-adv-x="606" 
d="M579 291q0 -159 -94 -267t-241 -108q-98 0 -156 37.5t-58 104.5q0 43 30.5 71t75.5 28q39 0 67 -20.5t36 -55.5h-2q-6 4 -12 6t-13 2q-22 0 -36 -19t-14 -49q0 -41 21.5 -64t60.5 -23q73 0 113 80t40 219q0 11 -0.5 26.5t-1.5 32.5q-21 -50 -63 -77t-99 -27
q-93 0 -151 56t-58 152q0 108 73.5 174t191.5 66q127 0 208.5 -97.5t81.5 -247.5zM288 618q-42 0 -64.5 -51.5t-22.5 -146.5t23 -145t66 -50t66.5 51.5t23.5 143.5q0 95 -23.5 146.5t-68.5 51.5z" />
    <glyph glyph-name="percent.op" horiz-adv-x="700" 
d="M554 636l-390 -636h-44l392 601q-23 -20 -58 -33t-71 -13q-16 0 -32 2.5t-36 7.5q14 -19 21.5 -41.5t7.5 -46.5q0 -66 -48 -112t-114 -46t-114 46.5t-48 111.5q0 66 48 112.5t114 46.5q21 0 40.5 -5.5t53.5 -22.5q37 -19 59.5 -25t47.5 -6q46 0 82 14.5t77 53.5zM133 477
q0 -78 11.5 -109t37.5 -31q27 0 38.5 31t11.5 109t-11.5 109.5t-38.5 31.5q-26 0 -37.5 -31.5t-11.5 -109.5zM680 153q0 -65 -48 -111.5t-114 -46.5t-114 46t-48 112t47.5 112.5t114.5 46.5q66 0 114 -46.5t48 -112.5zM468 153q0 -77 11.5 -108.5t38.5 -31.5q26 0 37.5 31.5
t11.5 108.5q0 78 -11.5 109.5t-37.5 31.5q-27 0 -38.5 -31.5t-11.5 -109.5z" />
    <glyph glyph-name="perthousand.op" horiz-adv-x="1055" 
d="M554 636l-390 -636h-44l392 601q-23 -20 -58 -33t-71 -13q-16 0 -32 2.5t-36 7.5q14 -19 21.5 -41.5t7.5 -46.5q0 -66 -48 -112t-114 -46t-114 46.5t-48 111.5q0 66 48 112.5t114 46.5q21 0 40.5 -5.5t53.5 -22.5q37 -19 59.5 -25t47.5 -6q46 0 82 14.5t77 53.5zM133 477
q0 -78 11.5 -109t37.5 -31q27 0 38.5 31t11.5 109t-11.5 109.5t-38.5 31.5q-26 0 -37.5 -31.5t-11.5 -109.5zM680 153q0 -65 -48 -111.5t-114 -46.5t-114 46t-48 112t47.5 112.5t114.5 46.5q66 0 114 -46.5t48 -112.5zM1035 153q0 -66 -48 -112t-114 -46t-114 46.5
t-48 111.5q0 66 48 112.5t114 46.5q67 0 114.5 -46.5t47.5 -112.5zM468 153q0 -77 11.5 -108.5t38.5 -31.5q26 0 37.5 31.5t11.5 108.5q0 78 -11.5 109.5t-37.5 31.5q-27 0 -38.5 -31.5t-11.5 -109.5zM824 153q0 -79 11.5 -109.5t37.5 -30.5q27 0 38.5 31.5t11.5 108.5
q0 78 -11.5 109.5t-38.5 31.5q-26 0 -37.5 -31t-11.5 -110z" />
    </font>
</defs>
</svg>
